<?xml version="1.0" encoding="UTF-8"?>
<svg id="Layer_2" data-name="Layer 2" xmlns="http://www.w3.org/2000/svg" viewBox="0 0 654.56 575.41">
  <defs>
    <style>
      .cls-1 {
        fill: #609c41;
      }

      .cls-1, .cls-2, .cls-3, .cls-4 {
        stroke-width: 0px;
      }

      .cls-2 {
        fill: #ffac00;
      }

      .cls-3 {
        fill: #fff;
      }

      .cls-4 {
        fill: #ffc900;
      }
    </style>
  </defs>
  <g id="Layer_1-2" data-name="Layer 1">
    <g>
      <g>
        <g>
          <path class="cls-2" d="m375.43,219.58c.4,4.37.64,8.78.64,13.26,0,78.98-64.26,143.24-143.24,143.24s-143.24-64.26-143.24-143.24S153.85,89.59,232.83,89.59c15.31,0,30.05,2.44,43.9,6.91,15.93-5.33,32.96-8.26,50.66-8.26h48.68v-38.71h0v-.18C336.56,18.46,286.87,0,232.83,0,104.24,0,0,104.24,0,232.83s104.24,232.83,232.83,232.83c54.04,0,103.73-18.46,143.24-49.34v49.34h89.6v-246.09h-90.23Z"/>
          <g>
            <path class="cls-2" d="m516.05,298.4h-28.89v88.34h28.89c27.66,0,50.16,22.5,50.16,50.16s-22.5,50.16-50.16,50.16H0v88.34h516.05c76.37,0,138.5-62.13,138.5-138.5s-62.13-138.5-138.5-138.5Z"/>
            <path class="cls-2" d="m327.39,109.74c-76.37,0-138.5,62.13-138.5,138.5,0,42.6,19.35,80.76,49.7,106.19,40.6-1.9,76.04-23.79,96.73-56.02h-7.93c-27.66,0-50.16-22.5-50.16-50.16s22.5-50.16,50.16-50.16h204.9v-88.34h-204.9Z"/>
          </g>
        </g>
        <g>
          <path class="cls-4" d="m376.07,49.34C336.56,18.46,286.87,0,232.83,0c-60.9,0-116.33,23.39-157.82,61.67,9.01,31.43,23.64,60.47,42.75,85.98,26.12-35.2,67.97-58.05,115.07-58.05,15.31,0,30.05,2.44,43.9,6.91l19.05-3.11c21.04-3.43,42.33-5.16,63.66-5.16h16.64v-38.71h0v-.18Z"/>
          <path class="cls-3" d="m375.43,219.58c.4,4.37.64,8.78.64,13.26,0,6.06-.42,12.02-1.16,17.88,31.4-5.23,60.94-15.94,87.6-31.13h-87.08Z"/>
        </g>
        <path class="cls-4" d="m304.29,111.7c-.99,9.33-1.51,18.81-1.51,28.4,0,21.04,2.45,41.51,7.07,61.15,5.46-2.05,11.37-3.17,17.54-3.17h204.9v-88.34h-204.9c-7.87,0-15.58.7-23.1,1.96Z"/>
        <path class="cls-4" d="m516.05,298.4h-28.89v88.34h28.89c15.98,0,30.22,7.52,39.41,19.19,4.46.22,8.95.34,13.47.34,27.47,0,53.97-4.17,78.91-11.89-17.99-55.62-70.26-95.97-131.79-95.97Z"/>
        <path class="cls-1" d="m437.88,539.06c-54.99,0-259-23.42-301.42-51.99H0v88.34h516.05c76.37,0,138.5-62.13,138.5-138.5,0-2.48-.07-4.94-.2-7.39-50.87,84.91-131.06,109.55-216.48,109.55Z"/>
        <path class="cls-1" d="m218.93,388.39c-87.75,0-165.58-42.47-214.06-107.98,21.96,105.77,115.68,185.26,227.96,185.26,54.04,0,103.73-18.46,143.24-49.34v49.34h89.6v-243.48c-39.52,97.46-135.09,166.2-246.73,166.2Z"/>
        <g>
          <path class="cls-3" d="m416.23,121.77c-20.5-.39-37.33,10.88-37.61,25.17-.27,14.29,16.12,26.2,36.61,26.59,20.5.39,37.33-10.88,37.61-25.17.27-14.29-16.12-26.2-36.61-26.59Z"/>
          <path class="cls-3" d="m492.19,132.42c-7.62-5.31-18.1-3.43-23.41,4.19-5.31,7.62-3.43,18.1,4.19,23.41,7.62,5.31,18.1,3.43,23.41-4.19,5.31-7.62,3.43-18.1-4.19-23.41Z"/>
        </g>
      </g>
      <circle class="cls-1" cx="608.8" cy="155.49" r="45.76" transform="translate(68.36 476.03) rotate(-45)"/>
    </g>
  </g>
</svg>