<svg width="880" height="783" viewBox="0 0 880 783" fill="none" xmlns="http://www.w3.org/2000/svg">
<g filter="url(#filter0_d_52_7)">
<path d="M638.684 260.038C652.268 260.038 663.281 249.036 663.281 235.464C663.281 221.892 652.268 210.889 638.684 210.889C625.099 210.889 614.086 221.892 614.086 235.464C614.086 249.036 625.099 260.038 638.684 260.038Z" fill="url(#paint0_linear_52_7)"/>
</g>
<g filter="url(#filter1_d_52_7)">
<path d="M237.705 335.485C244.402 344.342 242.667 356.954 233.802 363.645C224.936 370.336 212.312 368.603 205.615 359.746C198.917 350.889 200.652 338.276 209.518 331.585C218.383 324.894 231.007 326.627 237.705 335.485Z" fill="url(#paint1_linear_52_7)"/>
</g>
<g filter="url(#filter2_d_52_7)">
<path d="M215.565 288.175C186.462 310.174 144.905 304.397 122.885 275.346C100.865 246.271 106.647 204.752 135.726 182.753C164.828 160.754 206.386 166.53 228.405 195.582C250.425 224.633 244.643 266.176 215.565 288.175ZM146.543 197.026C125.342 213.056 121.126 243.334 137.171 264.515C153.216 285.696 183.523 289.908 204.724 273.878C225.924 257.848 230.14 227.569 214.095 206.389C198.05 185.208 167.743 180.996 146.543 197.026Z" fill="url(#paint2_linear_52_7)"/>
</g>
<path d="M876.91 584.597C874.646 568.134 870.117 551.863 863.973 536.531C847.615 495.735 799.215 454.745 801.384 410.434C803.576 365.859 846.025 334.497 849.928 289.801C852.988 254.781 823.957 224.261 791.916 209.772C759.85 195.282 723.954 191.84 690.635 180.528C635.321 161.754 589.885 122.498 544.425 85.8648C491.086 42.8777 425.172 -6.00629 352.464 2.63445C288.26 10.2402 229.935 65.9357 225.936 131.5C223.912 164.378 233.621 196.702 238.825 229.243C244.028 261.785 244.028 297.623 225.165 324.653C204.904 353.704 168.044 365.57 133.376 373.031C98.733 380.517 61.8731 386.221 34.192 408.34C-42.3947 469.548 33.1561 579.567 81.2185 628.908C119.427 668.14 162.551 704.701 214.251 722.753C265.976 740.804 327.915 737.338 370.123 702.463C394.793 682.076 410.645 653.29 429.701 627.584C448.757 601.879 474.005 577.521 505.734 573.357C545.99 568.086 582.778 596.752 608.58 628.066C634.382 659.379 655.703 696.012 690.154 717.506C749.876 754.788 839.93 726.724 867.852 662.123C878.356 637.814 880.524 610.953 876.886 584.573L876.91 584.597Z" stroke="url(#paint3_linear_52_7)" stroke-opacity="0.42" stroke-width="2" stroke-miterlimit="10"/>
<path d="M230.73 140.044C229.646 171.815 239.017 202.936 244.438 234.322C246.124 244.142 247.329 254.275 247.642 264.36C248.317 286.552 244.655 308.575 232.489 326.675C213.456 354.98 178.476 367.086 145.374 374.981C112.296 382.827 76.9302 388.965 50.0201 410.386C20.0022 434.311 13.2566 465.6 19.0867 497.877C27.5669 545.606 63.8004 595.476 91.6019 624.528C128.462 662.942 170.79 698.395 221.358 715.532C259.76 728.553 303.775 729.372 340.659 713.992C352.319 709.13 363.281 702.655 373.11 694.424C396.744 674.783 411.946 647.152 430.231 622.458C448.492 597.739 472.608 574.32 502.915 570.011C526.958 566.618 549.749 575.788 569.6 590.326C581.477 599.039 592.294 609.677 601.666 620.701C626.649 650.137 647.464 684.772 680.613 705.158C686.371 708.697 692.442 711.633 698.682 713.968C754.791 734.932 826.704 708.167 851.687 653.41C862.166 630.424 864.961 604.96 862.142 579.807C860.384 564.115 856.481 548.542 851.012 533.812C843.062 512.246 825.909 490.512 812.394 468.176C801.311 449.859 792.687 431.134 793.674 411.758C795.843 368.579 837.159 337.915 838.509 294.831C838.87 283.399 834.847 272.88 829.667 262.579C823.909 251.194 816.537 240.267 807.696 230.808C799.023 221.493 788.928 213.165 777.292 207.63C747.009 193.188 712.559 190.276 680.782 179.445C628.046 161.465 584.585 124.231 541.052 89.5475C490.026 48.871 427.075 2.73082 357.716 10.9865C293.777 18.6885 232.995 74.3118 230.754 140.044H230.73Z" stroke="url(#paint4_linear_52_7)" stroke-opacity="0.42" stroke-width="2" stroke-miterlimit="10"/>
<path d="M235.548 148.564C235.355 179.204 244.438 209.146 250.051 239.376C251.81 248.836 253.111 258.608 253.52 268.355C254.46 289.777 251.183 311.078 239.788 328.72C221.961 356.303 188.907 368.627 157.347 376.93C125.836 385.162 91.9391 391.685 65.8481 412.432C36.7456 435.562 29.47 465.408 34.1438 496.553C41.0821 542.645 75.0028 591.433 101.961 620.147C137.496 657.719 179.006 692.089 228.417 708.311C265.952 720.635 308.786 720.948 344.586 705.688C355.909 700.85 366.509 694.448 376.073 686.409C398.599 667.466 413.247 641.039 430.737 617.331C448.227 593.623 471.186 571.094 500.096 566.666C523.007 563.152 544.786 571.528 563.842 585.03C575.261 593.117 585.693 603.058 594.751 613.359C618.915 640.918 639.2 673.532 671.073 692.811C676.614 696.157 682.42 698.949 688.419 701.163C742.239 721.092 810.707 696.084 835.521 644.673C845.977 622.987 849.422 598.942 847.398 574.994C846.17 560.047 842.821 545.196 838.075 531.068C831.112 510.369 815.525 489.356 803.142 467.718C792.976 449.98 785.026 431.832 785.989 413.058C788.133 371.274 828.029 341.188 827.089 299.814C826.824 287.923 821.018 277.502 815.164 266.719C808.587 254.708 801.504 242.602 793.048 232.011C784.736 221.565 775.1 211.673 762.717 205.487C734.169 191.215 701.211 188.711 671.001 178.338C620.842 161.152 579.333 125.94 537.775 93.2058C489.014 54.8159 429.002 11.3955 362.968 19.2901C299.294 27.0885 235.982 82.5674 235.572 148.516L235.548 148.564Z" stroke="url(#paint5_linear_52_7)" stroke-opacity="0.42" stroke-width="2" stroke-miterlimit="10"/>
<path d="M240.366 157.109C241.017 186.617 249.858 215.356 255.689 244.479C257.52 253.601 258.893 262.988 259.423 272.399C260.603 293.05 257.736 313.629 247.136 330.79C230.537 357.627 199.363 370.215 169.369 378.928C139.423 387.545 106.996 394.453 81.7003 414.526C53.5374 436.886 45.6354 465.312 49.2491 495.277C54.5974 539.757 86.2054 587.534 112.369 615.815C146.458 652.664 187.293 685.831 235.524 701.115C272.167 712.74 313.821 712.572 348.537 697.408C359.523 692.595 369.786 686.264 379.037 678.394C400.478 660.15 414.548 634.949 431.243 612.228C447.938 589.507 469.789 567.917 497.253 563.368C519.032 559.758 539.775 567.34 558.06 579.783C569.022 587.245 579.044 596.463 587.813 606.067C611.158 631.748 630.937 662.34 661.533 680.536C666.857 683.689 672.422 686.313 678.18 688.431C729.736 707.301 794.735 684.074 819.356 636.008C829.812 615.622 833.859 592.973 832.654 570.276C831.932 556.1 829.185 541.947 825.138 528.42C819.187 508.588 805.142 488.321 793.891 467.382C784.664 450.22 777.365 432.626 778.328 414.454C780.448 374.042 818.633 344.486 815.718 304.916C814.803 292.497 807.286 282.243 800.709 270.955C793.337 258.295 786.519 245.033 778.425 233.287C770.474 221.686 761.296 210.277 748.142 203.418C721.28 189.433 689.889 187.219 661.196 177.327C613.615 160.936 574.081 127.745 534.451 96.9607C487.954 60.8573 430.882 20.0364 368.22 27.6903C304.787 35.4405 238.945 90.8953 240.391 157.109H240.366Z" stroke="url(#paint6_linear_52_7)" stroke-opacity="0.42" stroke-width="2" stroke-miterlimit="10"/>
<path d="M245.185 165.653C246.63 194.006 255.279 221.589 261.302 249.558C263.205 258.319 264.651 267.344 265.325 276.394C266.771 296.251 264.289 316.132 254.46 332.812C239.09 358.903 209.818 371.731 181.366 380.878C152.987 389.855 122.053 397.196 97.5524 416.572C70.305 438.138 61.8248 465.143 64.3303 493.953C68.0645 536.82 97.4078 583.514 122.752 611.434C155.468 647.489 195.532 679.501 242.631 693.894C278.383 704.821 318.856 704.171 352.488 689.104C363.136 684.339 373.062 678.057 382.024 670.355C402.405 652.832 415.872 628.812 431.773 607.101C447.673 585.367 468.392 564.716 494.435 560.023C515.057 556.316 534.788 563.079 552.302 574.464C562.782 581.275 572.419 589.796 580.899 598.701C603.424 622.482 622.673 651.075 651.993 668.164C657.1 671.149 662.424 673.604 667.917 675.602C717.208 693.437 778.762 671.967 803.19 627.271C813.622 608.185 818.296 586.956 817.91 565.462C817.693 552.032 815.549 538.601 812.201 525.676C807.286 506.686 794.758 487.166 784.616 466.948C776.304 450.389 769.679 433.348 770.619 415.778C772.715 376.762 808.9 347.638 804.299 309.922C802.709 296.973 793.457 286.888 786.206 275.095C778.015 261.785 771.486 247.343 763.777 234.466C756.212 221.71 747.467 208.761 733.566 201.275C708.342 187.652 678.541 185.654 651.39 176.244C606.388 160.647 568.805 129.478 531.15 100.643C486.942 66.8503 432.785 28.7251 373.496 36.0179C310.328 43.7922 241.86 99.1026 245.233 165.605L245.185 165.653Z" stroke="url(#paint7_linear_52_7)" stroke-opacity="0.42" stroke-width="2" stroke-miterlimit="10"/>
<path d="M250.003 174.198C252.171 201.372 260.699 227.823 266.939 254.66C268.891 263.06 270.457 271.725 271.227 280.438C272.938 299.525 270.842 318.684 261.808 334.906C247.666 360.251 220.298 373.416 193.364 382.875C166.55 392.31 137.086 399.964 113.38 418.666C87.0484 439.437 77.966 465.023 79.3874 492.678C81.5074 533.956 108.61 579.543 133.111 607.102C164.454 642.363 203.747 673.243 249.69 686.722C284.55 696.951 323.843 695.796 356.415 680.873C366.726 676.131 376.314 669.946 384.987 662.412C404.284 645.612 417.173 622.795 432.279 602.071C447.384 581.348 466.994 561.611 491.592 556.773C511.082 552.971 529.801 558.916 546.544 569.265C556.566 575.451 565.817 583.273 573.984 591.457C595.691 613.36 614.41 639.956 642.452 655.937C647.319 658.729 652.426 661.04 657.654 662.917C704.656 679.718 762.813 659.981 787.025 618.655C797.457 600.844 802.757 581.059 803.166 560.769C803.455 548.109 801.914 535.376 799.263 523.053C795.361 504.905 784.375 486.131 775.365 466.611C767.969 450.629 761.994 434.166 762.958 417.198C765.03 379.578 798.974 350.888 792.903 315.049C790.615 301.522 779.653 291.654 771.703 279.355C762.669 265.419 756.453 249.798 749.129 235.79C741.926 221.878 733.638 207.413 718.991 199.254C695.381 186.088 667.194 184.211 641.585 175.257C599.16 160.454 563.553 131.283 527.825 104.422C485.882 72.9158 434.664 37.4863 378.723 44.4422C315.821 52.2646 244.679 107.358 250.027 174.222L250.003 174.198Z" stroke="url(#paint8_linear_52_7)" stroke-opacity="0.42" stroke-width="2" stroke-miterlimit="10"/>
<path d="M254.822 182.718C257.688 208.737 266.145 234.033 272.577 259.715C274.601 267.778 276.239 276.081 277.13 284.409C279.082 302.726 277.395 321.163 269.132 336.904C256.219 361.502 230.754 374.908 205.362 384.801C180.138 394.621 152.144 402.66 129.209 420.688C103.792 440.665 94.1317 464.854 94.469 491.33C94.9749 530.995 119.813 575.499 143.495 602.697C173.489 637.139 212.011 666.913 256.773 679.477C290.766 689.008 328.879 687.371 360.342 672.545C370.316 667.827 379.567 661.714 387.927 654.349C406.164 638.295 418.451 616.633 432.761 596.92C447.095 577.184 465.549 558.362 488.725 553.404C507.083 549.48 524.766 554.655 540.739 563.946C550.303 569.506 559.145 576.606 567.022 584.092C587.91 604.117 606.123 628.691 632.888 643.59C637.538 646.189 642.38 648.356 647.367 650.089C692.105 665.854 746.865 647.874 770.836 609.917C781.268 593.406 787.17 575.018 788.399 555.979C789.218 544.065 788.254 532.03 786.303 520.357C783.412 503.076 773.968 485.024 766.066 466.226C759.585 450.822 754.285 434.936 755.225 418.545C757.297 382.322 788.76 354.041 781.46 320.079C778.425 305.951 765.825 296.323 757.176 283.519C747.323 268.933 741.396 252.157 734.434 236.994C727.592 221.95 719.762 205.969 704.344 197.111C682.3 184.451 655.775 182.646 631.708 174.174C591.861 160.165 558.229 133.016 524.429 108.104C484.774 78.8847 436.495 46.175 383.903 52.7699C321.242 60.6405 247.377 115.469 254.773 182.718H254.822Z" stroke="url(#paint9_linear_52_7)" stroke-opacity="0.42" stroke-width="2" stroke-miterlimit="10"/>
<path d="M259.64 191.263C263.133 216.102 271.565 240.267 278.19 264.793C280.286 272.495 281.996 280.438 283.008 288.429C285.225 305.975 283.924 323.69 276.455 338.974C264.771 362.826 241.185 376.497 217.359 386.775C193.701 396.98 167.177 405.428 145.061 422.758C120.584 441.941 110.297 464.71 109.55 490.03C108.442 528.107 131.039 571.504 153.902 598.34C182.547 631.989 220.274 660.631 263.88 672.256C296.981 681.089 333.913 678.971 364.293 664.241C373.929 659.548 382.843 653.506 390.914 646.334C408.091 631.002 419.775 610.543 433.291 591.818C446.83 573.068 464.152 555.185 485.906 550.082C503.132 546.063 519.803 550.419 534.981 558.651C544.063 563.585 552.543 569.939 560.108 576.751C580.224 594.85 597.859 617.451 623.348 631.243C627.781 633.65 632.382 635.647 637.104 637.284C679.577 651.99 730.964 635.768 754.646 601.181C765.078 585.945 771.558 569 773.63 551.165C774.931 539.997 774.594 528.685 773.341 517.613C771.486 501.15 763.56 483.893 756.79 465.793C751.225 450.966 746.6 435.659 747.539 419.869C749.587 385.042 778.4 357.17 770.041 325.11C766.21 310.38 751.996 300.993 742.673 287.707C732 272.495 726.363 254.54 719.786 238.221C713.305 222.023 705.933 204.549 689.768 194.993C669.29 182.911 644.452 181.106 621.926 173.115C584.657 159.901 552.977 134.773 521.152 111.835C483.762 84.9021 438.422 54.8881 389.203 61.1461C326.806 69.0647 250.123 123.629 259.64 191.287V191.263Z" stroke="url(#paint10_linear_52_7)" stroke-opacity="0.42" stroke-width="2" stroke-miterlimit="10"/>
<path d="M264.458 199.807C268.529 223.443 276.986 246.501 283.827 269.896C285.996 277.237 287.778 284.819 288.911 292.448C291.392 309.224 290.477 326.217 283.779 341.019C273.3 364.126 251.641 378.062 229.357 388.748C207.265 399.338 182.234 408.172 160.889 424.827C137.327 443.216 126.438 464.589 124.607 488.73C121.861 525.219 142.242 567.508 164.262 593.984C191.533 626.814 228.514 654.349 270.963 665.059C303.173 673.195 338.925 670.595 368.244 655.961C377.543 651.292 386.12 645.347 393.901 638.319C410.018 623.733 421.1 604.43 433.821 586.715C446.565 568.976 462.779 552.008 483.088 546.761C499.181 542.645 514.816 546.183 529.223 553.38C537.848 557.688 545.942 563.344 553.194 569.434C572.491 585.656 589.62 606.259 613.808 618.943C618.024 621.158 622.384 623.011 626.865 624.527C667.074 638.199 715.112 623.685 738.505 592.516C748.985 578.556 756.02 563.055 758.91 546.448C760.717 536.05 760.982 525.412 760.428 514.966C759.585 499.345 753.201 482.834 747.563 465.432C742.938 451.207 738.963 436.429 739.878 421.265C741.902 387.809 767.921 360.395 758.67 330.188C753.972 314.857 738.216 305.734 728.218 291.919C716.726 276.057 711.378 256.923 705.187 239.497C699.091 222.143 692.153 203.201 675.217 192.923C656.257 181.442 633.129 179.613 612.146 172.08C577.454 159.66 547.749 136.554 517.852 115.566C482.726 90.9192 440.35 63.6491 394.455 69.5219C332.324 77.4887 252.701 131.764 264.458 199.831V199.807Z" stroke="url(#paint11_linear_52_7)" stroke-opacity="0.42" stroke-width="2" stroke-miterlimit="10"/>
<path d="M269.276 208.352C273.902 230.832 282.406 252.735 289.465 274.974C291.705 281.978 293.584 289.175 294.813 296.468C297.535 312.45 297.029 328.744 291.127 343.089C281.876 365.474 262.121 379.65 241.354 390.722C220.828 401.697 197.267 410.94 176.741 426.897C154.095 444.492 142.579 464.469 139.712 487.431C135.328 522.331 153.493 563.489 174.669 589.627C200.591 621.639 236.777 648.067 278.069 657.863C309.388 665.3 343.96 662.195 372.195 647.682C381.157 643.06 389.396 637.188 396.864 630.304C411.921 616.44 422.401 598.316 434.327 581.612C446.276 564.861 461.357 548.831 480.269 543.439C495.23 539.203 509.829 541.971 523.465 548.084C531.632 551.767 539.317 556.701 546.279 562.093C564.758 576.414 581.357 595.019 604.292 606.62C608.267 608.642 612.41 610.351 616.626 611.747C654.546 624.383 699.308 611.602 722.364 583.803C732.868 571.118 740.48 557.038 744.191 541.658C746.503 532.006 747.395 522.066 747.515 512.246C747.708 497.443 742.841 481.702 738.312 465.023C734.602 451.376 731.278 437.175 732.217 422.589C734.217 390.529 757.272 363.572 747.298 335.219C741.709 319.285 724.436 310.404 713.739 296.083C701.404 279.596 696.369 259.281 690.539 240.7C684.805 222.191 678.325 201.781 660.641 190.805C643.199 179.974 621.782 178.073 602.34 171.021C570.226 159.395 542.497 138.311 514.551 119.272C481.714 96.9124 442.277 72.3621 399.731 77.8739C337.84 85.9129 255.231 139.9 269.3 208.376L269.276 208.352Z" stroke="url(#paint12_linear_52_7)" stroke-opacity="0.42" stroke-width="2" stroke-miterlimit="10"/>
<path d="M274.095 216.872C279.202 238.173 287.827 258.92 295.078 280.029C297.367 286.672 299.342 293.507 300.716 300.439C303.703 315.651 303.582 331.223 298.451 345.087C290.429 366.725 272.577 381.142 253.352 392.647C234.392 403.984 212.324 413.635 192.569 428.895C170.839 445.719 158.721 464.252 154.77 486.059C148.747 519.37 164.695 559.421 185.028 585.199C209.602 616.368 244.992 641.689 285.128 650.594C315.58 657.333 348.971 653.747 376.098 639.33C384.722 634.733 392.648 628.932 399.804 622.241C413.801 609.123 423.654 592.179 434.808 576.462C445.987 560.697 459.936 545.581 477.402 540.07C491.207 535.737 504.818 537.687 517.659 542.765C525.344 545.822 532.668 550.034 539.317 554.727C557 567.171 573.045 583.755 594.703 594.249C598.462 596.078 602.34 597.618 606.315 598.918C641.971 610.519 683.48 599.496 706.15 575.066C716.726 563.657 724.893 551.021 729.398 536.844C732.241 527.963 733.711 518.696 734.53 509.502C735.759 495.542 732.41 480.547 729.013 464.589C726.218 451.52 723.568 437.897 724.484 423.913C726.459 393.249 746.431 366.821 735.831 340.225C729.254 323.738 710.535 315.073 699.188 300.223C686.01 283.11 681.288 261.616 675.843 241.88C670.471 222.239 664.424 200.361 645.994 188.639C630.045 178.482 610.363 176.484 592.463 169.913C562.903 159.082 537.149 140.02 511.154 122.931C480.582 102.857 444.084 81.051 404.911 86.1776C343.285 94.2648 257.52 147.963 274.046 216.848L274.095 216.872Z" stroke="url(#paint13_linear_52_7)" stroke-opacity="0.42" stroke-width="2" stroke-miterlimit="10"/>
<path d="M278.913 225.416C284.478 245.562 293.247 265.154 300.715 285.131C303.076 291.413 305.124 297.888 306.618 304.483C309.87 318.924 310.135 333.775 305.799 347.157C299.005 368.049 283.032 382.707 265.373 394.621C248.003 406.343 227.381 416.379 208.421 430.965C187.63 446.995 174.862 464.132 169.851 484.759C162.166 516.482 175.922 555.402 195.412 580.842C218.66 611.193 253.255 635.407 292.211 643.373C321.771 649.415 353.982 645.347 380.048 631.026C388.336 626.453 395.925 620.749 402.767 614.202C415.704 601.83 424.955 586.041 435.314 571.335C445.698 556.557 458.514 542.38 474.559 536.724C487.231 532.295 499.807 533.427 511.877 537.47C519.104 539.877 526.018 543.391 532.379 547.387C549.243 557.929 564.782 572.515 585.139 581.925C588.68 583.562 592.318 584.958 596.028 586.138C629.419 596.68 667.748 587.437 689.961 566.353C700.633 556.22 709.306 545.004 714.63 532.079C717.979 523.943 720.075 515.375 721.569 506.806C723.857 493.665 722.002 479.464 719.738 464.18C717.859 451.688 715.883 438.643 716.798 425.261C718.75 395.993 735.566 370.119 724.435 345.28C716.798 328.263 696.754 319.767 684.709 304.411C670.712 286.672 666.279 263.999 661.22 243.131C656.209 222.336 650.571 199.037 631.443 186.545C616.964 177.086 599.064 174.968 582.706 168.879C555.723 158.842 531.945 141.801 507.902 126.662C479.618 108.899 446.059 89.788 410.211 94.5537C348.85 102.713 259.784 156.146 278.913 225.416Z" stroke="url(#paint14_linear_52_7)" stroke-opacity="0.42" stroke-width="2" stroke-miterlimit="10"/>
<path d="M283.731 233.961C289.706 252.951 298.668 271.388 306.329 290.21C308.762 296.131 310.906 302.244 312.496 308.478C315.989 322.149 316.664 336.278 313.098 349.203C307.533 369.349 293.464 384.271 277.347 396.595C261.543 408.677 242.414 419.147 224.249 433.035C204.374 448.271 190.955 464.012 184.932 483.459C175.56 513.594 187.172 551.406 205.795 576.51C227.694 606.018 261.494 629.149 299.318 636.201C327.987 641.544 359.017 636.971 383.999 622.77C391.95 618.221 399.201 612.613 405.754 606.211C417.655 594.61 426.28 579.976 435.844 566.257C445.433 552.489 457.141 539.227 471.74 533.427C483.28 528.878 494.844 529.214 506.119 532.199C512.889 533.98 519.417 536.772 525.488 540.07C541.509 548.734 556.542 561.322 575.647 569.602C578.971 571.046 582.368 572.298 585.813 573.357C616.915 582.864 652.137 575.427 673.819 557.64C684.612 548.807 693.767 539.011 699.91 527.289C703.765 519.9 706.511 512.029 708.656 504.087C712.004 491.763 711.643 478.333 710.487 463.771C709.523 451.881 708.222 439.365 709.113 426.585C711.065 398.713 724.604 373.44 713.04 350.286C704.295 332.788 682.95 324.436 670.23 308.575C655.389 290.186 651.27 266.334 646.596 244.335C641.97 222.384 636.719 197.713 616.867 184.403C603.834 175.666 587.717 173.403 572.9 167.771C548.496 158.529 526.669 143.51 504.577 130.32C478.558 114.844 447.962 98.501 415.463 102.857C354.367 111.089 261.856 164.305 283.755 233.889L283.731 233.961Z" stroke="url(#paint15_linear_52_7)" stroke-opacity="0.42" stroke-width="2" stroke-miterlimit="10"/>
<path d="M288.549 242.506C294.885 260.365 304.088 277.622 311.966 295.313C314.472 300.897 316.688 306.649 318.399 312.522C322.157 325.423 323.217 338.829 320.446 351.273C316.11 370.673 303.944 385.836 289.344 398.593C275.106 411.06 257.447 421.915 240.077 435.129C221.117 449.571 207.072 463.916 199.989 482.184C188.931 510.706 198.399 547.411 216.155 572.178C236.729 600.868 269.71 622.891 306.377 629.028C334.154 633.674 364.028 628.619 387.902 614.515C395.515 609.99 402.454 604.478 408.693 598.244C419.559 587.389 427.557 573.911 436.326 561.202C445.144 548.422 455.696 536.098 468.874 530.177C479.281 525.532 489.809 525.075 500.313 527C506.601 528.156 512.744 530.25 518.526 532.825C533.728 539.612 548.255 550.179 566.059 557.375C569.142 558.627 572.322 559.734 575.526 560.673C604.364 569.145 636.526 563.561 657.63 549.047C668.568 541.514 678.204 533.114 685.143 522.644C689.527 516.025 692.876 508.828 695.695 501.511C700.127 490.006 701.236 477.346 701.212 463.506C701.163 452.194 700.537 440.256 701.404 428.077C703.332 401.577 713.595 377.027 701.597 355.485C691.623 337.554 669.098 329.274 655.679 312.907C640.019 293.893 636.189 268.861 631.876 245.731C627.612 222.625 622.722 196.606 602.22 182.454C590.632 174.463 576.297 172.032 563.023 166.881C541.196 158.433 521.345 145.436 501.204 134.195C477.474 121.006 449.793 107.407 420.667 111.378C359.812 119.682 263.711 172.754 288.525 242.602L288.549 242.506Z" stroke="url(#paint16_linear_52_7)" stroke-opacity="0.42" stroke-width="2" stroke-miterlimit="10"/>
<path d="M293.343 251.026C300.017 267.778 309.485 283.832 317.579 300.367C320.157 305.59 322.446 310.982 324.277 316.493C328.3 328.6 329.746 341.308 327.746 353.295C324.614 371.948 314.351 387.352 301.318 400.518C288.646 413.347 272.48 424.611 255.905 437.151C237.885 450.798 223.141 463.723 215.046 480.836C202.302 507.769 209.626 543.319 226.538 567.773C245.811 595.621 277.973 616.561 313.46 621.76C340.346 625.707 369.039 620.171 391.853 606.163C399.129 601.686 405.73 596.246 411.656 590.157C421.486 580.072 428.858 567.749 436.832 556.027C444.854 544.234 454.274 532.825 466.031 526.784C475.306 522.042 484.798 520.766 494.531 521.657C500.361 522.186 506.095 523.558 511.588 525.436C525.97 530.346 539.967 538.89 556.494 545.004C559.361 546.063 562.276 547.001 565.239 547.844C591.812 555.257 620.987 551.623 641.44 540.286C652.547 534.125 662.641 527.072 670.374 517.806C675.265 511.933 679.288 505.434 682.733 498.767C688.25 488.081 690.828 476.191 691.936 463.049C692.827 452.314 692.827 440.954 693.719 429.377C695.622 404.273 702.56 380.469 690.201 360.467C678.927 342.199 655.317 333.895 641.2 317.023C624.721 297.359 621.18 271.172 617.253 246.886C613.35 222.649 608.797 195.33 587.644 180.287C577.502 173.067 564.95 170.467 553.218 165.774C533.969 158.12 516.093 147.144 497.88 137.854C476.414 126.951 451.696 116.119 425.919 119.682C365.329 128.082 265.421 181.106 293.343 251.098V251.026Z" stroke="url(#paint17_linear_52_7)" stroke-opacity="0.42" stroke-width="2" stroke-miterlimit="10"/>
<path d="M298.162 259.57C305.148 275.239 314.905 290.066 323.193 305.446C325.819 310.308 328.228 315.338 330.155 320.513C334.42 331.849 336.275 343.836 335.046 355.341C333.143 373.248 324.759 388.893 313.291 402.492C302.161 415.681 287.489 427.379 271.71 439.221C254.605 452.074 239.21 463.579 230.08 479.536C215.601 504.857 220.828 539.299 236.873 563.417C254.821 590.398 286.164 610.279 320.495 614.563C346.513 617.812 374.002 611.771 395.732 597.883C402.671 593.431 408.958 588.087 414.572 582.166C423.365 572.852 430.111 561.66 437.29 550.925C444.517 540.142 452.829 529.648 463.14 523.462C471.283 518.624 479.763 516.53 488.701 516.362C494.073 516.266 499.422 516.915 504.601 518.095C518.165 521.127 531.632 527.674 546.882 532.656C549.532 533.523 552.206 534.317 554.904 535.015C579.188 541.393 605.448 539.829 625.203 531.549C636.526 526.808 647.006 521.055 655.558 512.992C660.979 507.89 665.629 502.089 669.724 496.024C676.349 486.203 680.373 475.059 682.589 462.616C684.396 452.459 685.07 441.676 685.938 430.676C687.817 406.969 691.406 383.983 678.71 365.474C666.038 346.989 641.417 338.541 626.625 321.163C609.327 300.873 606.075 273.506 602.533 248.065C598.992 222.673 594.679 194.151 572.997 178.121C564.252 171.671 553.555 168.879 543.365 164.643C526.693 157.783 510.769 148.829 494.507 141.488C475.33 132.872 453.552 124.808 431.098 127.986C370.773 136.506 266.867 189.554 298.09 259.57H298.162Z" stroke="url(#paint18_linear_52_7)" stroke-opacity="0.42" stroke-width="2" stroke-miterlimit="10"/>
<path d="M302.98 268.115C310.256 282.725 320.35 296.276 328.83 310.548C331.528 315.073 334.01 319.719 336.082 324.532C340.611 335.099 342.851 346.363 342.418 357.387C341.743 374.572 335.238 390.409 325.337 404.441C315.773 417.992 302.57 430.099 287.586 441.267C271.396 453.325 255.327 463.41 245.209 478.213C229.019 501.896 232.151 535.256 247.305 559.036C263.952 585.175 294.452 603.973 327.65 607.342C352.777 609.894 379.085 603.371 399.731 589.579C406.332 585.151 412.307 579.928 417.583 574.127C425.364 565.607 431.46 555.522 437.844 545.798C444.276 536.002 451.455 526.447 460.369 520.117C467.356 515.158 474.824 512.294 483.015 511.067C487.906 510.345 492.869 510.296 497.759 510.73C510.479 511.885 523.465 516.41 537.438 520.309C539.847 520.983 542.304 521.633 544.738 522.211C566.757 527.554 590.053 528.156 609.11 522.812C620.65 519.587 631.539 515.038 640.886 508.202C646.813 503.846 652.137 498.767 656.859 493.304C664.616 484.35 670.061 473.928 673.41 462.207C676.132 452.651 677.481 442.422 678.349 432.024C680.204 409.712 680.445 387.641 667.387 370.504C653.197 351.875 627.684 343.234 612.218 325.327C594.077 304.387 591.138 275.841 587.958 249.293C584.802 222.745 580.634 193.14 558.494 176.003C551.17 170.323 542.28 167.338 533.631 163.583C519.538 157.494 505.589 150.586 491.279 145.219C474.366 138.889 455.551 133.594 436.447 136.362C376.411 145.05 268.24 198.267 303.004 268.139L302.98 268.115Z" stroke="url(#paint19_linear_52_7)" stroke-opacity="0.42" stroke-width="2" stroke-miterlimit="10"/>
<path d="M307.799 276.659C315.339 290.258 325.771 302.509 334.468 315.627C337.238 319.791 339.792 324.075 341.984 328.552C346.754 338.348 349.38 348.89 349.742 359.456C350.296 375.895 345.646 391.973 337.335 406.439C329.288 420.327 317.628 432.866 303.438 443.361C288.164 454.649 271.421 463.266 260.29 476.937C242.366 498.96 243.426 531.236 257.688 554.703C273.059 580 302.715 597.691 334.733 600.17C358.969 602.023 384.12 595.019 403.682 581.324C409.97 576.919 415.608 571.816 420.571 566.136C427.34 558.386 432.785 549.456 438.398 540.719C444.06 531.91 450.107 523.293 457.575 516.819C463.429 511.764 469.862 508.082 477.282 505.819C481.715 504.448 486.268 503.725 490.869 503.437C502.771 502.739 515.226 505.218 527.922 508.034C530.114 508.515 532.307 508.997 534.499 509.478C554.254 513.786 574.515 516.723 592.969 514.171C604.677 512.559 616.024 509.117 626.167 503.485C632.623 499.898 638.574 495.542 643.946 490.656C652.812 482.593 659.702 472.869 664.159 461.845C667.797 452.868 669.821 443.192 670.664 433.42C672.495 412.504 669.411 391.444 655.992 375.606C640.212 357.001 613.88 347.975 597.739 329.587C578.779 308.021 576.129 278.296 573.334 250.592C570.54 222.889 566.372 192.37 543.919 173.957C537.968 169.071 530.933 165.87 523.826 162.596C512.311 157.301 500.337 152.415 487.954 148.998C473.331 144.978 457.455 142.427 441.699 144.785C381.928 153.667 269.276 207.244 307.823 276.731L307.799 276.659Z" stroke="url(#paint20_linear_52_7)" stroke-opacity="0.42" stroke-width="2" stroke-miterlimit="10"/>
<path d="M407.609 572.972C413.56 568.591 418.932 563.609 423.534 558.073C439.699 538.626 447.987 512.294 471.476 500.476C487.448 492.461 506.746 493.376 524.212 496.649C541.678 499.899 558.807 505.266 576.779 505.41C608.677 505.651 640.622 487.648 654.884 461.412C669.146 435.153 664.93 402.107 644.597 380.613C627.155 362.176 600.1 352.621 583.236 333.727C563.457 311.511 561.096 280.631 558.687 251.772C556.278 222.913 551.773 191.816 529.343 171.791C508.649 153.33 476.366 148.54 446.951 153.065C387.469 162.236 270.071 216.343 312.641 285.204C322.928 301.859 338.371 315.531 347.887 332.571C368.268 369.036 355.644 418.834 319.266 445.407C304.932 455.901 287.49 463.049 275.347 475.613C255.665 495.951 254.701 527.169 268.048 550.323C282.141 574.753 310.931 591.385 341.792 592.925C365.136 594.104 389.107 586.595 407.585 572.996L407.609 572.972Z" stroke="url(#paint21_linear_52_7)" stroke-opacity="0.42" stroke-width="2" stroke-miterlimit="10"/>
<path d="M798.053 175.613C784.995 169.427 770.974 164.975 756.88 162.159C719.37 154.649 666.489 170.366 635.243 147.693C603.803 124.9 601.153 79.0966 570.437 55.0277C546.369 36.1577 510.329 42.7285 484.527 59.1676C458.725 75.6066 439.138 100.061 415.047 118.907C378.789 147.284 333.763 162.351 290.302 175.806C215.811 198.84 143.657 180.932 88.4876 250.491C53.7478 294.297 42.6898 355.769 60.0115 408.913C69.5999 438.349 89.2826 466.558 118.53 476.788C140.573 484.49 164.761 481.072 187.865 477.606C210.968 474.116 235.18 470.77 257.2 478.593C300.613 494.021 308.852 551.642 299.842 590.345C290.663 629.77 264.765 662.239 268.836 704.6C277.003 789.395 393.076 786.771 451.883 775.29C498.644 766.168 545.767 752.208 583.518 723.181C621.27 694.154 648.204 647.484 642.88 600.189C639.772 572.558 626.305 547.334 616.644 521.267C606.983 495.176 601.226 465.259 613.295 440.179C628.593 408.408 666.971 395.29 702.072 391.415C737.174 387.54 773.985 389.465 806.027 374.639C861.582 348.933 883.963 270.108 850.187 219.082C837.466 199.875 818.94 185.529 798.004 175.637L798.053 175.613Z" stroke="url(#paint22_linear_52_7)" stroke-width="2" stroke-miterlimit="10"/>
<path d="M97.2568 250.443C80.0074 269.987 67.2871 294.297 61.3847 320.532C54.9523 349.367 56.3737 380.127 65.8657 408.335C75.4541 436.833 94.4863 464.151 122.746 474.356C144.066 482.059 167.459 479.17 189.84 476.162C195.044 475.464 200.32 474.766 205.596 474.188C223.062 472.335 240.745 471.901 257.2 477.654C299.36 492.384 308.37 546.635 300.998 583.341C296.878 603.607 288.085 622.019 281.653 641.202C276.208 657.377 272.402 674.081 274.473 692.782C277.894 724.072 296.18 743.351 320.584 754.663C359.853 772.883 414.951 770.404 449.883 764.989C495.127 757.961 541.816 746.215 579.495 718.776C580.892 717.766 582.29 716.707 583.639 715.648C619.294 687.944 644.638 643.994 640.181 598.985C637.531 572.076 624.763 547.406 615.632 521.917C606.502 496.428 601.081 467.28 612.669 442.802C614.211 439.553 615.969 436.52 617.969 433.656C635.026 409.033 667.742 397.962 698.073 393.99C731.946 389.586 767.625 390.717 798.703 376.083C836.502 358.128 859.462 316.103 859.1 274.633C858.907 256.027 854.017 237.615 843.802 221.777C831.443 202.594 813.375 187.984 792.825 177.875C780.225 171.666 766.637 167.165 752.953 164.156C716.623 156.237 665.55 170.173 634.809 148.03C603.996 125.838 600.31 82.033 570.172 58.999C546.393 40.8992 511.316 47.0608 486.068 62.8741C460.821 78.6874 441.572 102.395 418.299 121.265C395.677 139.726 370.02 153.181 343.11 164.156C328.149 170.27 312.779 175.589 297.481 180.571C250.165 195.951 203.066 194.17 160.93 207.962C138.092 215.447 117.084 227.891 97.2086 250.419L97.2568 250.443Z" stroke="url(#paint23_linear_52_7)" stroke-width="2" stroke-miterlimit="10"/>
<path d="M106.026 250.395C88.03 268.688 73.7679 292.395 67.3114 318.847C60.2767 347.826 61.8185 379.188 71.7683 407.782C81.3326 435.341 99.7144 461.793 127.01 471.974C147.584 479.652 170.182 477.317 191.864 474.766C196.899 474.164 202.007 473.586 207.138 473.105C224.074 471.565 241.252 471.3 257.272 476.763C298.204 490.796 308.057 541.701 302.251 576.385C299.047 595.544 291.314 613.042 285.797 631.43C281.123 646.931 277.919 663.009 280.207 681.012C283.917 711.099 301.504 729.969 324.752 741.353C362.191 759.742 414.373 758.49 447.956 754.711C491.706 749.777 537.938 740.246 575.52 714.372C576.917 713.409 578.315 712.422 579.688 711.411C615.464 685.2 641.338 642.261 637.58 597.782C635.363 571.595 623.294 547.478 614.717 522.567C606.14 497.655 601.033 469.326 612.115 445.426C613.585 442.273 615.271 439.288 617.174 436.472C633.508 412.283 664.875 401.043 694.146 396.566C726.79 391.608 761.362 392.089 791.476 377.527C828.842 359.476 852.162 318.294 852.186 277.064C852.186 258.603 847.44 240.31 837.515 224.449C825.517 205.314 807.906 190.415 787.766 180.09C775.624 173.856 762.47 169.307 749.195 166.082C714.046 157.73 664.779 169.909 634.544 148.295C604.382 126.705 599.684 84.825 570.076 62.8982C546.61 45.5204 512.497 51.3451 487.779 66.5086C463.085 81.696 444.101 104.61 421.696 123.576C399.725 142.181 375.369 156.406 349.326 168.007C334.847 174.482 319.838 180.09 304.805 185.265C258.501 201.078 211.595 199.802 169.676 211.885C146.958 218.456 126.36 229.672 106.075 250.275L106.026 250.395Z" stroke="url(#paint24_linear_52_7)" stroke-width="2" stroke-miterlimit="10"/>
<path d="M114.771 250.371C95.9559 267.412 80.2242 290.518 73.1895 317.187C65.5525 346.31 67.2148 378.274 77.5982 407.252C87.1384 433.873 104.894 459.458 131.202 469.615C151.053 477.293 172.832 475.488 193.815 473.394C198.706 472.913 203.621 472.407 208.583 472.022C225.014 470.794 241.661 470.698 257.224 475.897C296.903 489.207 307.599 536.767 303.359 569.477C301.022 587.529 294.373 604.112 289.82 621.707C285.917 636.533 283.363 651.985 285.82 669.315C289.892 698.174 306.708 716.659 328.8 728.115C364.407 746.648 413.674 746.648 445.932 744.506C488.237 741.666 533.938 734.349 571.473 710.064C572.87 709.173 574.267 708.234 575.64 707.296C611.537 682.577 637.917 640.649 634.857 596.723C633.074 571.258 621.727 547.695 613.681 523.385C605.658 499.075 600.864 471.541 611.464 448.218C612.862 445.137 614.5 442.225 616.307 439.457C631.942 415.725 661.936 404.292 690.123 399.31C721.562 393.798 754.977 393.557 784.128 379.14C821.012 360.92 844.718 320.628 845.127 279.663C845.296 261.371 840.718 243.175 831.082 227.313C819.446 208.202 802.293 193.063 782.538 182.473C770.853 176.215 758.133 171.57 745.244 168.2C711.299 159.318 663.791 169.837 634.086 148.752C604.55 127.74 598.865 87.8337 569.786 66.99C546.61 50.3825 513.46 55.798 489.297 70.3597C465.133 84.9214 446.486 107.089 424.9 126.103C403.579 144.877 380.524 159.872 355.372 172.075C341.375 178.911 326.728 184.856 311.96 190.199C266.692 206.566 219.979 205.675 178.252 216.025C155.654 221.657 135.418 231.67 114.771 250.371Z" stroke="url(#paint25_linear_52_7)" stroke-width="2" stroke-miterlimit="10"/>
<path d="M123.517 250.323C103.834 266.112 86.681 288.641 79.0681 315.502C70.8288 344.77 72.5875 377.359 83.4286 406.699C92.9206 432.38 110.074 457.099 135.37 467.232C154.474 474.886 175.482 473.635 195.719 472.022C200.441 471.637 205.211 471.252 210.005 470.963C225.905 470.024 242.047 470.121 257.176 475.055C295.626 487.667 307.118 531.857 304.492 562.569C303.046 579.514 297.505 595.183 293.843 611.983C290.76 626.135 288.784 640.962 291.41 657.618C295.795 685.249 311.864 703.348 332.847 714.878C366.623 733.555 413.024 733.435 443.885 734.277C484.744 735.408 529.891 728.332 567.377 705.731C568.775 704.889 570.172 704.022 571.545 703.132C607.538 679.905 634.472 638.988 632.111 595.592C630.762 570.849 620.114 547.839 612.621 524.107C605.129 500.375 600.672 473.659 610.766 450.938C612.115 447.929 613.657 445.089 615.392 442.393C630.304 419.094 658.973 407.469 686.076 402.005C716.286 395.94 748.569 394.977 776.78 380.704C813.182 362.292 837.298 322.939 838.093 282.214C838.43 264.091 834.021 245.991 824.65 230.105C813.375 211.019 796.68 195.638 777.31 184.807C766.108 178.55 753.797 173.808 741.317 170.246C708.577 160.907 662.852 169.692 633.653 149.137C604.743 128.727 598.046 90.7942 569.521 71.0336C546.635 55.1722 514.448 60.2026 490.839 74.1385C467.229 88.0744 448.872 109.496 428.153 128.534C407.507 147.501 385.728 163.218 361.468 176.046C347.953 183.243 333.69 189.477 319.139 195.013C274.859 211.837 228.363 211.404 186.829 220.068C164.352 224.786 144.404 233.571 123.469 250.347L123.517 250.323Z" stroke="url(#paint26_linear_52_7)" stroke-width="2" stroke-miterlimit="10"/>
<path d="M132.286 250.275C111.664 264.813 93.1615 286.739 84.9704 313.793C76.1289 343.205 78.008 376.396 89.3069 406.121C98.7266 430.888 115.277 454.716 139.61 464.825C157.992 472.479 178.18 471.757 197.718 470.602C202.272 470.337 206.873 470.048 211.499 469.856C226.893 469.23 242.504 469.471 257.2 474.14C294.397 486.054 306.708 526.875 305.672 555.589C305.094 571.427 300.661 586.181 297.915 602.187C295.602 615.665 294.229 629.866 297.071 645.824C301.769 672.227 317.115 689.966 336.943 701.543C368.888 720.365 412.421 722.917 441.885 723.976C481.347 725.396 525.94 722.339 563.33 701.303C564.727 700.508 566.125 699.714 567.498 698.872C603.611 677.137 631.051 637.255 629.413 594.364C628.497 570.368 618.572 547.887 611.633 524.757C604.695 501.627 600.551 475.704 610.164 453.561C611.441 450.625 612.91 447.857 614.548 445.209C628.762 422.368 656.058 410.55 682.077 404.557C711.083 397.938 742.209 396.253 769.48 382.124C805.401 363.543 829.902 325.081 831.106 284.621C831.612 266.642 827.372 248.662 818.29 232.777C807.352 213.738 791.139 198.093 772.179 187.022C761.434 180.74 749.557 175.926 737.487 172.195C705.927 162.399 662.008 169.451 633.316 149.426C605.032 129.617 597.299 93.6343 569.353 74.9568C546.755 59.8415 515.533 64.4868 492.453 77.821C469.397 91.1311 451.353 111.806 431.453 130.893C411.482 150.076 390.98 166.515 367.611 179.97C354.578 187.527 340.677 194.074 326.391 199.778C283.122 217.084 236.819 217.108 195.502 224.04C173.145 227.819 153.414 235.352 132.286 250.251V250.275Z" stroke="url(#paint27_linear_52_7)" stroke-width="2" stroke-miterlimit="10"/>
<path d="M141.031 250.227C119.421 263.513 99.6421 284.862 90.8487 312.108C81.4049 341.665 83.3563 375.457 95.137 405.568C104.46 429.42 120.457 452.358 143.802 462.443C161.437 470.072 180.83 469.904 199.67 469.206C204.054 469.037 208.487 468.845 212.968 468.749C227.833 468.412 242.938 468.845 257.2 473.249C293.144 484.466 306.274 521.893 306.828 548.633C307.142 563.339 303.793 577.203 301.962 592.415C300.42 605.219 299.673 618.794 302.709 634.078C307.696 659.278 322.367 676.56 341.014 688.257C371.177 707.175 411.819 711.099 439.861 713.722C477.926 717.308 521.941 716.37 559.283 696.946C560.68 696.224 562.077 695.478 563.45 694.684C599.636 674.369 627.606 635.594 626.69 593.209C626.184 569.934 616.981 548.008 610.597 525.455C604.189 502.926 600.383 477.799 609.513 456.233C610.718 453.369 612.115 450.649 613.681 448.073C627.172 425.665 653.143 413.679 678.077 407.18C705.855 400.008 735.849 397.577 762.157 383.641C797.595 364.867 822.506 327.344 824.096 287.1C824.77 269.289 820.699 251.406 811.905 235.521C801.329 216.506 785.573 200.621 766.999 189.308C756.712 183.026 745.268 178.14 733.608 174.217C703.229 163.988 661.093 169.307 632.93 149.787C605.297 130.58 596.528 96.5708 569.136 78.9523C546.827 64.6072 516.568 68.8674 494.043 81.5518C471.542 94.2361 453.81 114.165 434.754 133.3C415.433 152.675 396.208 169.837 373.754 183.917C361.203 191.836 347.663 198.695 333.618 204.592C291.362 222.355 245.251 222.86 204.127 228.083C181.89 230.948 162.304 237.157 141.031 250.251V250.227Z" stroke="url(#paint28_linear_52_7)" stroke-width="2" stroke-miterlimit="10"/>
<path d="M149.8 250.203C127.13 262.189 106.122 282.985 96.7508 310.447C86.7047 340.172 88.7284 374.567 101.015 405.038C110.242 427.976 125.661 449.999 148.041 460.084C164.954 467.714 183.528 468.075 201.669 467.834C205.885 467.786 210.173 467.69 214.462 467.69C228.82 467.641 243.395 468.267 257.224 472.383C291.94 482.901 305.864 516.935 308.033 541.702C309.213 555.301 306.949 568.225 306.057 582.667C305.31 594.774 305.166 607.747 308.394 622.332C313.694 646.305 327.643 663.201 345.133 674.971C373.489 694.034 411.264 699.281 437.91 703.469C474.625 709.245 518.038 710.425 555.283 692.59C556.68 691.916 558.078 691.218 559.451 690.52C595.733 671.674 624.209 633.934 624.04 592.102C623.944 569.573 615.488 548.152 609.633 526.201C603.779 504.25 600.262 479.941 608.911 458.953C610.043 456.161 611.368 453.513 612.862 450.986C625.654 429.011 650.251 416.856 674.102 409.852C700.675 402.126 729.488 398.949 754.881 385.181C789.837 366.191 815.133 329.63 817.133 289.628C817.976 271.985 814.073 254.198 805.545 238.289C795.33 219.298 780.032 203.196 761.867 191.619C752.038 185.337 741.028 180.355 729.777 176.239C700.603 165.552 660.249 169.139 632.592 150.148C605.586 131.519 595.805 99.5072 568.967 82.9477C546.923 69.3488 517.652 73.2239 495.681 85.3065C473.734 97.3891 456.315 116.548 438.078 135.707C419.431 155.275 401.483 173.182 379.897 187.864C367.852 196.144 354.65 203.292 340.869 209.382C299.625 227.602 253.706 228.589 212.799 232.079C190.683 234.004 171.169 238.89 149.824 250.179L149.8 250.203Z" stroke="url(#paint29_linear_52_7)" stroke-width="2" stroke-miterlimit="10"/>
<path d="M158.545 250.155C134.791 260.793 112.579 281.083 102.629 308.762C91.9807 338.632 94.0766 373.652 106.845 404.485C115.976 426.508 130.84 447.64 152.233 457.701C168.399 465.307 186.202 466.221 203.62 466.438C207.692 466.486 211.787 466.51 215.907 466.582C229.735 466.847 243.805 467.593 257.2 471.492C290.687 481.24 305.383 511.928 309.165 534.746C311.237 547.213 310.056 559.248 310.08 572.871C310.104 584.304 310.562 596.651 314.007 610.563C319.621 633.308 332.847 649.819 349.205 661.661C375.73 680.868 410.686 687.487 435.886 693.191C471.252 701.206 514.063 704.432 551.236 688.209C552.633 687.607 554.03 686.958 555.403 686.308C591.806 668.954 620.739 632.249 621.342 590.922C621.655 569.116 613.922 548.248 608.621 526.899C603.321 505.55 600.117 482.035 608.284 461.624C609.368 458.928 610.597 456.329 611.994 453.874C624.064 432.356 647.312 419.985 670.103 412.499C695.447 404.22 723.128 400.297 747.557 386.698C782.007 367.515 807.737 331.869 810.122 292.131C811.134 274.633 807.4 256.99 799.161 241.057C789.307 222.114 774.443 205.771 756.687 193.93C747.316 187.672 736.74 182.593 725.898 178.285C697.904 167.165 659.358 168.994 632.207 150.533C605.827 132.506 595.01 102.468 568.75 86.9672C546.996 74.1385 518.712 77.6044 497.271 89.0612C475.854 100.518 458.773 118.931 441.355 138.138C423.382 157.922 406.711 176.528 386.017 191.86C374.453 200.5 361.612 207.962 348.097 214.22C307.84 232.873 262.138 234.365 221.424 236.146C199.428 237.157 179.938 240.623 158.569 250.179L158.545 250.155Z" stroke="url(#paint30_linear_52_7)" stroke-width="2" stroke-miterlimit="10"/>
<path d="M167.291 250.106C142.38 259.349 119.036 279.206 108.508 307.077C97.2571 337.091 99.4013 372.737 112.7 403.931C121.71 425.039 136.02 445.281 156.45 455.318C171.892 462.924 188.877 464.368 205.572 465.042C209.475 465.21 213.402 465.331 217.377 465.499C230.7 466.077 244.239 466.991 257.176 470.626C289.41 479.676 304.925 506.946 310.322 527.814C313.261 539.15 313.189 550.27 314.128 563.123C314.923 573.882 316.007 585.579 319.621 598.841C325.523 620.359 338.051 636.509 353.253 648.399C377.971 667.75 410.084 675.765 433.839 682.962C467.88 693.263 510.04 698.51 547.141 683.852C548.538 683.299 549.935 682.721 551.332 682.119C587.831 666.258 617.247 630.588 618.596 589.767C619.294 568.707 612.332 548.368 607.562 527.597C602.792 506.826 599.925 484.128 607.586 464.296C608.598 461.672 609.778 459.145 611.079 456.738C622.45 435.654 644.349 423.114 666.032 415.123C690.171 406.29 716.672 401.596 740.185 388.19C774.154 368.79 800.269 334.107 803.064 294.61C804.244 277.28 800.679 259.734 792.729 243.8C783.213 224.882 768.83 208.347 751.484 196.216C742.546 189.958 732.428 184.783 721.996 180.282C695.182 168.729 658.419 168.801 631.798 150.846C606.044 133.42 594.215 105.356 568.51 90.9144C547.02 78.8558 519.725 81.9126 498.837 92.7677C477.974 103.599 461.231 121.289 444.632 140.496C427.358 160.498 411.915 179.777 392.136 195.759C381.03 204.736 368.599 212.511 355.3 218.985C316.056 238.096 270.547 240.07 230.049 240.118C208.174 240.19 188.66 242.188 167.339 250.106H167.291Z" stroke="url(#paint31_linear_52_7)" stroke-width="2" stroke-miterlimit="10"/>
<path d="M176.06 250.058C149.969 257.809 125.516 277.304 114.41 305.369C102.581 335.527 104.725 371.799 118.554 403.353C127.419 423.571 141.224 442.899 160.665 452.911C175.361 460.493 191.551 462.491 207.547 463.646C211.282 463.911 215.064 464.151 218.846 464.392C231.639 465.283 244.696 466.366 257.176 469.711C288.157 478.063 304.443 501.916 311.478 520.834C315.26 531.015 316.296 541.268 318.199 553.327C319.765 563.388 321.452 574.483 325.282 587.047C331.474 607.338 343.303 623.103 357.348 635.089C380.235 654.585 409.53 664.068 431.863 672.685C464.555 685.321 506.113 692.542 543.117 679.472C544.514 678.967 545.912 678.461 547.309 677.908C583.928 663.538 613.753 628.903 615.921 588.588C617.005 568.274 610.79 548.465 606.574 528.295C602.358 508.125 599.804 486.199 606.983 466.968C607.923 464.416 609.031 461.961 610.26 459.602C620.908 438.975 641.458 426.243 662.08 417.723C684.991 408.336 710.36 402.896 732.909 389.658C766.372 370.042 792.921 336.321 796.101 297.065C797.45 279.88 794.053 262.454 786.368 246.496C777.213 227.602 763.265 210.874 746.328 198.455C737.848 192.221 728.163 186.95 718.117 182.256C692.484 170.27 657.527 168.585 631.412 151.159C606.309 134.335 593.42 108.244 568.268 94.886C547.068 83.5976 520.736 86.2693 500.403 96.4745C480.094 106.68 463.663 123.648 447.884 142.879C431.285 163.097 417.119 183.099 398.231 199.682C387.607 209.021 375.537 217.084 362.504 223.751C324.246 243.295 278.978 245.774 238.649 244.113C216.895 243.271 197.333 243.704 176.06 250.034V250.058Z" stroke="url(#paint32_linear_52_7)" stroke-width="2" stroke-miterlimit="10"/>
<path d="M184.805 250.034C157.534 256.196 131.997 275.427 120.288 303.708C107.857 334.011 110.025 370.932 124.408 402.824C133.129 422.151 146.403 440.564 164.882 450.552C178.855 458.134 194.249 460.661 209.523 462.274C213.089 462.659 216.702 462.972 220.34 463.333C232.603 464.536 245.154 465.764 257.2 468.869C286.953 476.499 303.986 496.957 312.658 513.926C317.284 522.976 319.428 532.315 322.271 543.603C324.608 552.99 326.897 563.46 330.944 575.35C337.424 594.437 348.555 609.792 361.444 621.851C382.5 641.515 408.976 652.467 429.863 662.479C461.206 677.498 502.162 686.645 539.094 675.164C540.491 674.73 541.888 674.273 543.286 673.792C580.025 660.915 610.284 627.315 613.223 587.529C614.669 567.937 609.224 548.681 605.562 529.089C601.876 509.497 599.66 488.389 606.333 469.735C607.224 467.256 608.236 464.873 609.369 462.587C619.318 442.393 638.495 429.492 658.033 420.466C679.716 410.526 703.928 404.316 725.562 391.271C758.519 371.414 785.477 338.656 789.067 299.664C790.584 282.648 787.356 265.318 779.96 249.36C771.167 230.514 757.651 213.57 741.125 200.861C733.078 194.652 723.851 189.284 714.215 184.374C689.762 171.955 656.612 168.537 631.003 151.616C606.526 135.37 592.601 111.301 568.028 98.9776C547.092 88.4595 521.748 90.7219 501.945 100.325C482.19 109.905 466.097 126.151 451.136 145.407C435.236 165.841 422.347 186.588 404.326 203.774C394.208 213.473 382.475 221.849 369.683 228.685C332.438 248.662 287.362 251.623 247.25 248.277C225.616 246.496 206.006 245.341 184.781 250.13L184.805 250.034Z" stroke="url(#paint33_linear_52_7)" stroke-width="2" stroke-miterlimit="10"/>
<path d="M193.574 249.986C165.098 254.487 138.477 273.55 126.191 302.023C113.157 332.47 115.301 370.042 130.262 402.27C138.815 420.707 151.607 438.205 169.098 448.146C182.348 455.703 196.923 458.784 211.498 460.854C214.895 461.335 218.34 461.769 221.81 462.226C233.566 463.742 245.588 465.138 257.2 467.954C285.7 474.886 303.455 491.927 313.839 506.946C319.308 514.865 322.584 523.289 326.342 533.807C329.45 542.496 332.341 552.364 336.605 563.556C343.375 581.415 353.782 596.386 365.563 608.517C384.812 628.326 408.398 640.793 427.888 652.178C457.833 669.676 498.235 680.652 535.07 670.735C536.468 670.35 537.865 669.965 539.262 669.532C576.122 658.147 606.767 625.582 610.549 586.301C612.356 567.455 607.706 548.73 604.574 529.715C601.442 510.725 599.539 490.411 605.731 472.335C606.55 469.928 607.489 467.617 608.549 465.379C617.8 445.642 635.628 432.525 654.082 423.018C674.56 412.524 697.591 405.52 718.286 392.691C750.737 372.593 778.129 340.822 782.104 302.071C783.79 285.223 780.731 267.99 773.624 252.008C765.192 233.186 752.086 216.073 736.017 203.052C728.428 196.89 719.635 191.378 710.408 186.3C687.16 173.471 655.769 168.272 630.689 151.881C606.839 136.236 591.878 114.165 567.883 102.877C547.213 93.153 522.856 94.9822 503.607 103.96C484.382 112.914 468.65 128.438 454.485 147.693C439.283 168.368 427.647 189.79 410.494 207.601C400.881 217.662 389.486 226.326 376.958 233.379C340.701 253.789 295.843 257.255 255.923 252.176C234.409 249.481 214.751 246.641 193.574 249.986Z" stroke="url(#paint34_linear_52_7)" stroke-width="2" stroke-miterlimit="10"/>
<path d="M202.32 249.938C172.663 252.658 144.934 271.648 132.069 300.338C118.433 330.93 120.553 369.151 136.117 401.717C144.5 419.263 156.811 435.822 173.314 445.763C185.817 453.32 199.597 456.931 213.474 459.458C216.726 460.06 220.003 460.589 223.303 461.119C234.53 462.924 246.046 464.512 257.224 467.064C284.472 473.298 302.926 486.921 315.02 499.99C321.307 506.777 325.716 514.311 330.414 524.035C334.293 532.05 337.786 541.292 342.243 551.81C349.302 568.442 359.01 583.052 369.635 595.231C387.053 615.208 407.747 629.216 425.864 641.925C454.388 661.926 494.26 674.73 531.023 666.379C532.421 666.066 533.818 665.729 535.215 665.344C572.171 655.451 603.201 623.921 607.851 585.146C610.019 567.022 606.14 548.85 603.563 530.437C600.961 512.024 599.371 492.529 605.08 475.031C605.827 472.72 606.694 470.457 607.682 468.267C616.211 448.964 632.689 435.678 650.059 425.665C669.308 414.618 691.183 406.819 710.962 394.207C742.883 373.845 770.709 343.085 775.094 304.55C776.949 287.846 774.058 270.733 767.216 254.752C759.121 235.954 746.449 218.696 730.814 205.314C723.658 199.177 715.323 193.568 706.505 188.297C684.413 175.035 654.853 168.079 630.28 152.218C607.08 137.175 591.035 117.101 567.642 106.848C547.237 97.9185 523.892 99.3145 505.173 107.666C486.502 116.018 471.132 130.821 457.737 150.076C443.234 170.968 432.851 193.111 416.589 211.524C407.458 221.946 396.424 230.899 384.138 238.144C348.868 258.964 304.227 262.959 264.524 256.172C243.131 252.537 223.448 247.964 202.32 249.914V249.938Z" stroke="url(#paint35_linear_52_7)" stroke-width="2" stroke-miterlimit="10"/>
<path d="M211.065 249.89C180.276 250.732 151.39 269.747 137.947 298.629C123.709 329.365 125.781 368.285 141.946 401.139C150.162 417.819 161.966 433.439 177.481 443.356C189.262 450.889 202.223 455.053 215.377 458.038C218.461 458.736 221.569 459.386 224.7 460.011C235.421 462.154 246.407 463.862 257.152 466.173C283.17 471.733 302.299 481.962 316.127 493.034C323.21 498.714 328.751 505.333 334.413 514.239C339.062 521.556 343.158 530.196 347.832 540.041C355.18 555.469 364.19 569.669 373.658 581.921C389.245 602.066 407.024 617.639 423.816 631.647C450.823 654.2 490.26 668.761 526.927 661.998C528.325 661.733 529.722 661.444 531.119 661.131C568.22 652.804 599.563 622.236 605.08 583.99C607.586 566.613 604.526 548.97 602.478 531.135C600.43 513.324 599.154 494.623 604.381 477.702C605.08 475.464 605.875 473.273 606.742 471.155C614.572 452.285 629.702 438.831 645.987 428.289C664.032 416.687 684.702 408.119 703.566 395.699C734.957 375.072 763.24 345.299 768.01 307.029C770.034 290.494 767.312 273.477 760.759 257.495C753.026 238.722 740.763 221.32 725.585 207.601C718.84 201.511 710.962 195.783 702.578 190.295C681.667 176.624 653.913 167.887 629.87 152.555C607.297 138.089 590.216 120.062 567.401 110.819C547.261 102.684 524.904 103.671 506.739 111.397C488.622 119.123 473.589 133.203 461.013 152.459C447.209 173.591 438.078 196.433 422.708 215.471C414.059 226.254 403.387 235.496 391.365 242.934C357.083 264.163 312.658 268.687 273.148 260.167C251.876 255.618 232.193 249.264 211.065 249.842V249.89Z" stroke="url(#paint36_linear_52_7)" stroke-width="2" stroke-miterlimit="10"/>
<path d="M219.834 249.866C187.937 248.759 157.895 267.893 143.85 296.969C129.009 327.849 130.985 367.442 147.825 400.609C155.847 416.399 167.194 431.105 181.721 440.997C192.755 448.531 204.946 453.2 217.377 456.666C220.292 457.484 223.231 458.231 226.218 458.929C236.409 461.384 246.889 463.261 257.176 465.283C281.942 470.145 301.745 477.052 317.308 486.078C325.21 490.651 331.883 496.332 338.484 504.467C343.881 511.11 348.603 519.149 353.493 528.271C361.106 542.472 369.418 556.311 377.753 568.611C391.51 588.901 406.326 606.062 421.817 621.346C447.257 646.474 486.309 662.792 522.904 657.593C524.302 657.401 525.699 657.16 527.096 656.895C564.293 650.06 595.974 620.503 602.406 582.787C605.249 566.132 602.984 549.019 601.491 531.809C599.997 514.576 599.033 496.693 603.755 480.35C604.382 478.184 605.104 476.066 605.899 473.996C613.006 455.583 626.787 441.936 641.988 430.888C658.804 418.733 678.294 409.347 696.266 397.168C727.127 376.252 755.844 347.513 761.024 309.485C763.216 293.118 760.663 276.197 754.375 260.191C747.003 241.466 735.126 223.895 720.406 209.839C714.094 203.798 706.674 197.949 698.699 192.269C678.969 178.188 652.998 167.67 629.485 152.868C607.538 139.004 589.421 122.998 567.184 114.767C547.309 107.426 525.94 107.979 508.329 115.08C490.766 122.18 476.095 135.562 464.29 154.818C451.208 176.191 443.306 199.706 428.827 219.37C420.66 230.514 410.349 240.046 398.592 247.7C365.298 269.362 321.09 274.392 281.797 264.163C260.645 258.675 240.986 250.516 219.834 249.794V249.866Z" stroke="url(#paint37_linear_52_7)" stroke-width="2" stroke-miterlimit="10"/>
<path d="M228.579 249.818C195.646 246.689 164.352 265.992 149.728 295.284C134.286 326.309 136.141 366.624 153.655 400.056C161.485 414.979 172.35 428.746 185.914 438.614C196.225 446.124 207.596 451.347 219.328 455.294C222.075 456.209 224.869 457.075 227.664 457.869C237.349 460.637 247.299 462.707 257.152 464.44C280.665 468.652 301.167 472.214 318.441 479.194C327.138 482.708 334.967 487.426 342.508 494.767C348.675 500.736 353.975 508.149 359.107 516.598C366.985 529.595 374.622 543.025 381.825 555.397C393.726 575.855 405.555 594.581 419.793 611.164C443.596 638.892 482.335 656.992 518.833 653.285C520.23 653.141 521.652 652.972 523.049 652.78C560.367 647.436 592.336 618.89 599.684 581.704C602.84 565.77 601.419 549.211 600.455 532.579C599.491 515.948 598.865 498.859 603.105 483.094C603.659 481 604.309 478.954 605.032 476.932C611.441 458.952 623.848 445.113 637.989 433.584C653.601 420.875 671.886 410.694 688.967 398.732C719.274 377.503 748.473 349.824 754.038 312.036C756.399 295.813 754.014 279.013 748.015 263.007C741.004 244.306 729.489 226.639 715.275 212.198C709.372 206.205 702.434 200.236 694.869 194.339C676.295 179.873 652.155 167.55 629.148 153.277C607.827 140.015 588.65 126.031 567.016 118.834C547.406 112.312 527.024 112.408 509.967 118.907C492.935 125.381 478.649 138.041 467.639 157.321C455.28 178.935 448.607 203.148 435.019 223.414C427.334 234.919 417.384 244.739 405.868 252.585C373.538 274.657 329.571 280.217 290.494 268.254C269.463 261.852 249.876 251.839 228.652 249.818H228.579Z" stroke="url(#paint38_linear_52_7)" stroke-width="2" stroke-miterlimit="10"/>
<path d="M237.349 249.77C203.428 244.547 170.832 264.115 155.631 293.599C139.586 324.768 141.296 365.83 159.533 399.502C167.146 413.583 177.578 426.387 190.154 436.232C199.718 443.717 210.294 449.493 221.328 453.898C223.906 454.933 226.532 455.896 229.182 456.762C238.336 459.867 247.78 462.082 257.2 463.526C279.461 467.04 300.661 467.329 319.669 472.215C329.209 474.67 338.147 478.448 346.652 484.971C353.566 490.29 359.492 497.054 364.841 504.828C372.984 516.622 379.922 529.667 385.993 542.087C396.039 562.714 404.832 583.004 417.89 600.887C439.958 631.19 478.48 651.023 514.882 648.905C516.279 648.832 517.701 648.712 519.098 648.568C556.536 644.717 588.746 617.158 597.082 580.525C600.551 565.313 599.949 549.307 599.539 533.253C599.13 517.199 598.817 500.929 602.551 485.741C603.057 483.72 603.611 481.746 604.261 479.772C609.947 462.25 621.029 448.218 634.062 436.183C648.445 422.921 665.55 411.922 681.715 400.224C711.444 378.683 741.125 352.038 747.099 314.515C749.629 298.461 747.413 281.757 741.703 265.727C735.03 247.05 723.875 229.263 710.167 214.46C704.674 208.539 698.194 202.45 691.039 196.336C673.62 181.462 651.312 167.382 628.81 153.614C608.14 140.954 587.903 129.016 566.847 122.806C547.502 117.102 528.108 116.741 511.582 122.613C495.103 128.462 481.178 140.424 470.939 159.68C459.327 181.534 453.834 206.421 441.138 227.337C433.935 239.203 424.322 249.288 413.096 257.351C381.729 279.783 338.003 285.921 299.119 272.25C278.232 264.909 258.742 253.043 237.421 249.745L237.349 249.77Z" stroke="url(#paint39_linear_52_7)" stroke-width="2" stroke-miterlimit="10"/>
<path d="M230.627 455.679C239.252 459.073 248.19 461.456 257.176 462.659C288.736 466.871 322.367 458.086 350.675 475.223C369.9 486.848 381.825 508.029 390.016 528.825C398.231 549.62 403.941 571.427 415.818 590.658C436.898 624.787 477.444 646.762 515.002 644.404C552.537 642.045 584.988 615.449 594.335 579.418C602.358 548.489 594.432 513.3 603.346 482.733C613.801 446.822 645.192 423.667 674.343 401.789C703.494 379.91 733.68 354.349 740.04 317.066C745.895 282.696 729.416 245.1 704.939 216.819C655.383 159.607 519.17 70.7929 474.167 162.159C463.278 184.254 459.014 209.839 447.209 231.357C421.937 277.425 360.359 297.282 307.695 276.342C286.929 268.086 267.631 254.319 246.118 249.794C211.257 242.453 177.313 262.285 161.533 291.986C144.886 323.324 146.403 365.108 165.387 399.021C179.77 424.678 203.789 445.161 230.651 455.751L230.627 455.679Z" stroke="url(#paint40_linear_52_7)" stroke-width="2" stroke-miterlimit="10"/>
<defs>
<filter id="filter0_d_52_7" x="599.006" y="195.809" width="79.3546" height="79.3087" filterUnits="userSpaceOnUse" color-interpolation-filters="sRGB">
<feFlood flood-opacity="0" result="BackgroundImageFix"/>
<feColorMatrix in="SourceAlpha" type="matrix" values="0 0 0 0 0 0 0 0 0 0 0 0 0 0 0 0 0 0 127 0" result="hardAlpha"/>
<feOffset/>
<feGaussianBlur stdDeviation="7.54"/>
<feColorMatrix type="matrix" values="0 0 0 0 0.180392 0 0 0 0 0.0156863 0 0 0 0 0.447059 0 0 0 0.45 0"/>
<feBlend mode="normal" in2="BackgroundImageFix" result="effect1_dropShadow_52_7"/>
<feBlend mode="normal" in="SourceGraphic" in2="effect1_dropShadow_52_7" result="shape"/>
</filter>
<filter id="filter1_d_52_7" x="186.46" y="312.434" width="70.4002" height="70.3626" filterUnits="userSpaceOnUse" color-interpolation-filters="sRGB">
<feFlood flood-opacity="0" result="BackgroundImageFix"/>
<feColorMatrix in="SourceAlpha" type="matrix" values="0 0 0 0 0 0 0 0 0 0 0 0 0 0 0 0 0 0 127 0" result="hardAlpha"/>
<feOffset/>
<feGaussianBlur stdDeviation="7.54"/>
<feColorMatrix type="matrix" values="0 0 0 0 0.180392 0 0 0 0 0.0156863 0 0 0 0 0.447059 0 0 0 0.45 0"/>
<feBlend mode="normal" in2="BackgroundImageFix" result="effect1_dropShadow_52_7"/>
<feBlend mode="normal" in="SourceGraphic" in2="effect1_dropShadow_52_7" result="shape"/>
</filter>
<filter id="filter2_d_52_7" x="94.4307" y="154.311" width="162.429" height="162.306" filterUnits="userSpaceOnUse" color-interpolation-filters="sRGB">
<feFlood flood-opacity="0" result="BackgroundImageFix"/>
<feColorMatrix in="SourceAlpha" type="matrix" values="0 0 0 0 0 0 0 0 0 0 0 0 0 0 0 0 0 0 127 0" result="hardAlpha"/>
<feOffset/>
<feGaussianBlur stdDeviation="7.54"/>
<feColorMatrix type="matrix" values="0 0 0 0 0.180392 0 0 0 0 0.0156863 0 0 0 0 0.447059 0 0 0 0.45 0"/>
<feBlend mode="normal" in2="BackgroundImageFix" result="effect1_dropShadow_52_7"/>
<feBlend mode="normal" in="SourceGraphic" in2="effect1_dropShadow_52_7" result="shape"/>
</filter>
<linearGradient id="paint0_linear_52_7" x1="638.684" y1="210.889" x2="638.684" y2="260.038" gradientUnits="userSpaceOnUse">
<stop stop-color="#EEFFBA"/>
<stop offset="0.115" stop-color="#D6FA8C"/>
<stop offset="0.31" stop-color="#BEED53"/>
<stop offset="0.515" stop-color="#A5D721"/>
<stop offset="0.695" stop-color="#82B300"/>
<stop offset="1" stop-color="#5D8700"/>
</linearGradient>
<linearGradient id="paint1_linear_52_7" x1="221.66" y1="327.514" x2="221.66" y2="367.717" gradientUnits="userSpaceOnUse">
<stop stop-color="#EEFFBA"/>
<stop offset="0.115" stop-color="#D6FA8C"/>
<stop offset="0.31" stop-color="#BEED53"/>
<stop offset="0.515" stop-color="#A5D721"/>
<stop offset="0.695" stop-color="#82B300"/>
<stop offset="1" stop-color="#5D8700"/>
</linearGradient>
<linearGradient id="paint2_linear_52_7" x1="175.645" y1="169.391" x2="175.645" y2="301.537" gradientUnits="userSpaceOnUse">
<stop stop-color="#EEFFBA"/>
<stop offset="0.115" stop-color="#D6FA8C"/>
<stop offset="0.31" stop-color="#BEED53"/>
<stop offset="0.515" stop-color="#A5D721"/>
<stop offset="0.695" stop-color="#82B300"/>
<stop offset="1" stop-color="#5D8700"/>
</linearGradient>
<linearGradient id="paint3_linear_52_7" x1="875.272" y1="397.297" x2="2.75646" y2="344.371" gradientUnits="userSpaceOnUse">
<stop stop-color="#A5D721"/>
<stop offset="0.5" stop-color="#BEED53"/>
<stop offset="0.75" stop-color="#D6FA8C"/>
<stop offset="0.875" stop-color="#D6FA8C"/>
<stop offset="0.9375" stop-color="#EEFFBA"/>
<stop offset="1" stop-color="#82B300"/>
</linearGradient>
<linearGradient id="paint4_linear_52_7" x1="860.036" y1="396.409" x2="18.3376" y2="345.978" gradientUnits="userSpaceOnUse">
<stop stop-color="#A5D721"/>
<stop offset="0.5" stop-color="#BEED53"/>
<stop offset="0.75" stop-color="#D6FA8C"/>
<stop offset="0.875" stop-color="#D6FA8C"/>
<stop offset="0.9375" stop-color="#EEFFBA"/>
<stop offset="1" stop-color="#82B300"/>
</linearGradient>
<linearGradient id="paint5_linear_52_7" x1="844.928" y1="395.892" x2="33.8776" y2="347.974" gradientUnits="userSpaceOnUse">
<stop stop-color="#A5D721"/>
<stop offset="0.5" stop-color="#BEED53"/>
<stop offset="0.75" stop-color="#D6FA8C"/>
<stop offset="0.875" stop-color="#D6FA8C"/>
<stop offset="0.9375" stop-color="#EEFFBA"/>
<stop offset="1" stop-color="#82B300"/>
</linearGradient>
<linearGradient id="paint6_linear_52_7" x1="829.951" y1="395.435" x2="49.3511" y2="349.985" gradientUnits="userSpaceOnUse">
<stop stop-color="#A5D721"/>
<stop offset="0.5" stop-color="#BEED53"/>
<stop offset="0.75" stop-color="#D6FA8C"/>
<stop offset="0.875" stop-color="#D6FA8C"/>
<stop offset="0.9375" stop-color="#EEFFBA"/>
<stop offset="1" stop-color="#82B300"/>
</linearGradient>
<linearGradient id="paint7_linear_52_7" x1="815.136" y1="394.954" x2="64.722" y2="351.924" gradientUnits="userSpaceOnUse">
<stop stop-color="#A5D721"/>
<stop offset="0.5" stop-color="#BEED53"/>
<stop offset="0.75" stop-color="#D6FA8C"/>
<stop offset="0.875" stop-color="#D6FA8C"/>
<stop offset="0.9375" stop-color="#EEFFBA"/>
<stop offset="1" stop-color="#82B300"/>
</linearGradient>
<linearGradient id="paint8_linear_52_7" x1="800.516" y1="394.549" x2="79.9488" y2="353.878" gradientUnits="userSpaceOnUse">
<stop stop-color="#A5D721"/>
<stop offset="0.5" stop-color="#BEED53"/>
<stop offset="0.75" stop-color="#D6FA8C"/>
<stop offset="0.875" stop-color="#D6FA8C"/>
<stop offset="0.9375" stop-color="#EEFFBA"/>
<stop offset="1" stop-color="#82B300"/>
</linearGradient>
<linearGradient id="paint9_linear_52_7" x1="786.117" y1="394.079" x2="95.0642" y2="355.711" gradientUnits="userSpaceOnUse">
<stop stop-color="#A5D721"/>
<stop offset="0.5" stop-color="#BEED53"/>
<stop offset="0.75" stop-color="#D6FA8C"/>
<stop offset="0.875" stop-color="#D6FA8C"/>
<stop offset="0.9375" stop-color="#EEFFBA"/>
<stop offset="1" stop-color="#82B300"/>
</linearGradient>
<linearGradient id="paint10_linear_52_7" x1="771.992" y1="393.656" x2="110.021" y2="357.521" gradientUnits="userSpaceOnUse">
<stop stop-color="#A5D721"/>
<stop offset="0.5" stop-color="#BEED53"/>
<stop offset="0.75" stop-color="#D6FA8C"/>
<stop offset="0.875" stop-color="#D6FA8C"/>
<stop offset="0.9375" stop-color="#EEFFBA"/>
<stop offset="1" stop-color="#82B300"/>
</linearGradient>
<linearGradient id="paint11_linear_52_7" x1="758.327" y1="393.265" x2="124.782" y2="359.273" gradientUnits="userSpaceOnUse">
<stop stop-color="#A5D721"/>
<stop offset="0.5" stop-color="#BEED53"/>
<stop offset="0.75" stop-color="#D6FA8C"/>
<stop offset="0.875" stop-color="#D6FA8C"/>
<stop offset="0.9375" stop-color="#EEFFBA"/>
<stop offset="1" stop-color="#82B300"/>
</linearGradient>
<linearGradient id="paint12_linear_52_7" x1="747.525" y1="392.874" x2="139.414" y2="360.69" gradientUnits="userSpaceOnUse">
<stop stop-color="#A5D721"/>
<stop offset="0.5" stop-color="#BEED53"/>
<stop offset="0.75" stop-color="#D6FA8C"/>
<stop offset="0.875" stop-color="#D6FA8C"/>
<stop offset="0.9375" stop-color="#EEFFBA"/>
<stop offset="1" stop-color="#82B300"/>
</linearGradient>
<linearGradient id="paint13_linear_52_7" x1="736.744" y1="392.446" x2="153.782" y2="362.028" gradientUnits="userSpaceOnUse">
<stop stop-color="#A5D721"/>
<stop offset="0.5" stop-color="#BEED53"/>
<stop offset="0.75" stop-color="#D6FA8C"/>
<stop offset="0.875" stop-color="#D6FA8C"/>
<stop offset="0.9375" stop-color="#EEFFBA"/>
<stop offset="1" stop-color="#82B300"/>
</linearGradient>
<linearGradient id="paint14_linear_52_7" x1="726.135" y1="392.095" x2="167.928" y2="363.389" gradientUnits="userSpaceOnUse">
<stop stop-color="#A5D721"/>
<stop offset="0.5" stop-color="#BEED53"/>
<stop offset="0.75" stop-color="#D6FA8C"/>
<stop offset="0.875" stop-color="#D6FA8C"/>
<stop offset="0.9375" stop-color="#EEFFBA"/>
<stop offset="1" stop-color="#82B300"/>
</linearGradient>
<linearGradient id="paint15_linear_52_7" x1="715.675" y1="391.76" x2="181.808" y2="364.72" gradientUnits="userSpaceOnUse">
<stop stop-color="#A5D721"/>
<stop offset="0.5" stop-color="#BEED53"/>
<stop offset="0.75" stop-color="#D6FA8C"/>
<stop offset="0.875" stop-color="#D6FA8C"/>
<stop offset="0.9375" stop-color="#EEFFBA"/>
<stop offset="1" stop-color="#82B300"/>
</linearGradient>
<linearGradient id="paint16_linear_52_7" x1="705.428" y1="391.548" x2="195.391" y2="366.101" gradientUnits="userSpaceOnUse">
<stop stop-color="#A5D721"/>
<stop offset="0.5" stop-color="#BEED53"/>
<stop offset="0.75" stop-color="#D6FA8C"/>
<stop offset="0.875" stop-color="#D6FA8C"/>
<stop offset="0.9375" stop-color="#EEFFBA"/>
<stop offset="1" stop-color="#82B300"/>
</linearGradient>
<linearGradient id="paint17_linear_52_7" x1="695.568" y1="391.21" x2="208.691" y2="367.287" gradientUnits="userSpaceOnUse">
<stop stop-color="#A5D721"/>
<stop offset="0.5" stop-color="#BEED53"/>
<stop offset="0.75" stop-color="#D6FA8C"/>
<stop offset="0.875" stop-color="#D6FA8C"/>
<stop offset="0.9375" stop-color="#EEFFBA"/>
<stop offset="1" stop-color="#82B300"/>
</linearGradient>
<linearGradient id="paint18_linear_52_7" x1="686.151" y1="390.929" x2="221.657" y2="368.448" gradientUnits="userSpaceOnUse">
<stop stop-color="#A5D721"/>
<stop offset="0.5" stop-color="#BEED53"/>
<stop offset="0.75" stop-color="#D6FA8C"/>
<stop offset="0.875" stop-color="#D6FA8C"/>
<stop offset="0.9375" stop-color="#EEFFBA"/>
<stop offset="1" stop-color="#82B300"/>
</linearGradient>
<linearGradient id="paint19_linear_52_7" x1="677.621" y1="390.689" x2="234.453" y2="369.539" gradientUnits="userSpaceOnUse">
<stop stop-color="#A5D721"/>
<stop offset="0.5" stop-color="#BEED53"/>
<stop offset="0.75" stop-color="#D6FA8C"/>
<stop offset="0.875" stop-color="#D6FA8C"/>
<stop offset="0.9375" stop-color="#EEFFBA"/>
<stop offset="1" stop-color="#82B300"/>
</linearGradient>
<linearGradient id="paint20_linear_52_7" x1="669.572" y1="390.484" x2="246.916" y2="370.587" gradientUnits="userSpaceOnUse">
<stop stop-color="#A5D721"/>
<stop offset="0.5" stop-color="#BEED53"/>
<stop offset="0.75" stop-color="#D6FA8C"/>
<stop offset="0.875" stop-color="#D6FA8C"/>
<stop offset="0.9375" stop-color="#EEFFBA"/>
<stop offset="1" stop-color="#82B300"/>
</linearGradient>
<linearGradient id="paint21_linear_52_7" x1="661.782" y1="389.97" x2="259.094" y2="371.296" gradientUnits="userSpaceOnUse">
<stop stop-color="#A5D721"/>
<stop offset="0.5" stop-color="#BEED53"/>
<stop offset="0.75" stop-color="#D6FA8C"/>
<stop offset="0.875" stop-color="#D6FA8C"/>
<stop offset="0.9375" stop-color="#EEFFBA"/>
<stop offset="1" stop-color="#82B300"/>
</linearGradient>
<linearGradient id="paint22_linear_52_7" x1="863.095" y1="441.926" x2="52.688" y2="396.601" gradientUnits="userSpaceOnUse">
<stop stop-color="#A5D721"/>
<stop offset="0.5" stop-color="#BEED53"/>
<stop offset="0.75" stop-color="#D6FA8C"/>
<stop offset="0.875" stop-color="#D6FA8C"/>
<stop offset="0.9375" stop-color="#EEFFBA"/>
<stop offset="1" stop-color="#82B300"/>
</linearGradient>
<linearGradient id="paint23_linear_52_7" x1="856.132" y1="437.363" x2="58.2177" y2="392.413" gradientUnits="userSpaceOnUse">
<stop stop-color="#A5D721"/>
<stop offset="0.5" stop-color="#BEED53"/>
<stop offset="0.75" stop-color="#D6FA8C"/>
<stop offset="0.875" stop-color="#D6FA8C"/>
<stop offset="0.9375" stop-color="#EEFFBA"/>
<stop offset="1" stop-color="#82B300"/>
</linearGradient>
<linearGradient id="paint24_linear_52_7" x1="849.259" y1="432.899" x2="63.7653" y2="388.333" gradientUnits="userSpaceOnUse">
<stop stop-color="#A5D721"/>
<stop offset="0.5" stop-color="#BEED53"/>
<stop offset="0.75" stop-color="#D6FA8C"/>
<stop offset="0.875" stop-color="#D6FA8C"/>
<stop offset="0.9375" stop-color="#EEFFBA"/>
<stop offset="1" stop-color="#82B300"/>
</linearGradient>
<linearGradient id="paint25_linear_52_7" x1="842.251" y1="428.728" x2="69.2607" y2="384.56" gradientUnits="userSpaceOnUse">
<stop stop-color="#A5D721"/>
<stop offset="0.5" stop-color="#BEED53"/>
<stop offset="0.75" stop-color="#D6FA8C"/>
<stop offset="0.875" stop-color="#D6FA8C"/>
<stop offset="0.9375" stop-color="#EEFFBA"/>
<stop offset="1" stop-color="#82B300"/>
</linearGradient>
<linearGradient id="paint26_linear_52_7" x1="835.277" y1="424.799" x2="74.7452" y2="381.056" gradientUnits="userSpaceOnUse">
<stop stop-color="#A5D721"/>
<stop offset="0.5" stop-color="#BEED53"/>
<stop offset="0.75" stop-color="#D6FA8C"/>
<stop offset="0.875" stop-color="#D6FA8C"/>
<stop offset="0.9375" stop-color="#EEFFBA"/>
<stop offset="1" stop-color="#82B300"/>
</linearGradient>
<linearGradient id="paint27_linear_52_7" x1="828.359" y1="421.325" x2="80.2547" y2="378.07" gradientUnits="userSpaceOnUse">
<stop stop-color="#A5D721"/>
<stop offset="0.5" stop-color="#BEED53"/>
<stop offset="0.75" stop-color="#D6FA8C"/>
<stop offset="0.875" stop-color="#D6FA8C"/>
<stop offset="0.9375" stop-color="#EEFFBA"/>
<stop offset="1" stop-color="#82B300"/>
</linearGradient>
<linearGradient id="paint28_linear_52_7" x1="821.426" y1="418.545" x2="85.7147" y2="375.846" gradientUnits="userSpaceOnUse">
<stop stop-color="#A5D721"/>
<stop offset="0.5" stop-color="#BEED53"/>
<stop offset="0.75" stop-color="#D6FA8C"/>
<stop offset="0.875" stop-color="#D6FA8C"/>
<stop offset="0.9375" stop-color="#EEFFBA"/>
<stop offset="1" stop-color="#82B300"/>
</linearGradient>
<linearGradient id="paint29_linear_52_7" x1="814.55" y1="416.2" x2="91.1937" y2="374.108" gradientUnits="userSpaceOnUse">
<stop stop-color="#A5D721"/>
<stop offset="0.5" stop-color="#BEED53"/>
<stop offset="0.75" stop-color="#D6FA8C"/>
<stop offset="0.875" stop-color="#D6FA8C"/>
<stop offset="0.9375" stop-color="#EEFFBA"/>
<stop offset="1" stop-color="#82B300"/>
</linearGradient>
<linearGradient id="paint30_linear_52_7" x1="807.635" y1="414.202" x2="96.6417" y2="372.757" gradientUnits="userSpaceOnUse">
<stop stop-color="#A5D721"/>
<stop offset="0.5" stop-color="#BEED53"/>
<stop offset="0.75" stop-color="#D6FA8C"/>
<stop offset="0.875" stop-color="#D6FA8C"/>
<stop offset="0.9375" stop-color="#EEFFBA"/>
<stop offset="1" stop-color="#82B300"/>
</linearGradient>
<linearGradient id="paint31_linear_52_7" x1="800.681" y1="412.483" x2="102.079" y2="371.731" gradientUnits="userSpaceOnUse">
<stop stop-color="#A5D721"/>
<stop offset="0.5" stop-color="#BEED53"/>
<stop offset="0.75" stop-color="#D6FA8C"/>
<stop offset="0.875" stop-color="#D6FA8C"/>
<stop offset="0.9375" stop-color="#EEFFBA"/>
<stop offset="1" stop-color="#82B300"/>
</linearGradient>
<linearGradient id="paint32_linear_52_7" x1="793.832" y1="410.989" x2="107.536" y2="370.944" gradientUnits="userSpaceOnUse">
<stop stop-color="#A5D721"/>
<stop offset="0.5" stop-color="#BEED53"/>
<stop offset="0.75" stop-color="#D6FA8C"/>
<stop offset="0.875" stop-color="#D6FA8C"/>
<stop offset="0.9375" stop-color="#EEFFBA"/>
<stop offset="1" stop-color="#82B300"/>
</linearGradient>
<linearGradient id="paint33_linear_52_7" x1="786.921" y1="409.784" x2="112.959" y2="370.472" gradientUnits="userSpaceOnUse">
<stop stop-color="#A5D721"/>
<stop offset="0.5" stop-color="#BEED53"/>
<stop offset="0.75" stop-color="#D6FA8C"/>
<stop offset="0.875" stop-color="#D6FA8C"/>
<stop offset="0.9375" stop-color="#EEFFBA"/>
<stop offset="1" stop-color="#82B300"/>
</linearGradient>
<linearGradient id="paint34_linear_52_7" x1="780.092" y1="408.611" x2="118.385" y2="370.049" gradientUnits="userSpaceOnUse">
<stop stop-color="#A5D721"/>
<stop offset="0.5" stop-color="#BEED53"/>
<stop offset="0.75" stop-color="#D6FA8C"/>
<stop offset="0.875" stop-color="#D6FA8C"/>
<stop offset="0.9375" stop-color="#EEFFBA"/>
<stop offset="1" stop-color="#82B300"/>
</linearGradient>
<linearGradient id="paint35_linear_52_7" x1="773.223" y1="407.65" x2="123.786" y2="369.858" gradientUnits="userSpaceOnUse">
<stop stop-color="#A5D721"/>
<stop offset="0.5" stop-color="#BEED53"/>
<stop offset="0.75" stop-color="#D6FA8C"/>
<stop offset="0.875" stop-color="#D6FA8C"/>
<stop offset="0.9375" stop-color="#EEFFBA"/>
<stop offset="1" stop-color="#82B300"/>
</linearGradient>
<linearGradient id="paint36_linear_52_7" x1="766.292" y1="406.805" x2="129.173" y2="369.802" gradientUnits="userSpaceOnUse">
<stop stop-color="#A5D721"/>
<stop offset="0.5" stop-color="#BEED53"/>
<stop offset="0.75" stop-color="#D6FA8C"/>
<stop offset="0.875" stop-color="#D6FA8C"/>
<stop offset="0.9375" stop-color="#EEFFBA"/>
<stop offset="1" stop-color="#82B300"/>
</linearGradient>
<linearGradient id="paint37_linear_52_7" x1="759.468" y1="406.052" x2="134.57" y2="369.842" gradientUnits="userSpaceOnUse">
<stop stop-color="#A5D721"/>
<stop offset="0.5" stop-color="#BEED53"/>
<stop offset="0.75" stop-color="#D6FA8C"/>
<stop offset="0.875" stop-color="#D6FA8C"/>
<stop offset="0.9375" stop-color="#EEFFBA"/>
<stop offset="1" stop-color="#82B300"/>
</linearGradient>
<linearGradient id="paint38_linear_52_7" x1="752.654" y1="405.525" x2="139.93" y2="370.114" gradientUnits="userSpaceOnUse">
<stop stop-color="#A5D721"/>
<stop offset="0.5" stop-color="#BEED53"/>
<stop offset="0.75" stop-color="#D6FA8C"/>
<stop offset="0.875" stop-color="#D6FA8C"/>
<stop offset="0.9375" stop-color="#EEFFBA"/>
<stop offset="1" stop-color="#82B300"/>
</linearGradient>
<linearGradient id="paint39_linear_52_7" x1="745.898" y1="404.997" x2="145.307" y2="370.393" gradientUnits="userSpaceOnUse">
<stop stop-color="#A5D721"/>
<stop offset="0.5" stop-color="#BEED53"/>
<stop offset="0.75" stop-color="#D6FA8C"/>
<stop offset="0.875" stop-color="#D6FA8C"/>
<stop offset="0.9375" stop-color="#EEFFBA"/>
<stop offset="1" stop-color="#82B300"/>
</linearGradient>
<linearGradient id="paint40_linear_52_7" x1="739.033" y1="404.627" x2="150.662" y2="370.848" gradientUnits="userSpaceOnUse">
<stop stop-color="#A5D721"/>
<stop offset="0.5" stop-color="#BEED53"/>
<stop offset="0.75" stop-color="#D6FA8C"/>
<stop offset="0.875" stop-color="#D6FA8C"/>
<stop offset="0.9375" stop-color="#EEFFBA"/>
<stop offset="1" stop-color="#82B300"/>
</linearGradient>
</defs>
</svg>
