<svg width="880" height="771" viewBox="0 0 880 771" fill="none" xmlns="http://www.w3.org/2000/svg">
<g clip-path="url(#clip0_29_2)">
<g filter="url(#filter0_d_29_2)">
<path d="M876.645 583.936C874.38 567.473 869.851 551.202 863.708 535.871C847.35 495.074 798.95 454.084 801.118 409.773C803.31 365.198 845.759 333.836 849.662 289.14C852.722 254.12 823.692 223.6 791.65 209.111C759.584 194.621 723.688 191.179 690.37 179.867C635.056 161.093 589.619 121.837 544.159 85.2039C490.82 42.2168 424.906 -6.66718 352.198 1.97356C287.995 9.57935 229.669 65.2749 225.67 130.839C223.646 163.717 233.355 196.041 238.559 228.583C243.763 261.124 243.763 296.962 224.899 323.992C204.638 353.043 167.778 364.909 133.111 372.37C98.4673 379.856 61.6074 385.56 33.9264 407.679C-42.6603 468.887 32.8904 578.906 80.9529 628.247C119.162 667.479 162.286 704.04 213.986 722.092C265.71 740.144 327.649 736.678 369.857 701.802C394.527 681.415 410.379 652.629 429.435 626.923C448.492 601.218 473.74 576.86 505.468 572.696C545.725 567.425 582.512 596.091 608.314 627.405C634.116 658.718 655.437 695.351 689.888 716.845C749.611 754.128 839.664 726.063 867.586 661.462C878.09 637.153 880.258 610.292 876.621 583.912L876.645 583.936Z" stroke="url(#paint0_linear_29_2)" stroke-miterlimit="10"/>
<path d="M230.464 139.383C229.38 171.154 238.752 202.275 244.172 233.661C245.859 243.481 247.063 253.614 247.377 263.699C248.051 285.891 244.389 307.914 232.223 326.014C213.191 354.319 178.21 366.425 145.108 374.32C112.031 382.167 76.6646 388.304 49.7545 409.725C19.7366 433.65 12.991 464.94 18.8211 497.216C27.3013 544.945 63.5348 594.816 91.3363 623.867C128.196 662.281 170.525 697.734 221.093 714.871C259.494 727.893 303.51 728.711 340.394 713.331C352.054 708.469 363.015 701.994 372.845 693.763C396.478 674.123 411.68 646.491 429.965 621.797C448.227 597.078 472.342 573.659 502.649 569.351C526.693 565.957 549.483 575.127 569.334 589.665C581.211 598.378 592.029 609.016 601.4 620.04C626.383 649.476 647.198 684.111 680.348 704.498C686.106 708.036 692.177 710.972 698.416 713.307C754.525 734.271 826.438 707.506 851.421 652.749C861.901 629.764 864.695 604.299 861.877 579.147C860.118 563.454 856.215 547.881 850.746 533.151C842.796 511.585 825.643 489.851 812.128 467.515C801.046 449.198 792.421 430.473 793.409 411.097C795.577 367.918 836.894 337.254 838.243 294.17C838.604 282.738 834.581 272.22 829.401 261.918C823.644 250.533 816.272 239.606 807.43 230.147C798.757 220.832 788.663 212.505 777.027 206.969C746.744 192.527 712.293 189.615 680.516 178.784C627.78 160.805 584.319 123.57 540.786 88.8866C489.76 48.2101 426.809 2.06993 357.45 10.3256C293.512 18.0276 232.729 73.6509 230.488 139.383H230.464Z" stroke="url(#paint1_linear_29_2)" stroke-miterlimit="10"/>
<path d="M235.283 147.903C235.09 178.543 244.172 208.485 249.786 238.716C251.544 248.175 252.845 257.947 253.255 267.695C254.194 289.116 250.918 310.417 239.523 328.059C221.695 355.642 188.641 367.966 157.082 376.269C125.57 384.501 91.6735 391.024 65.5825 411.771C36.48 434.901 29.2044 464.747 33.8781 495.892C40.8165 541.984 74.7372 590.772 101.696 619.486C137.23 657.058 178.74 691.428 228.151 707.651C265.686 719.974 308.52 720.287 344.32 705.027C355.643 700.189 366.244 693.787 375.808 685.748C398.333 666.806 412.981 640.378 430.471 616.67C447.962 592.962 470.921 570.434 499.831 566.005C522.741 562.491 544.52 570.867 563.576 584.369C574.996 592.457 585.427 602.397 594.486 612.699C618.65 640.258 638.934 672.871 670.807 692.15C676.348 695.496 682.155 698.288 688.153 700.502C741.974 720.431 810.441 695.423 835.256 644.012C845.711 622.326 849.156 598.281 847.133 574.333C845.904 559.386 842.555 544.535 837.809 530.407C830.847 509.708 815.26 488.695 802.877 467.058C792.71 449.319 784.76 431.171 785.724 412.397C787.868 370.613 827.763 340.527 826.824 299.153C826.559 287.263 820.753 276.841 814.898 266.058C808.321 254.047 801.238 241.941 792.782 231.35C784.471 220.905 774.834 211.012 762.451 204.827C733.903 190.554 700.946 188.05 670.735 177.677C620.577 160.492 579.067 125.279 537.51 92.5449C488.748 54.155 428.737 10.7346 362.702 18.6293C299.028 26.4276 235.716 81.9065 235.307 147.855L235.283 147.903Z" stroke="url(#paint2_linear_29_2)" stroke-miterlimit="10"/>
<path d="M240.101 156.448C240.751 185.957 249.593 214.695 255.423 243.818C257.254 252.94 258.627 262.327 259.157 271.738C260.338 292.389 257.471 312.968 246.871 330.129C230.272 356.966 199.097 369.554 169.103 378.267C139.158 386.884 106.731 393.792 81.4347 413.865C53.2718 436.225 45.3698 464.651 48.9835 494.617C54.3318 539.096 85.9398 586.873 112.103 615.154C146.192 652.003 187.027 685.17 235.258 700.454C271.902 712.079 313.556 711.911 348.271 696.747C359.257 691.934 369.52 685.603 378.771 677.733C400.213 659.489 414.282 634.289 430.977 611.567C447.673 588.846 469.524 567.257 496.988 562.708C518.766 559.097 539.509 566.679 557.795 579.123C568.756 586.584 578.778 595.802 587.548 605.406C610.892 631.087 630.671 661.679 661.267 679.875C666.592 683.028 672.157 685.652 677.915 687.77C729.47 706.64 794.469 683.413 819.09 635.348C829.546 614.961 833.593 592.312 832.389 569.615C831.666 555.439 828.92 541.286 824.872 527.759C818.922 507.927 804.876 487.661 793.626 466.721C784.399 449.559 777.099 431.965 778.063 413.793C780.183 373.381 818.368 343.825 815.453 304.255C814.537 291.836 807.02 281.582 800.444 270.294C793.072 257.634 786.254 244.372 778.159 232.626C770.209 221.025 761.03 209.616 747.876 202.757C721.014 188.773 689.623 186.558 660.93 176.666C613.349 160.275 573.815 127.084 534.185 96.2998C487.689 60.1964 430.616 19.3755 367.954 27.0294C304.521 34.7796 238.679 90.2344 240.125 156.448H240.101Z" stroke="url(#paint3_linear_29_2)" stroke-miterlimit="10"/>
<path d="M244.919 164.992C246.365 193.346 255.013 220.929 261.036 248.897C262.939 257.658 264.385 266.684 265.059 275.733C266.505 295.59 264.024 315.471 254.194 332.151C238.824 358.242 209.553 371.07 181.101 380.217C152.721 389.194 121.788 396.535 97.2867 415.911C70.0393 437.477 61.5591 464.482 64.0647 493.293C67.7988 536.159 97.1422 582.853 122.486 610.773C155.203 646.828 195.267 678.84 242.365 693.233C278.117 704.16 318.591 703.511 352.222 688.443C362.871 683.678 372.796 677.396 381.758 669.694C402.14 652.172 415.607 628.151 431.507 606.441C447.408 584.706 468.126 564.055 494.169 559.362C514.791 555.655 534.522 562.418 552.037 573.803C562.516 580.615 572.153 589.135 580.633 598.041C603.159 621.821 622.408 650.414 651.727 667.503C656.834 670.488 662.159 672.943 667.651 674.941C716.942 692.776 778.496 671.306 802.925 626.61C813.356 607.524 818.03 586.295 817.645 564.801C817.428 551.371 815.284 537.94 811.935 525.015C807.02 506.025 794.493 486.505 784.35 466.287C776.039 449.728 769.414 432.687 770.353 415.117C772.449 376.101 808.635 346.978 804.033 309.261C802.443 296.312 793.192 286.228 785.94 274.434C777.749 261.124 771.22 246.682 763.511 233.805C755.947 221.049 747.201 208.1 733.301 200.614C708.077 186.991 678.276 184.994 651.125 175.583C606.122 159.986 568.539 128.817 530.884 99.9821C486.677 66.1894 432.519 28.0642 373.23 35.3571C310.062 43.1313 241.594 98.4417 244.967 164.944L244.919 164.992Z" stroke="url(#paint4_linear_29_2)" stroke-miterlimit="10"/>
<path d="M249.737 173.537C251.905 200.711 260.434 227.163 266.674 253.999C268.625 262.399 270.191 271.064 270.962 279.777C272.672 298.864 270.576 318.023 261.542 334.245C247.4 359.59 220.033 372.755 193.098 382.215C166.285 391.65 136.821 399.303 113.115 418.005C86.7828 438.777 77.7003 464.362 79.1217 492.017C81.2418 533.295 108.345 578.882 132.846 606.441C164.189 641.702 203.482 672.582 249.424 686.061C284.284 696.29 323.577 695.135 356.149 680.212C366.46 675.47 376.049 669.285 384.722 661.751C404.019 644.951 416.908 622.134 432.013 601.41C447.118 580.687 466.729 560.95 491.326 556.113C510.816 552.31 529.535 558.255 546.279 568.604C556.301 574.79 565.552 582.612 573.719 590.796C595.425 612.699 614.144 639.295 642.187 655.277C647.053 658.069 652.161 660.379 657.388 662.257C704.391 679.057 762.548 659.32 786.759 617.994C797.191 600.183 802.491 580.398 802.901 560.108C803.19 547.448 801.648 534.715 798.998 522.392C795.095 504.244 784.109 485.47 775.099 465.95C767.703 449.969 761.728 433.505 762.692 416.537C764.764 378.917 798.709 350.227 792.638 314.388C790.349 300.862 779.387 290.993 771.437 278.694C762.403 264.758 756.187 249.137 748.864 235.129C741.66 221.217 733.373 206.752 718.725 198.593C695.116 185.427 666.929 183.55 641.319 174.596C598.894 159.794 563.287 130.622 527.56 103.761C485.616 72.2549 434.398 36.8254 378.458 43.7813C315.555 51.6037 244.413 106.698 249.761 173.561L249.737 173.537Z" stroke="url(#paint5_linear_29_2)" stroke-miterlimit="10"/>
<path d="M254.556 182.057C257.423 208.076 265.879 233.372 272.311 259.054C274.335 267.117 275.973 275.421 276.865 283.748C278.816 302.065 277.13 320.502 268.866 336.243C255.953 360.841 230.489 374.248 205.096 384.14C179.872 393.96 151.878 401.999 128.943 420.027C103.527 440.004 93.8661 464.193 94.2033 490.669C94.7093 530.335 119.548 574.838 143.229 602.036C173.223 636.479 211.745 666.252 256.507 678.816C290.5 688.347 328.613 686.71 360.076 671.884C370.05 667.166 379.301 661.053 387.661 653.688C405.898 637.634 418.185 615.972 432.495 596.259C446.83 576.523 465.284 557.701 488.46 552.743C506.817 548.819 524.5 553.994 540.473 563.285C550.037 568.845 558.879 575.945 566.757 583.431C587.644 603.456 605.857 628.03 632.623 642.929C637.272 645.528 642.115 647.695 647.102 649.428C691.84 665.193 746.599 647.213 770.57 609.257C781.002 592.745 786.904 574.357 788.133 555.318C788.952 543.404 787.989 531.37 786.037 519.696C783.146 502.415 773.702 484.363 765.8 465.565C759.32 450.161 754.02 434.275 754.959 417.885C757.031 381.661 788.494 353.38 781.195 319.419C778.159 305.29 765.559 295.663 756.91 282.858C747.057 268.272 741.131 251.496 734.168 236.333C727.326 221.29 719.496 205.308 704.078 196.45C682.034 183.79 655.51 181.985 631.442 173.513C591.595 159.505 557.963 132.355 524.163 107.444C484.509 78.2238 436.229 45.5142 383.638 52.109C320.976 59.9796 247.112 114.809 254.508 182.057H254.556Z" stroke="url(#paint6_linear_29_2)" stroke-miterlimit="10"/>
<path d="M259.374 190.602C262.867 215.441 271.299 239.606 277.924 264.132C280.02 271.834 281.731 279.777 282.743 287.768C284.959 305.314 283.658 323.029 276.19 338.313C264.505 362.165 240.92 375.836 217.093 386.114C193.436 396.319 166.911 404.767 144.795 422.097C120.318 441.28 110.031 464.049 109.284 489.369C108.176 527.446 130.774 570.843 153.637 597.68C182.281 631.328 220.009 659.97 263.614 671.595C296.716 680.429 333.648 678.311 364.027 663.58C373.664 658.887 382.577 652.846 390.648 645.673C407.825 630.341 419.51 609.883 433.025 591.157C446.564 572.407 463.886 554.524 485.641 549.421C502.866 545.402 519.537 549.758 534.715 557.99C543.797 562.924 552.278 569.278 559.842 576.09C579.959 594.19 597.594 616.79 623.082 630.582C627.515 632.989 632.117 634.986 636.838 636.623C679.312 651.329 730.699 635.107 754.381 600.52C764.812 585.284 771.293 568.34 773.365 550.504C774.666 539.336 774.328 528.024 773.076 516.952C771.22 500.489 763.294 483.232 756.525 465.132C750.96 450.306 746.334 434.998 747.274 419.208C749.321 384.381 778.135 356.509 769.775 324.449C765.944 309.719 751.73 300.332 742.407 287.046C731.735 271.834 726.097 253.879 719.52 237.56C713.04 221.362 705.668 203.888 689.502 194.332C669.025 182.25 644.186 180.445 621.661 172.454C584.391 159.24 552.711 134.112 520.886 111.174C483.496 84.2412 438.156 54.2272 388.938 60.4852C326.541 68.4038 249.858 122.968 259.374 190.626V190.602Z" stroke="url(#paint7_linear_29_2)" stroke-miterlimit="10"/>
<path d="M264.192 199.146C268.264 222.782 276.72 245.84 283.562 269.235C285.73 276.576 287.513 284.158 288.645 291.787C291.127 308.564 290.211 325.556 283.514 340.359C273.034 363.465 251.376 377.401 229.091 388.087C206.999 398.678 181.968 407.511 160.623 424.167C137.062 442.555 126.173 463.928 124.342 488.07C121.595 524.558 141.977 566.847 163.996 593.323C191.268 626.153 228.248 653.688 270.697 664.399C302.907 672.534 338.659 669.934 367.978 655.301C377.278 650.631 385.854 644.686 393.636 637.658C409.753 623.072 420.835 603.769 433.555 586.054C446.299 568.315 462.513 551.347 482.822 546.1C498.915 541.984 514.551 545.522 528.957 552.719C537.582 557.027 545.677 562.683 552.928 568.773C572.225 584.995 589.354 605.598 613.542 618.283C617.758 620.497 622.119 622.35 626.6 623.867C666.808 637.538 714.847 623.024 738.239 591.855C748.719 577.895 755.754 562.394 758.645 545.787C760.452 535.389 760.717 524.751 760.163 514.305C759.319 498.684 752.935 482.173 747.298 464.771C742.672 450.546 738.697 435.768 739.613 420.604C741.636 387.149 767.655 359.734 758.404 329.528C753.706 314.196 737.95 305.074 727.952 291.258C716.461 275.397 711.112 256.262 704.921 238.836C698.826 221.482 691.888 202.54 674.951 192.262C655.991 180.782 632.864 178.952 611.88 171.419C577.188 158.999 547.483 135.893 517.586 114.905C482.461 90.2583 440.084 62.9882 394.19 68.861C332.058 76.8279 252.436 131.103 264.192 199.17V199.146Z" stroke="url(#paint8_linear_29_2)" stroke-miterlimit="10"/>
<path d="M269.01 207.691C273.636 230.171 282.14 252.074 289.199 274.313C291.44 281.318 293.319 288.514 294.547 295.807C297.27 311.789 296.764 328.083 290.861 342.429C281.61 364.813 261.855 378.989 241.088 390.061C220.563 401.036 197.001 410.279 176.475 426.237C153.829 443.831 142.314 463.808 139.447 486.77C135.062 521.67 153.227 562.828 174.403 588.967C200.326 620.978 236.511 647.406 277.804 657.202C309.123 664.639 343.694 661.534 371.929 647.021C380.891 642.4 389.13 636.527 396.599 629.643C411.656 615.779 422.136 597.655 434.061 580.952C446.01 564.2 461.091 548.17 480.003 542.778C494.964 538.542 509.563 541.31 523.199 547.424C531.366 551.106 539.051 556.04 546.014 561.432C564.492 575.753 581.091 594.358 604.026 605.959C608.001 607.981 612.145 609.69 616.361 611.086C654.281 623.722 699.043 610.941 722.098 583.142C732.602 570.458 740.215 556.377 743.925 540.997C746.238 531.346 747.129 521.405 747.25 511.585C747.442 496.783 742.576 481.041 738.047 464.362C734.337 450.715 731.012 436.514 731.951 421.928C733.951 389.868 757.007 362.911 747.033 334.558C741.444 318.624 724.17 309.743 713.473 295.422C701.138 278.935 696.103 258.621 690.273 240.039C684.54 221.53 678.059 201.12 660.376 190.144C642.934 179.313 621.516 177.412 602.075 170.36C569.961 158.734 542.231 137.65 514.285 118.612C481.449 96.2515 442.011 71.7012 399.466 77.213C337.575 85.2521 254.965 139.239 269.035 207.715L269.01 207.691Z" stroke="url(#paint9_linear_29_2)" stroke-miterlimit="10"/>
<path d="M273.829 216.211C278.936 237.512 287.561 258.259 294.813 279.368C297.101 286.011 299.077 292.847 300.45 299.778C303.437 314.99 303.317 330.563 298.185 344.426C290.163 366.064 272.311 380.481 253.086 391.986C234.126 403.323 212.058 412.975 192.304 428.234C170.573 445.058 158.455 463.592 154.504 485.398C148.481 518.709 164.43 558.76 184.763 584.538C209.336 615.707 244.726 641.028 284.863 649.933C315.314 656.672 348.705 653.086 375.832 638.669C384.457 634.072 392.383 628.271 399.538 621.58C413.535 608.462 423.389 591.518 434.543 575.801C445.721 560.036 459.67 544.92 477.136 539.409C490.941 535.076 504.553 537.026 517.393 542.104C525.078 545.161 532.402 549.373 539.051 554.067C556.735 566.51 572.779 583.094 594.438 593.588C598.196 595.417 602.075 596.957 606.05 598.257C641.705 609.858 683.215 598.835 705.885 574.405C716.461 562.996 724.628 550.36 729.133 536.183C731.976 527.302 733.445 518.035 734.264 508.841C735.493 494.881 732.144 479.886 728.747 463.928C725.953 450.859 723.303 437.236 724.218 423.252C726.194 392.588 746.166 366.16 735.565 339.564C728.988 323.077 710.269 314.412 698.922 299.562C685.744 282.449 681.022 260.955 675.578 241.219C670.205 221.578 664.158 199.7 645.728 187.978C629.78 177.821 610.097 175.823 592.197 169.253C562.637 158.422 536.883 139.359 510.889 122.27C480.317 102.197 443.818 80.3901 404.645 85.5168C343.019 93.6039 257.254 147.302 273.781 216.187L273.829 216.211Z" stroke="url(#paint10_linear_29_2)" stroke-miterlimit="10"/>
<path d="M278.647 224.756C284.212 244.901 292.981 264.493 300.45 284.471C302.811 290.753 304.858 297.227 306.352 303.822C309.604 318.263 309.869 333.114 305.533 346.496C298.739 367.388 282.767 382.046 265.108 393.96C247.738 405.682 227.115 415.718 208.155 430.304C187.365 446.334 174.596 463.471 169.585 484.098C161.9 515.821 175.656 554.741 195.146 580.181C218.394 610.532 252.99 634.746 291.945 642.713C321.506 648.754 353.716 644.686 379.783 630.365C388.07 625.792 395.659 620.088 402.501 613.541C415.438 601.17 424.689 585.38 435.049 570.674C445.432 555.896 458.249 541.719 474.294 536.063C486.966 531.634 499.541 532.766 511.611 536.809C518.839 539.216 525.753 542.73 532.113 546.726C548.977 557.268 564.516 571.854 584.873 581.265C588.415 582.901 592.052 584.297 595.763 585.477C629.153 596.019 667.483 586.776 689.695 565.692C700.367 555.559 709.04 544.343 714.365 531.418C717.713 523.283 719.809 514.714 721.303 506.145C723.592 493.004 721.737 478.803 719.472 463.519C717.593 451.028 715.617 437.982 716.533 424.6C718.484 395.332 735.3 369.458 724.17 344.619C716.533 327.602 696.489 319.106 684.443 303.75C670.446 286.011 666.013 263.338 660.954 242.47C655.943 221.675 650.306 198.376 631.177 185.884C616.698 176.425 598.798 174.307 582.44 168.218C555.458 158.181 531.679 141.14 507.636 126.001C479.353 108.238 445.793 89.1272 409.945 93.8928C348.584 102.052 259.518 155.485 278.647 224.756Z" stroke="url(#paint11_linear_29_2)" stroke-miterlimit="10"/>
<path d="M283.465 233.3C289.44 252.29 298.402 270.727 306.063 289.549C308.496 295.47 310.64 301.584 312.23 307.817C315.724 321.489 316.398 335.617 312.833 348.542C307.268 368.688 293.198 383.61 277.081 395.934C261.277 408.016 242.148 418.486 223.983 432.374C204.108 447.61 190.689 463.351 184.666 482.799C175.295 512.933 186.907 550.745 205.529 575.849C227.429 605.358 261.229 628.488 299.052 635.54C327.721 640.883 358.751 636.31 383.734 622.11C391.684 617.56 398.935 611.952 405.488 605.55C417.39 593.949 426.014 579.315 435.579 565.596C445.167 551.828 456.875 538.566 471.475 532.766C483.015 528.217 494.578 528.554 505.853 531.538C512.623 533.319 519.152 536.111 525.223 539.409C541.244 548.073 556.277 560.662 575.381 568.941C578.706 570.385 582.103 571.637 585.548 572.696C616.65 582.203 651.871 574.766 673.554 556.979C684.347 548.146 693.501 538.35 699.645 526.628C703.499 519.239 706.246 511.368 708.39 503.426C711.739 491.102 711.377 477.672 710.221 463.11C709.257 451.22 707.956 438.704 708.848 425.924C710.799 398.052 724.338 372.779 712.775 349.625C704.029 332.127 682.684 323.775 669.964 307.914C655.124 289.525 651.004 265.673 646.33 243.674C641.705 221.723 636.453 197.052 616.602 183.742C603.568 175.005 587.451 172.743 572.635 167.11C548.23 157.868 526.403 142.849 504.311 129.659C478.293 114.183 447.697 97.8401 415.197 102.197C354.101 110.428 261.59 163.645 283.489 233.228L283.465 233.3Z" stroke="url(#paint12_linear_29_2)" stroke-miterlimit="10"/>
<path d="M288.284 241.844C294.62 259.704 303.823 276.961 311.701 294.652C314.206 300.236 316.423 305.988 318.133 311.861C321.891 324.762 322.951 338.168 320.181 350.612C315.844 370.011 303.678 385.175 289.079 397.931C274.841 410.399 257.182 421.254 239.812 434.468C220.852 448.909 206.807 463.254 199.724 481.523C188.666 510.044 198.134 546.75 215.889 571.517C236.463 600.207 269.444 622.23 306.111 628.367C333.889 633.013 363.762 627.958 387.637 613.854C395.25 609.329 402.188 603.817 408.428 597.583C419.293 586.728 427.291 573.249 436.061 560.541C444.878 547.76 455.43 535.437 468.608 529.516C479.016 524.871 489.544 524.414 500.047 526.339C506.335 527.494 512.479 529.588 518.261 532.164C533.462 538.951 547.989 549.518 565.793 556.714C568.877 557.966 572.057 559.073 575.261 560.012C604.098 568.484 636.26 562.9 657.365 548.386C668.302 540.853 677.939 532.453 684.877 521.983C689.262 515.364 692.61 508.167 695.429 500.85C699.862 489.345 700.97 476.685 700.946 462.845C700.898 451.533 700.271 439.595 701.139 427.416C703.066 400.916 713.329 376.366 701.331 354.824C691.358 336.893 668.832 328.613 655.413 312.246C639.754 293.232 635.923 268.2 631.611 245.07C627.347 221.963 622.456 195.945 601.954 181.792C590.366 173.802 576.032 171.371 562.757 166.22C540.931 157.772 521.079 144.774 500.939 133.534C477.209 120.344 449.528 106.745 420.401 110.717C359.546 119.021 263.445 172.093 288.26 241.941L288.284 241.844Z" stroke="url(#paint13_linear_29_2)" stroke-miterlimit="10"/>
<path d="M293.078 250.365C299.751 267.117 309.219 283.171 317.314 299.706C319.891 304.929 322.18 310.321 324.011 315.832C328.034 327.939 329.48 340.647 327.48 352.634C324.348 371.287 314.085 386.691 301.052 399.857C288.38 412.686 272.215 423.95 255.64 436.49C237.619 450.137 222.875 463.062 214.781 480.175C202.036 507.108 209.36 542.658 226.272 567.112C245.545 594.96 277.707 615.9 313.194 621.099C340.08 625.046 368.773 619.51 391.588 605.502C398.863 601.025 405.464 595.586 411.391 589.496C421.22 579.411 428.592 567.088 436.566 555.366C444.589 543.573 454.008 532.164 465.765 526.123C475.04 521.381 484.532 520.105 494.265 520.996C500.095 521.526 505.829 522.897 511.322 524.775C525.705 529.685 539.702 538.229 556.228 544.343C559.095 545.402 562.01 546.341 564.974 547.183C591.546 554.596 620.721 550.962 641.175 539.625C652.281 533.464 662.375 526.411 670.109 517.145C674.999 511.272 679.022 504.774 682.468 498.106C687.984 487.42 690.562 475.53 691.67 462.388C692.562 451.653 692.562 440.293 693.453 428.716C695.356 403.612 702.295 379.808 689.936 359.806C678.661 341.538 655.051 333.234 640.934 316.362C624.455 296.698 620.914 270.511 616.987 246.225C613.084 221.988 608.531 194.669 587.379 179.626C577.236 172.406 564.685 169.806 552.952 165.113C533.703 157.459 515.827 146.483 497.614 137.193C476.149 126.29 451.431 115.459 425.653 119.021C365.063 127.421 265.156 180.445 293.078 250.437V250.365Z" stroke="url(#paint14_linear_29_2)" stroke-miterlimit="10"/>
<path d="M297.896 258.909C304.883 274.578 314.64 289.405 322.927 304.785C325.553 309.647 327.962 314.677 329.89 319.852C334.154 331.188 336.009 343.175 334.78 354.68C332.877 372.587 324.493 388.232 313.026 401.831C301.895 415.021 287.224 426.718 271.444 438.56C254.339 451.413 238.945 462.918 229.814 478.875C215.335 504.196 220.563 538.639 236.608 562.756C254.556 589.737 285.899 609.618 320.229 613.902C346.248 617.151 373.736 611.11 395.467 597.222C402.405 592.77 408.693 587.426 414.306 581.505C423.099 572.191 429.845 560.999 437.024 550.264C444.252 539.481 452.563 528.987 462.874 522.801C471.017 517.963 479.498 515.869 488.435 515.701C493.808 515.605 499.156 516.254 504.336 517.434C517.899 520.467 531.366 527.013 546.616 531.996C549.266 532.862 551.94 533.656 554.639 534.354C578.923 540.733 605.183 539.168 624.937 530.888C636.26 526.147 646.74 520.394 655.293 512.331C660.713 507.229 665.363 501.428 669.458 495.363C676.084 485.543 680.107 474.399 682.323 461.955C684.13 451.798 684.805 441.015 685.672 430.016C687.551 406.308 691.141 383.322 678.445 364.813C665.773 346.328 641.151 337.88 626.359 320.502C609.061 300.212 605.809 272.845 602.267 247.405C598.726 222.012 594.414 193.49 572.731 177.46C563.986 171.01 553.29 168.218 543.099 163.982C526.428 157.122 510.503 148.168 494.241 140.827C475.065 132.211 453.286 124.148 430.833 127.325C370.508 135.845 266.602 188.893 297.824 258.909H297.896Z" stroke="url(#paint15_linear_29_2)" stroke-miterlimit="10"/>
<path d="M302.714 267.454C309.99 282.064 320.084 295.615 328.564 309.887C331.263 314.412 333.744 319.058 335.816 323.872C340.345 334.438 342.586 345.702 342.152 356.726C341.477 373.911 334.973 389.748 325.071 403.78C315.507 417.331 302.305 429.438 287.32 440.606C271.131 452.664 255.062 462.749 244.943 477.552C228.754 501.235 231.886 534.595 247.039 558.375C263.686 584.514 294.186 603.312 327.384 606.681C352.511 609.233 378.819 602.71 399.466 588.919C406.067 584.49 412.041 579.267 417.317 573.466C425.099 564.946 431.194 554.861 437.578 545.137C444.011 535.341 451.19 525.786 460.104 519.456C467.09 514.497 474.559 511.633 482.75 510.406C487.64 509.684 492.603 509.636 497.494 510.069C510.214 511.224 523.199 515.749 537.172 519.648C539.581 520.322 542.039 520.972 544.472 521.55C566.491 526.893 589.788 527.495 608.844 522.151C620.384 518.926 631.273 514.377 640.621 507.542C646.547 503.185 651.872 498.106 656.593 492.643C664.351 483.689 669.796 473.267 673.144 461.546C675.867 451.99 677.216 441.761 678.083 431.363C679.938 409.051 680.179 386.98 667.121 369.843C652.932 351.214 627.419 342.573 611.952 324.666C593.811 303.726 590.872 275.18 587.692 248.632C584.536 222.084 580.368 192.479 558.228 175.342C550.904 169.662 542.015 166.677 533.366 162.923C519.272 156.833 505.323 149.925 491.013 144.558C474.101 138.228 455.285 132.933 436.181 135.701C376.145 144.39 267.975 197.606 302.738 267.478L302.714 267.454Z" stroke="url(#paint16_linear_29_2)" stroke-miterlimit="10"/>
<path d="M307.533 275.998C315.074 289.597 325.505 301.848 334.202 314.966C336.973 319.13 339.526 323.414 341.719 327.891C346.489 337.687 349.115 348.229 349.476 358.795C350.03 375.234 345.381 391.312 337.069 405.778C329.023 419.666 317.362 432.206 303.172 442.7C287.898 453.988 271.155 462.605 260.025 476.276C242.101 498.299 243.161 530.575 257.423 554.043C272.793 579.339 302.45 597.03 334.467 599.509C358.703 601.362 383.855 594.358 403.417 580.663C409.705 576.258 415.342 571.156 420.305 565.475C427.075 557.725 432.519 548.796 438.133 540.058C443.794 531.249 449.841 522.633 457.309 516.158C463.164 511.104 469.596 507.421 477.016 505.159C481.449 503.787 486.002 503.065 490.604 502.776C502.505 502.078 514.96 504.557 527.656 507.373C529.849 507.854 532.041 508.336 534.233 508.817C553.988 513.125 574.249 516.062 592.703 513.51C604.412 511.898 615.759 508.456 625.901 502.824C632.358 499.238 638.308 494.881 643.681 489.995C652.546 481.932 659.437 472.208 663.893 461.185C667.531 452.207 669.555 442.531 670.398 432.759C672.229 411.843 669.145 390.783 655.726 374.946C639.947 356.34 613.615 347.314 597.473 328.926C578.513 307.36 575.863 277.635 573.069 249.932C570.274 222.228 566.106 191.709 543.653 173.296C537.702 168.41 530.668 165.209 523.561 161.936C512.045 156.64 500.072 151.754 487.689 148.337C473.065 144.317 457.189 141.766 441.433 144.125C381.662 153.006 269.011 206.583 307.557 276.07L307.533 275.998Z" stroke="url(#paint17_linear_29_2)" stroke-miterlimit="10"/>
<path d="M407.344 572.311C413.294 567.93 418.667 562.948 423.268 557.412C439.434 537.965 447.721 511.633 471.21 499.815C487.183 491.8 506.48 492.715 523.946 495.988C541.413 499.238 558.542 504.605 576.514 504.75C608.411 504.99 640.356 486.987 654.618 460.752C668.88 434.492 664.664 401.446 644.331 379.952C626.889 361.515 599.834 351.96 582.97 333.066C563.191 310.85 560.83 279.97 558.421 251.111C556.012 222.252 551.507 191.155 529.078 171.13C508.383 152.669 476.101 147.88 446.685 152.404C387.203 161.575 269.806 215.682 312.375 284.543C322.662 301.199 338.105 314.87 347.621 331.911C368.003 368.375 355.379 418.174 319.001 444.746C304.666 455.24 287.224 462.388 275.082 474.952C255.399 495.29 254.435 526.508 267.782 549.662C281.876 574.092 310.665 590.724 341.526 592.264C364.871 593.444 388.842 585.934 407.32 572.335L407.344 572.311Z" stroke="url(#paint18_linear_29_2)" stroke-miterlimit="10"/>
</g>
<path d="M779.099 164.535C766.041 158.349 752.02 153.897 737.926 151.081C700.416 143.571 647.535 159.288 616.289 136.615C584.849 113.822 582.199 68.0188 551.483 43.9498C527.415 25.0798 491.375 31.6506 465.573 48.0897C439.771 64.5288 420.184 88.9828 396.093 107.829C359.835 136.206 314.808 151.273 271.347 164.728C196.857 187.762 124.703 169.854 69.5335 239.414C34.7937 283.219 23.7357 344.691 41.0574 397.835C50.6458 427.272 70.3285 455.48 99.5755 465.71C121.619 473.412 145.807 469.994 168.911 466.528C192.014 463.038 216.226 459.692 238.246 467.515C281.659 482.943 289.898 540.564 280.888 579.267C271.709 618.692 245.811 651.161 249.882 693.522C258.049 778.317 374.122 775.693 432.929 764.213C479.69 755.09 526.813 741.13 564.564 712.103C602.316 683.076 629.25 636.407 623.926 589.111C620.818 561.48 607.351 536.256 597.69 510.189C588.029 484.098 582.272 454.181 594.341 429.101C609.639 397.33 648.017 384.212 683.118 380.337C718.22 376.462 755.031 378.388 787.073 363.561C842.628 337.856 865.009 259.03 831.232 208.004C818.512 188.797 799.986 174.452 779.05 164.559L779.099 164.535Z" stroke="url(#paint19_linear_29_2)" stroke-width="2" stroke-miterlimit="10"/>
<path d="M78.3027 239.365C61.0533 258.909 48.333 283.219 42.4306 309.454C35.9982 338.289 37.4196 369.049 46.9116 397.258C56.5 425.755 75.5322 453.073 103.791 463.279C125.112 470.981 148.505 468.092 170.886 465.084C176.09 464.386 181.366 463.688 186.642 463.11C204.108 461.257 221.791 460.824 238.246 466.576C280.406 481.306 289.416 535.558 282.044 572.263C277.924 592.529 269.131 610.941 262.699 630.124C257.254 646.299 253.447 663.003 255.519 681.704C258.94 712.994 277.226 732.273 301.63 743.585C340.899 761.806 395.996 759.326 430.929 753.911C476.173 746.883 522.862 735.137 560.541 707.699C561.938 706.688 563.336 705.629 564.685 704.57C600.34 676.866 625.684 632.916 621.227 587.908C618.577 560.998 605.809 536.328 596.678 510.839C587.547 485.35 582.127 456.202 593.715 431.724C595.257 428.475 597.015 425.442 599.015 422.578C616.072 397.956 648.788 386.884 679.119 382.912C712.992 378.508 748.671 379.639 779.749 365.005C817.548 347.05 840.507 305.025 840.146 263.555C839.953 244.949 835.063 226.537 824.848 210.699C812.489 191.516 794.421 176.907 773.871 166.798C761.271 160.588 747.683 156.087 733.999 153.078C697.669 145.16 646.596 159.095 615.855 136.952C585.042 114.761 581.356 70.9551 551.218 47.9211C527.439 29.8213 492.362 35.9829 467.114 51.7962C441.867 67.6095 422.617 91.3174 399.345 110.187C376.723 128.648 351.066 142.103 324.156 153.078C309.195 159.192 293.825 164.511 278.527 169.493C231.211 184.873 184.112 183.092 141.976 196.884C119.138 204.369 98.13 216.813 78.2545 239.341L78.3027 239.365Z" stroke="url(#paint20_linear_29_2)" stroke-width="2" stroke-miterlimit="10"/>
<path d="M87.0722 239.317C69.0759 257.61 54.8138 281.318 48.3573 307.769C41.3226 336.748 42.8644 368.11 52.8142 396.704C62.3785 424.263 80.7603 450.715 108.056 460.896C128.63 468.574 151.228 466.239 172.91 463.688C177.945 463.086 183.053 462.509 188.184 462.027C205.12 460.487 222.297 460.222 238.318 465.686C279.25 479.718 289.103 530.624 283.297 565.307C280.093 584.466 272.359 601.964 266.843 620.353C262.169 635.853 258.965 651.931 261.253 669.934C264.963 700.021 282.55 718.891 305.798 730.275C343.236 748.664 395.418 747.412 429.002 743.634C472.752 738.699 518.983 729.168 556.566 703.294C557.963 702.331 559.361 701.344 560.734 700.334C596.51 674.122 622.384 631.184 618.626 586.704C616.409 560.517 604.339 536.4 595.763 511.489C587.186 486.577 582.079 458.248 593.161 434.348C594.631 431.195 596.317 428.21 598.22 425.394C614.554 401.205 645.921 389.965 675.192 385.488C707.836 380.53 742.407 381.011 772.522 366.449C809.888 348.398 833.208 307.216 833.232 265.986C833.232 247.525 828.486 229.232 818.56 213.371C806.563 194.236 788.952 179.338 768.812 169.012C756.67 162.778 743.516 158.229 730.241 155.004C695.092 146.652 645.825 158.831 615.59 137.217C585.428 115.627 580.73 73.7471 551.121 51.8203C527.656 34.4426 493.543 40.2672 468.825 55.4307C444.131 70.6182 425.147 93.5318 402.742 112.498C380.771 131.103 356.414 145.328 330.372 156.929C315.893 163.404 300.884 169.012 285.851 174.187C239.547 190 192.641 188.724 150.722 200.807C128.004 207.378 107.405 218.594 87.1204 239.197L87.0722 239.317Z" stroke="url(#paint21_linear_29_2)" stroke-width="2" stroke-miterlimit="10"/>
<path d="M95.8172 239.293C77.0018 256.334 61.2701 279.44 54.2354 306.109C46.5984 335.232 48.2607 367.196 58.6441 396.175C68.1843 422.795 85.9397 448.38 112.248 458.537C132.099 466.215 153.878 464.41 174.861 462.316C179.752 461.835 184.666 461.329 189.629 460.944C206.06 459.717 222.707 459.62 238.27 464.819C277.948 478.129 288.645 525.69 284.405 558.399C282.068 576.451 275.419 593.034 270.866 610.629C266.963 625.455 264.409 640.908 266.866 658.237C270.938 687.096 287.754 705.581 309.845 717.038C345.453 735.571 394.72 735.571 426.978 733.428C469.283 730.588 514.984 723.271 552.519 698.986C553.916 698.095 555.313 697.157 556.686 696.218C592.583 671.499 618.963 629.571 615.903 585.645C614.12 560.18 602.773 536.617 594.727 512.307C586.704 487.998 581.91 460.463 592.51 437.14C593.908 434.059 595.546 431.147 597.353 428.379C612.988 404.647 642.982 393.214 671.169 388.232C702.608 382.72 736.023 382.479 765.174 368.062C802.058 349.842 825.763 309.551 826.173 268.585C826.342 250.293 821.764 232.097 812.128 216.235C800.492 197.125 783.339 181.985 763.584 171.395C751.899 165.137 739.179 160.492 726.29 157.122C692.345 148.241 644.837 158.759 615.132 137.674C585.596 116.662 579.91 76.7558 550.832 55.9121C527.656 39.3046 494.506 44.7201 470.343 59.2818C446.179 73.8435 427.532 96.011 405.946 115.025C384.625 133.799 361.57 148.794 336.418 160.997C322.421 167.833 307.774 173.778 293.006 179.121C247.738 195.488 201.024 194.597 159.298 204.947C136.7 210.579 116.464 220.592 95.8172 239.293Z" stroke="url(#paint22_linear_29_2)" stroke-width="2" stroke-miterlimit="10"/>
<path d="M104.563 239.245C84.88 255.034 67.7269 277.563 60.114 304.424C51.8747 333.692 53.6334 366.281 64.4745 395.621C73.9665 421.303 91.1196 446.021 116.416 456.154C135.52 463.808 156.528 462.557 176.765 460.944C181.487 460.559 186.257 460.174 191.051 459.885C206.951 458.946 223.093 459.043 238.222 463.977C276.672 476.589 288.163 520.779 285.538 551.491C284.092 568.436 278.551 584.105 274.889 600.905C271.805 615.057 269.83 629.884 272.456 646.54C276.841 674.171 292.91 692.271 313.893 703.8C347.669 722.477 394.069 722.357 424.931 723.199C465.79 724.33 510.937 717.254 548.423 694.653C549.821 693.811 551.218 692.945 552.591 692.054C588.584 668.827 615.518 627.91 613.157 584.514C611.808 559.771 601.159 536.761 593.667 513.029C586.175 489.297 581.718 462.581 591.812 439.86C593.161 436.851 594.703 434.011 596.437 431.315C611.35 408.017 640.019 396.391 667.122 390.928C697.332 384.862 729.615 383.899 757.826 369.627C794.228 351.214 818.344 311.861 819.139 271.137C819.476 253.013 815.067 234.913 805.696 219.027C794.421 199.941 777.725 184.561 758.356 173.73C747.153 167.472 734.843 162.73 722.363 159.168C689.623 149.829 643.898 158.614 614.699 138.059C585.789 117.649 579.092 79.7164 550.567 59.9558C527.68 44.0943 495.494 49.1247 471.885 63.0607C448.275 76.9966 429.917 98.4179 409.199 117.456C388.552 136.423 366.774 152.14 342.514 164.969C328.998 172.165 314.736 178.399 300.185 183.935C255.905 200.759 209.409 200.326 167.875 208.991C145.398 213.708 125.45 222.493 104.514 239.269L104.563 239.245Z" stroke="url(#paint23_linear_29_2)" stroke-width="2" stroke-miterlimit="10"/>
<path d="M113.332 239.197C92.7096 253.735 74.2074 275.661 66.0163 302.715C57.1748 332.127 59.0539 365.318 70.3528 395.043C79.7725 419.81 96.3233 443.639 120.656 453.747C139.037 461.401 159.226 460.679 178.764 459.524C183.318 459.259 187.919 458.97 192.545 458.778C207.939 458.152 223.55 458.393 238.246 463.062C275.443 474.976 287.754 515.797 286.718 544.511C286.14 560.349 281.707 575.103 278.961 591.109C276.648 604.587 275.275 618.788 278.117 634.746C282.815 661.149 298.161 678.888 317.989 690.465C349.934 709.287 393.467 711.839 422.931 712.898C462.393 714.318 506.986 711.261 544.376 690.225C545.773 689.43 547.17 688.636 548.544 687.794C584.657 666.06 612.097 626.177 610.459 583.286C609.543 559.29 599.618 536.809 592.679 513.679C585.741 490.549 581.597 464.627 591.21 442.483C592.486 439.547 593.956 436.779 595.594 434.131C609.808 411.29 637.104 399.472 663.123 393.479C692.129 386.86 723.255 385.175 750.526 371.047C786.447 352.465 810.948 314.003 812.152 273.543C812.658 255.564 808.418 237.584 799.335 221.699C788.398 202.66 772.184 187.016 753.224 175.944C742.48 169.662 730.603 164.848 718.533 161.117C686.973 151.321 643.054 158.374 614.361 138.348C586.078 118.539 578.345 82.5564 550.399 63.8789C527.801 48.7636 496.578 53.4089 473.499 66.7431C450.443 80.0533 432.399 100.728 412.499 119.815C392.528 138.998 372.026 155.437 348.657 168.892C335.624 176.449 321.723 182.996 307.437 188.7C264.168 206.006 217.865 206.03 176.548 212.962C154.191 216.741 134.46 224.274 113.332 239.173V239.197Z" stroke="url(#paint24_linear_29_2)" stroke-width="2" stroke-miterlimit="10"/>
<path d="M122.077 239.149C100.467 252.435 80.688 273.784 71.8946 301.03C62.4508 330.587 64.4022 364.38 76.1829 394.49C85.5063 418.342 101.503 441.28 124.848 451.365C142.483 458.995 161.876 458.826 180.716 458.128C185.1 457.96 189.533 457.767 194.014 457.671C208.879 457.334 223.984 457.767 238.246 462.172C274.19 473.388 287.32 510.815 287.874 537.555C288.188 552.262 284.839 566.125 283.008 581.337C281.466 594.142 280.719 607.716 283.755 623C288.742 648.2 303.413 665.482 322.06 677.179C352.223 696.098 392.865 700.021 420.907 702.644C458.972 706.231 502.987 705.292 540.328 685.868C541.726 685.146 543.123 684.4 544.496 683.606C580.682 663.292 608.652 624.517 607.736 582.131C607.23 558.856 598.027 536.93 591.643 514.377C585.235 491.849 581.428 466.721 590.559 445.155C591.764 442.291 593.161 439.571 594.727 436.996C608.218 414.587 634.189 402.601 659.123 396.102C686.901 388.93 716.895 386.499 743.202 372.563C778.641 353.789 803.551 316.266 805.141 276.023C805.816 258.212 801.745 240.328 792.951 224.443C782.375 205.428 766.619 189.543 748.045 178.23C737.758 171.948 726.314 167.062 714.654 163.139C684.275 152.91 642.139 158.229 613.976 138.709C586.343 119.502 577.574 85.4929 550.182 67.8744C527.873 53.5294 497.614 57.7896 475.089 70.4739C452.587 83.1582 434.856 103.087 415.8 122.222C396.478 141.598 377.254 158.759 354.8 172.839C342.249 180.758 328.709 187.617 314.664 193.514C272.408 211.277 226.297 211.783 185.173 217.006C162.936 219.87 143.35 226.08 122.077 239.173V239.149Z" stroke="url(#paint25_linear_29_2)" stroke-width="2" stroke-miterlimit="10"/>
<path d="M130.846 239.125C108.176 251.111 87.1683 271.907 77.7967 299.369C67.7506 329.095 69.7743 363.489 82.0609 393.96C91.2879 416.898 106.706 438.921 129.087 449.006C146 456.636 164.574 456.997 182.715 456.756C186.931 456.708 191.219 456.612 195.507 456.612C209.866 456.564 224.441 457.189 238.27 461.305C272.986 471.823 286.91 505.857 289.079 530.624C290.259 544.223 287.994 557.148 287.103 571.589C286.356 583.696 286.212 596.669 289.44 611.255C294.74 635.227 308.689 652.124 326.179 663.893C354.535 682.956 392.31 688.203 418.955 692.391C455.671 698.168 499.084 699.347 536.329 681.512C537.726 680.838 539.124 680.14 540.497 679.442C576.778 660.596 605.255 622.856 605.086 581.024C604.99 558.495 596.533 537.074 590.679 515.123C584.825 493.172 581.308 468.863 589.956 447.875C591.089 445.083 592.414 442.435 593.907 439.908C606.7 417.933 631.297 405.778 655.148 398.774C681.721 391.048 710.534 387.871 735.926 374.103C770.883 355.113 796.179 318.552 798.179 278.55C799.022 260.907 795.119 243.12 786.591 227.211C776.376 208.22 761.078 192.118 742.913 180.541C733.084 174.259 722.074 169.277 710.823 165.161C681.648 154.474 641.295 158.061 613.638 139.07C586.632 120.441 576.851 88.4293 550.013 71.8699C527.969 58.2709 498.698 62.146 476.727 74.2286C454.779 86.3112 437.361 105.47 419.124 124.629C400.477 144.197 382.529 162.104 360.943 176.786C348.898 185.066 335.696 192.215 321.915 198.304C280.671 216.524 234.752 217.511 193.845 221.001C171.729 222.926 152.215 227.812 130.87 239.101L130.846 239.125Z" stroke="url(#paint26_linear_29_2)" stroke-width="2" stroke-miterlimit="10"/>
<path d="M139.591 239.077C115.837 249.715 93.6247 270.005 83.675 297.685C73.0266 327.554 75.1225 362.574 87.891 393.407C97.0216 415.43 111.886 436.562 133.279 446.623C149.445 454.229 167.248 455.143 184.666 455.36C188.738 455.408 192.833 455.432 196.953 455.505C210.781 455.769 224.851 456.515 238.246 460.415C271.733 470.162 286.428 500.85 290.211 523.668C292.283 536.135 291.102 548.17 291.126 561.793C291.15 573.226 291.608 585.573 295.053 599.485C300.667 622.23 313.893 638.741 330.251 650.583C356.775 669.79 391.732 676.409 416.932 682.113C452.298 690.128 495.108 693.354 532.282 677.131C533.679 676.529 535.076 675.88 536.449 675.23C572.852 657.876 601.785 621.171 602.388 579.845C602.701 558.038 594.967 537.17 589.667 515.821C584.367 494.472 581.163 470.957 589.33 450.546C590.414 447.851 591.643 445.251 593.04 442.796C605.11 421.278 628.358 408.907 651.149 401.422C676.493 393.142 704.174 389.219 728.603 375.62C763.053 356.437 788.783 320.791 791.168 281.053C792.18 263.555 788.446 245.912 780.206 229.979C770.353 211.036 755.489 194.694 737.733 182.852C728.362 176.594 717.786 171.515 706.944 167.207C678.95 156.087 640.404 157.916 613.253 139.455C586.873 121.428 576.056 91.3897 549.796 75.8893C528.041 63.0606 499.758 66.5265 478.317 77.9833C456.899 89.4401 439.819 107.853 422.401 127.06C404.428 146.845 387.757 165.45 367.062 180.782C355.499 189.422 342.658 196.884 329.143 203.142C288.886 221.795 243.184 223.287 202.47 225.069C180.474 226.079 160.984 229.545 139.615 239.101L139.591 239.077Z" stroke="url(#paint27_linear_29_2)" stroke-width="2" stroke-miterlimit="10"/>
<path d="M148.337 239.028C123.426 248.271 100.082 268.128 89.5537 296C78.303 326.014 80.4472 361.66 93.7456 392.853C102.756 413.961 117.066 434.203 137.496 444.24C152.938 451.846 169.923 453.29 186.618 453.964C190.521 454.132 194.448 454.253 198.423 454.421C211.745 454.999 225.285 455.914 238.222 459.548C270.456 468.598 285.971 495.868 291.368 516.736C294.307 528.072 294.235 539.192 295.174 552.045C295.969 562.804 297.053 574.501 300.667 587.763C306.569 609.281 319.097 625.431 334.299 637.321C359.016 656.672 391.13 664.687 414.884 671.884C448.926 682.186 491.086 687.433 528.186 672.775C529.584 672.221 530.981 671.643 532.378 671.042C568.877 655.18 598.293 619.51 599.642 578.689C600.34 557.629 593.378 537.291 588.608 516.519C583.838 495.748 580.971 473.051 588.632 453.218C589.644 450.594 590.824 448.067 592.125 445.66C603.496 424.576 625.395 412.036 647.078 404.045C671.217 395.212 697.718 390.518 721.231 377.112C755.2 357.712 781.315 323.029 784.11 283.532C785.29 266.202 781.725 248.656 773.775 232.722C764.258 213.804 749.876 197.269 732.53 185.138C723.592 178.88 713.474 173.705 703.042 169.204C676.228 157.651 639.465 157.724 612.844 139.768C587.09 122.342 575.261 94.2779 549.556 79.8365C528.066 67.778 500.77 70.8347 479.883 81.6898C459.02 92.5208 442.276 110.211 425.677 129.418C408.404 149.42 392.961 168.699 373.182 184.681C362.076 193.658 349.645 201.433 336.346 207.907C297.101 227.018 251.593 228.992 211.095 229.04C189.22 229.112 169.706 231.11 148.385 239.028H148.337Z" stroke="url(#paint28_linear_29_2)" stroke-width="2" stroke-miterlimit="10"/>
<path d="M157.106 238.98C131.015 246.731 106.562 266.226 95.4558 294.291C83.6269 324.449 85.771 360.721 99.5995 392.275C108.465 412.493 122.27 431.821 141.711 441.833C156.407 449.415 172.597 451.413 188.593 452.568C192.327 452.833 196.11 453.074 199.892 453.314C212.685 454.205 225.742 455.288 238.222 458.634C269.203 466.985 285.489 490.838 292.524 509.756C296.306 519.937 297.342 530.19 299.245 542.249C300.811 552.31 302.498 563.406 306.328 575.97C312.52 596.26 324.349 612.025 338.394 624.011C361.281 643.507 390.576 652.99 412.909 661.607C445.601 674.243 487.158 681.464 524.163 668.394C525.56 667.889 526.957 667.383 528.355 666.83C564.974 652.461 594.799 617.825 596.967 577.51C598.051 557.196 591.836 537.387 587.62 517.217C583.404 497.048 580.85 475.121 588.029 455.89C588.969 453.338 590.077 450.883 591.306 448.525C601.954 427.898 622.504 415.165 643.126 406.645C666.037 397.258 691.406 391.818 713.955 378.58C747.418 358.964 773.967 325.244 777.147 285.987C778.496 268.802 775.099 251.376 767.414 235.418C758.259 216.524 744.31 199.796 727.374 187.377C718.894 181.143 709.209 175.872 699.163 171.178C673.53 159.192 638.573 157.507 612.458 140.081C587.355 123.257 574.466 97.1663 549.314 83.8081C528.114 72.5197 501.782 75.1914 481.449 85.3966C461.14 95.6018 444.709 112.57 428.929 131.802C412.33 152.019 398.165 172.021 379.277 188.604C368.653 197.943 356.583 206.006 343.549 212.673C305.292 232.217 260.024 234.696 219.695 233.035C197.941 232.193 178.379 232.626 157.106 238.956V238.98Z" stroke="url(#paint29_linear_29_2)" stroke-width="2" stroke-miterlimit="10"/>
<path d="M165.851 238.956C138.58 245.118 113.043 264.349 101.334 292.63C88.9031 322.933 91.0713 359.855 105.454 391.746C114.175 411.073 127.449 429.486 145.928 439.475C159.901 447.056 175.295 449.584 190.569 451.196C194.134 451.581 197.748 451.894 201.386 452.255C213.649 453.459 226.2 454.686 238.246 457.791C267.999 465.421 285.031 485.879 293.704 502.848C298.33 511.898 300.474 521.237 303.317 532.525C305.654 541.912 307.942 552.382 311.99 564.272C318.47 583.359 329.601 598.715 342.49 610.773C363.545 630.437 390.022 641.389 410.909 651.402C442.252 666.421 483.208 675.567 520.14 664.086C521.537 663.653 522.934 663.195 524.332 662.714C561.071 649.837 591.33 616.237 594.269 576.451C595.715 556.859 590.27 537.604 586.608 518.011C582.922 498.419 580.706 477.311 587.379 458.657C588.27 456.178 589.282 453.796 590.415 451.509C600.364 431.315 619.541 418.414 639.079 409.388C660.762 399.448 684.973 393.238 706.608 380.193C739.565 360.336 766.523 327.578 770.112 288.586C771.63 271.57 768.402 254.24 761.006 238.282C752.213 219.436 738.697 202.492 722.171 189.783C714.124 183.574 704.897 178.206 695.26 173.296C670.808 160.877 637.658 157.459 612.049 140.538C587.572 124.292 573.647 100.223 549.074 87.8997C528.138 77.3816 502.794 79.6441 482.991 89.2476C463.236 98.827 447.143 115.074 432.182 134.329C416.282 154.763 403.393 175.511 385.372 192.696C375.254 202.396 363.521 210.772 350.729 217.607C313.483 237.584 268.408 240.545 228.296 237.199C206.662 235.418 187.052 234.263 165.827 239.053L165.851 238.956Z" stroke="url(#paint30_linear_29_2)" stroke-width="2" stroke-miterlimit="10"/>
<path d="M174.62 238.908C146.144 243.409 119.523 262.472 107.237 290.945C94.2031 321.392 96.3473 358.964 111.308 391.192C119.861 409.629 132.653 427.127 150.143 437.068C163.394 444.625 177.969 447.706 192.544 449.776C195.941 450.258 199.386 450.691 202.855 451.148C214.612 452.664 226.634 454.06 238.246 456.877C266.746 463.808 284.501 480.849 294.885 495.868C300.354 503.787 303.63 512.211 307.388 522.729C310.496 531.418 313.387 541.286 317.651 552.478C324.421 570.337 334.828 585.308 346.609 597.439C365.858 617.248 389.444 629.715 408.934 641.1C438.879 658.598 479.281 669.574 516.116 659.657C517.514 659.272 518.911 658.887 520.308 658.454C557.168 647.069 587.813 614.504 591.595 575.223C593.402 556.377 588.752 537.652 585.62 518.637C582.488 499.647 580.585 479.333 586.777 461.257C587.596 458.85 588.535 456.54 589.595 454.301C598.846 434.565 616.674 421.447 635.128 411.94C655.606 401.446 678.637 394.442 699.332 381.613C731.783 361.515 759.175 329.744 763.15 290.993C764.836 274.145 761.777 256.912 754.67 240.93C746.238 222.108 733.132 204.995 717.063 191.974C709.474 185.812 700.681 180.3 691.454 175.222C668.206 162.393 636.814 157.194 611.735 140.803C587.885 125.158 572.924 103.087 548.929 91.799C528.258 82.0751 503.902 83.9043 484.653 92.8821C465.428 101.836 449.696 117.36 435.531 136.615C420.329 157.291 408.693 178.712 391.54 196.523C381.927 206.584 370.532 215.249 358.004 222.301C321.747 242.711 276.888 246.177 236.969 241.099C215.455 238.403 195.797 235.563 174.62 238.908Z" stroke="url(#paint31_linear_29_2)" stroke-width="2" stroke-miterlimit="10"/>
<path d="M183.366 238.86C153.709 241.58 125.98 260.57 113.115 289.26C99.4793 319.852 101.599 358.073 117.162 390.639C125.546 408.185 137.857 424.744 154.36 434.685C166.863 442.242 180.643 445.853 194.52 448.38C197.772 448.982 201.049 449.511 204.349 450.041C215.576 451.846 227.092 453.435 238.27 455.986C265.517 462.22 283.972 475.843 296.065 488.912C302.353 495.7 306.762 503.233 311.46 512.957C315.339 520.972 318.832 530.214 323.289 540.733C330.348 557.364 340.056 571.974 350.681 584.153C368.099 604.13 388.793 618.138 406.91 630.847C435.434 650.848 475.306 663.653 512.069 655.301C513.466 654.988 514.864 654.651 516.261 654.266C553.217 644.373 584.247 612.843 588.897 574.068C591.065 555.944 587.186 537.772 584.608 519.359C582.007 500.947 580.417 481.451 586.126 463.953C586.873 461.642 587.74 459.38 588.728 457.189C597.257 437.886 613.735 424.6 631.105 414.587C650.354 403.54 672.229 395.741 692.008 383.129C723.929 362.767 751.755 332.007 756.14 293.472C757.995 276.769 755.104 259.656 748.262 243.674C740.167 224.876 727.495 207.619 711.859 194.236C704.704 188.099 696.369 182.491 687.551 177.219C665.459 163.958 635.899 157.002 611.326 141.14C588.126 126.097 572.081 106.024 548.688 95.7702C528.283 86.8407 504.938 88.2367 486.219 96.5886C467.548 104.941 452.178 119.743 438.783 138.998C424.28 159.89 413.897 182.033 397.635 200.446C388.504 210.868 377.47 219.821 365.184 227.066C329.914 247.886 285.272 251.881 245.57 245.094C224.177 241.459 204.494 236.886 183.366 238.836V238.86Z" stroke="url(#paint32_linear_29_2)" stroke-width="2" stroke-miterlimit="10"/>
<path d="M192.111 238.812C161.322 239.654 132.436 258.669 118.993 287.551C104.755 318.287 106.827 357.207 122.992 390.061C131.207 406.741 143.012 422.361 158.527 432.278C170.308 439.811 183.269 443.975 196.423 446.96C199.507 447.658 202.614 448.308 205.746 448.934C216.467 451.076 227.453 452.785 238.197 455.095C264.216 460.655 283.345 470.884 297.173 481.956C304.256 487.636 309.797 494.255 315.459 503.161C320.108 510.478 324.204 519.119 328.878 528.963C336.226 544.391 345.236 558.592 354.704 570.843C370.291 590.988 388.07 606.561 404.862 620.569C431.869 643.122 471.306 657.683 507.973 650.92C509.371 650.655 510.768 650.366 512.165 650.054C549.266 641.726 580.609 611.158 586.126 572.913C588.632 555.535 585.572 537.892 583.524 520.057C581.476 502.246 580.199 483.545 585.427 466.624C586.126 464.386 586.921 462.196 587.788 460.077C595.618 441.207 610.747 427.753 627.033 417.211C645.078 405.609 665.748 397.041 684.612 384.621C716.003 363.994 744.286 334.221 749.056 295.951C751.08 279.416 748.358 262.399 741.805 246.418C734.071 227.644 721.809 210.242 706.631 196.523C699.886 190.433 692.008 184.705 683.624 179.217C662.713 165.546 634.959 156.809 610.916 141.477C588.342 127.012 571.262 108.984 548.447 99.7415C528.307 91.6062 505.95 92.593 487.785 100.319C469.668 108.045 454.635 122.126 442.059 141.381C428.255 162.513 419.124 185.355 403.754 204.393C395.105 215.176 384.433 224.419 372.411 231.856C338.129 253.085 293.704 257.61 254.194 249.089C232.921 244.54 213.239 238.186 192.111 238.764V238.812Z" stroke="url(#paint33_linear_29_2)" stroke-width="2" stroke-miterlimit="10"/>
<path d="M200.88 238.788C168.983 237.681 138.941 256.816 124.896 285.891C110.055 316.771 112.031 356.365 128.871 389.532C136.893 405.321 148.24 420.027 162.767 429.919C173.801 437.453 185.991 442.122 198.423 445.588C201.338 446.406 204.277 447.153 207.264 447.851C217.455 450.306 227.935 452.183 238.222 454.205C262.988 459.067 282.791 465.975 298.354 475C306.256 479.573 312.929 485.254 319.53 493.389C324.927 500.032 329.649 508.071 334.539 517.193C342.152 531.394 350.464 545.234 358.799 557.533C372.556 577.823 387.372 594.984 402.863 610.268C428.303 635.396 467.355 651.714 503.95 646.516C505.348 646.323 506.745 646.082 508.142 645.818C545.339 638.982 577.02 609.425 583.452 571.709C586.295 555.054 584.03 537.941 582.536 520.731C581.043 503.498 580.079 485.615 584.801 469.272C585.427 467.106 586.15 464.988 586.945 462.918C594.052 444.505 607.833 430.858 623.034 419.81C639.85 407.655 659.34 398.269 677.312 386.09C708.173 365.174 736.89 336.436 742.07 298.407C744.262 282.04 741.709 265.119 735.421 249.113C728.049 230.388 716.172 212.818 701.452 198.761C695.14 192.72 687.72 186.871 679.745 181.191C660.014 167.111 634.044 156.592 610.531 141.79C588.583 127.926 570.467 111.921 548.23 103.689C528.355 96.348 506.986 96.9015 489.375 104.002C471.812 111.102 457.141 124.485 445.336 143.74C432.254 165.113 424.352 188.628 409.873 208.293C401.706 219.436 391.395 228.968 379.638 236.622C346.344 258.284 302.136 263.314 262.843 253.085C241.691 247.597 222.032 239.438 200.88 238.716V238.788Z" stroke="url(#paint34_linear_29_2)" stroke-width="2" stroke-miterlimit="10"/>
<path d="M209.625 238.74C176.692 235.611 145.398 254.914 130.774 284.206C115.331 315.231 117.187 355.546 134.701 388.978C142.531 403.901 153.396 417.668 166.959 427.536C177.271 435.046 188.642 440.269 200.374 444.216C203.121 445.131 205.915 445.997 208.71 446.791C218.395 449.559 228.344 451.629 238.198 453.362C261.711 457.574 282.213 461.137 299.486 468.117C308.183 471.631 316.013 476.348 323.554 483.689C329.721 489.658 335.021 497.071 340.153 505.52C348.031 518.517 355.668 531.947 362.871 544.319C374.772 564.777 386.601 583.503 400.839 600.086C424.641 627.814 463.38 645.914 499.879 642.207C501.276 642.063 502.698 641.894 504.095 641.702C541.413 636.358 573.382 607.813 580.73 570.626C583.886 554.692 582.464 538.133 581.501 521.501C580.537 504.87 579.911 487.781 584.151 472.016C584.705 469.922 585.355 467.876 586.078 465.854C592.486 447.875 604.894 434.035 619.035 422.506C634.646 409.797 652.932 399.616 670.013 387.654C700.32 366.425 729.519 338.746 735.084 300.958C737.445 284.735 735.06 267.935 729.061 251.929C722.05 233.228 710.534 215.561 696.321 201.12C690.418 195.127 683.48 189.158 675.915 183.261C657.341 168.795 633.201 156.472 610.194 142.199C588.873 128.937 569.696 114.953 548.062 107.757C528.451 101.234 508.07 101.33 491.013 107.829C473.981 114.303 459.694 126.964 448.685 146.243C436.326 167.857 429.652 192.07 416.065 212.336C408.38 223.841 398.43 233.661 386.914 241.508C354.584 263.579 310.617 269.139 271.54 257.176C250.509 250.774 230.922 240.761 209.698 238.74H209.625Z" stroke="url(#paint35_linear_29_2)" stroke-width="2" stroke-miterlimit="10"/>
<path d="M218.395 238.692C184.474 233.469 151.878 253.037 136.677 282.521C120.632 313.69 122.342 354.752 140.579 388.424C148.192 402.505 158.624 415.309 171.2 425.154C180.764 432.639 191.34 438.416 202.374 442.82C204.952 443.855 207.578 444.818 210.228 445.684C219.382 448.789 228.826 451.004 238.246 452.448C260.506 455.962 281.707 456.251 300.715 461.137C310.255 463.592 319.193 467.371 327.697 473.893C334.612 479.212 340.538 485.976 345.887 493.75C354.029 505.544 360.968 518.589 367.039 531.009C377.085 551.636 385.878 571.926 398.936 589.809C421.004 620.112 459.526 639.945 495.928 637.827C497.325 637.754 498.747 637.634 500.144 637.49C537.582 633.639 569.792 606.08 578.128 569.447C581.597 554.235 580.995 538.229 580.585 522.175C580.176 506.121 579.862 489.851 583.597 474.663C584.103 472.642 584.657 470.668 585.307 468.694C590.993 451.172 602.075 437.14 615.108 425.105C629.491 411.843 646.596 400.844 662.761 389.147C692.49 367.605 722.171 340.961 728.145 303.437C730.675 287.383 728.458 270.679 722.749 254.649C716.075 235.972 704.921 218.185 691.213 203.383C685.72 197.462 679.24 191.372 672.084 185.259C654.666 170.384 632.358 156.304 609.856 142.536C589.186 129.876 568.949 117.938 547.893 111.728C528.548 106.024 509.154 105.663 492.627 111.535C476.149 117.384 462.224 129.346 451.985 148.602C440.373 170.456 434.88 195.343 422.184 216.259C414.981 228.125 405.368 238.21 394.142 246.273C362.775 268.706 319.049 274.843 280.165 261.172C259.278 253.831 239.788 241.965 218.467 238.668L218.395 238.692Z" stroke="url(#paint36_linear_29_2)" stroke-width="2" stroke-miterlimit="10"/>
<path d="M211.673 444.601C220.298 447.995 229.236 450.378 238.222 451.581C269.781 455.793 303.413 447.008 331.72 464.145C350.945 475.771 362.871 496.951 371.062 517.747C379.277 538.542 384.987 560.349 396.864 579.58C417.944 613.71 458.49 635.685 496.048 633.326C533.583 630.967 566.034 604.371 575.381 568.34C583.404 537.411 575.478 502.222 584.391 471.655C594.847 435.744 626.238 412.59 655.389 390.711C684.54 368.832 714.726 343.271 721.086 305.988C726.94 271.618 710.462 234.022 685.985 205.741C636.429 148.529 500.216 59.715 455.213 151.081C444.324 173.176 440.06 198.761 428.255 220.279C402.983 266.347 341.405 286.204 288.741 265.264C267.975 257.008 248.677 243.241 227.164 238.716C192.303 231.375 158.359 251.207 142.579 280.908C125.931 312.246 127.449 354.03 146.433 387.943C160.816 413.6 184.835 434.083 211.697 444.674L211.673 444.601Z" stroke="url(#paint37_linear_29_2)" stroke-width="2" stroke-miterlimit="10"/>
<g filter="url(#filter1_d_29_2)">
<path d="M176.042 266.9C146.939 288.899 105.382 283.123 83.3621 254.072C61.3425 224.996 67.1244 183.477 96.2028 161.478C125.305 139.479 166.863 145.256 188.883 174.307C210.902 203.358 205.12 244.901 176.042 266.9ZM107.02 175.751C85.8194 191.781 81.6034 222.06 97.6483 243.241C113.693 264.421 144 268.633 165.201 252.603C186.401 236.574 190.617 206.295 174.572 185.114C158.527 163.934 128.22 159.721 107.02 175.751Z" fill="url(#paint38_linear_29_2)"/>
</g>
<g filter="url(#filter2_d_29_2)">
<path d="M221.719 294.58C228.417 303.437 226.682 316.049 217.816 322.74C208.951 329.432 196.327 327.699 189.629 318.841C182.932 309.984 184.667 297.372 193.532 290.681C202.398 283.989 215.022 285.722 221.719 294.58Z" fill="url(#paint39_linear_29_2)"/>
</g>
<g filter="url(#filter3_d_29_2)">
<path d="M587.692 248.632C601.277 248.632 612.289 237.63 612.289 224.058C612.289 210.486 601.277 199.483 587.692 199.483C574.107 199.483 563.095 210.486 563.095 224.058C563.095 237.63 574.107 248.632 587.692 248.632Z" fill="url(#paint40_linear_29_2)"/>
</g>
</g>
<defs>
<filter id="filter0_d_29_2" x="-21.691" y="-17.9286" width="922.85" height="778.368" filterUnits="userSpaceOnUse" color-interpolation-filters="sRGB">
<feFlood flood-opacity="0" result="BackgroundImageFix"/>
<feColorMatrix in="SourceAlpha" type="matrix" values="0 0 0 0 0 0 0 0 0 0 0 0 0 0 0 0 0 0 127 0" result="hardAlpha"/>
<feOffset dy="4"/>
<feGaussianBlur stdDeviation="11.2"/>
<feComposite in2="hardAlpha" operator="out"/>
<feColorMatrix type="matrix" values="0 0 0 0 1 0 0 0 0 1 0 0 0 0 1 0 0 0 0.25 0"/>
<feBlend mode="normal" in2="BackgroundImageFix" result="effect1_dropShadow_29_2"/>
<feBlend mode="normal" in="SourceGraphic" in2="effect1_dropShadow_29_2" result="shape"/>
</filter>
<filter id="filter1_d_29_2" x="54.9078" y="133.037" width="162.429" height="162.306" filterUnits="userSpaceOnUse" color-interpolation-filters="sRGB">
<feFlood flood-opacity="0" result="BackgroundImageFix"/>
<feColorMatrix in="SourceAlpha" type="matrix" values="0 0 0 0 0 0 0 0 0 0 0 0 0 0 0 0 0 0 127 0" result="hardAlpha"/>
<feOffset/>
<feGaussianBlur stdDeviation="7.54"/>
<feColorMatrix type="matrix" values="0 0 0 0 0.180392 0 0 0 0 0.0156863 0 0 0 0 0.447059 0 0 0 0.45 0"/>
<feBlend mode="normal" in2="BackgroundImageFix" result="effect1_dropShadow_29_2"/>
<feBlend mode="normal" in="SourceGraphic" in2="effect1_dropShadow_29_2" result="shape"/>
</filter>
<filter id="filter2_d_29_2" x="170.474" y="271.529" width="70.4002" height="70.3626" filterUnits="userSpaceOnUse" color-interpolation-filters="sRGB">
<feFlood flood-opacity="0" result="BackgroundImageFix"/>
<feColorMatrix in="SourceAlpha" type="matrix" values="0 0 0 0 0 0 0 0 0 0 0 0 0 0 0 0 0 0 127 0" result="hardAlpha"/>
<feOffset/>
<feGaussianBlur stdDeviation="7.54"/>
<feColorMatrix type="matrix" values="0 0 0 0 0.180392 0 0 0 0 0.0156863 0 0 0 0 0.447059 0 0 0 0.45 0"/>
<feBlend mode="normal" in2="BackgroundImageFix" result="effect1_dropShadow_29_2"/>
<feBlend mode="normal" in="SourceGraphic" in2="effect1_dropShadow_29_2" result="shape"/>
</filter>
<filter id="filter3_d_29_2" x="548.015" y="184.403" width="79.3548" height="79.3087" filterUnits="userSpaceOnUse" color-interpolation-filters="sRGB">
<feFlood flood-opacity="0" result="BackgroundImageFix"/>
<feColorMatrix in="SourceAlpha" type="matrix" values="0 0 0 0 0 0 0 0 0 0 0 0 0 0 0 0 0 0 127 0" result="hardAlpha"/>
<feOffset/>
<feGaussianBlur stdDeviation="7.54"/>
<feColorMatrix type="matrix" values="0 0 0 0 0.180392 0 0 0 0 0.0156863 0 0 0 0 0.447059 0 0 0 0.45 0"/>
<feBlend mode="normal" in2="BackgroundImageFix" result="effect1_dropShadow_29_2"/>
<feBlend mode="normal" in="SourceGraphic" in2="effect1_dropShadow_29_2" result="shape"/>
</filter>
<linearGradient id="paint0_linear_29_2" x1="0.28517" y1="367.281" x2="879.318" y2="367.225" gradientUnits="userSpaceOnUse">
<stop stop-color="#00D3FF"/>
<stop offset="0.01" stop-color="#00CAFE" stop-opacity="0.95"/>
<stop offset="0.12" stop-color="#0085F8" stop-opacity="0.55"/>
<stop offset="0.2" stop-color="#0052F4" stop-opacity="0.25"/>
<stop offset="0.26" stop-color="#0033F1" stop-opacity="0.07"/>
<stop offset="0.29" stop-color="#0026F0" stop-opacity="0.03"/>
<stop offset="0.31" stop-color="#001FF0" stop-opacity="0.26"/>
<stop offset="0.34" stop-color="#0019F0" stop-opacity="0.46"/>
<stop offset="0.36" stop-color="#0014EF" stop-opacity="0.62"/>
<stop offset="0.39" stop-color="#0010EF" stop-opacity="0.76"/>
<stop offset="0.41" stop-color="#000DEF" stop-opacity="0.87"/>
<stop offset="0.44" stop-color="#000BEF" stop-opacity="0.94"/>
<stop offset="0.46" stop-color="#000AEF" stop-opacity="0.99"/>
<stop offset="0.5" stop-color="#000AEF"/>
<stop offset="1" stop-color="#AA0AFF"/>
</linearGradient>
<linearGradient id="paint1_linear_29_2" x1="16.769" y1="377.421" x2="862.442" y2="357.197" gradientUnits="userSpaceOnUse">
<stop stop-color="#09C8FF"/>
<stop offset="0.1" stop-color="#0789F9" stop-opacity="0.63"/>
<stop offset="0.19" stop-color="#0553F4" stop-opacity="0.32"/>
<stop offset="0.26" stop-color="#0432F2" stop-opacity="0.13"/>
<stop offset="0.29" stop-color="#0426F1" stop-opacity="0.06"/>
<stop offset="0.31" stop-color="#031FF0" stop-opacity="0.26"/>
<stop offset="0.33" stop-color="#021AF0" stop-opacity="0.46"/>
<stop offset="0.36" stop-color="#0115EF" stop-opacity="0.62"/>
<stop offset="0.38" stop-color="#0111EF" stop-opacity="0.76"/>
<stop offset="0.41" stop-color="#000DEF" stop-opacity="0.87"/>
<stop offset="0.44" stop-color="#000BEF" stop-opacity="0.94"/>
<stop offset="0.46" stop-color="#000AEF" stop-opacity="0.99"/>
<stop offset="0.5" stop-color="#030AEF"/>
<stop offset="0.56" stop-color="#070AEF"/>
<stop offset="0.62" stop-color="#130AF0" stop-opacity="0.99"/>
<stop offset="0.67" stop-color="#280BF2" stop-opacity="0.97"/>
<stop offset="0.73" stop-color="#440CF6" stop-opacity="0.95"/>
<stop offset="0.74" stop-color="#4E0DF7" stop-opacity="0.94"/>
<stop offset="0.82" stop-color="#640FF9" stop-opacity="0.96"/>
<stop offset="0.99" stop-color="#9E14FE"/>
<stop offset="1" stop-color="#A115FF"/>
</linearGradient>
<linearGradient id="paint2_linear_29_2" x1="32.6725" y1="382.52" x2="841.85" y2="348.807" gradientUnits="userSpaceOnUse">
<stop stop-color="#12BDFF"/>
<stop offset="0.08" stop-color="#0E8CFA" stop-opacity="0.72"/>
<stop offset="0.18" stop-color="#0B54F6" stop-opacity="0.39"/>
<stop offset="0.25" stop-color="#0831F3" stop-opacity="0.19"/>
<stop offset="0.29" stop-color="#0824F2" stop-opacity="0.11"/>
<stop offset="0.3" stop-color="#061FF1" stop-opacity="0.26"/>
<stop offset="0.33" stop-color="#041AF0" stop-opacity="0.46"/>
<stop offset="0.35" stop-color="#0315F0" stop-opacity="0.62"/>
<stop offset="0.38" stop-color="#0211EF" stop-opacity="0.76"/>
<stop offset="0.41" stop-color="#010EEF" stop-opacity="0.87"/>
<stop offset="0.43" stop-color="#000CEF" stop-opacity="0.94"/>
<stop offset="0.46" stop-color="#000BEF" stop-opacity="0.99"/>
<stop offset="0.5" stop-color="#030BEF"/>
<stop offset="0.57" stop-color="#070BEF" stop-opacity="0.99"/>
<stop offset="0.62" stop-color="#140CF0" stop-opacity="0.97"/>
<stop offset="0.68" stop-color="#2A0DF3" stop-opacity="0.94"/>
<stop offset="0.74" stop-color="#4A10F7" stop-opacity="0.89"/>
<stop offset="0.83" stop-color="#5F14F9" stop-opacity="0.92"/>
<stop offset="1" stop-color="#9720FF"/>
</linearGradient>
<linearGradient id="paint3_linear_29_2" x1="48.5406" y1="385.896" x2="827.013" y2="344.944" gradientUnits="userSpaceOnUse">
<stop stop-color="#1BB1FF"/>
<stop offset="0.06" stop-color="#1790FC" stop-opacity="0.81"/>
<stop offset="0.17" stop-color="#1156F6" stop-opacity="0.47"/>
<stop offset="0.25" stop-color="#0D31F3" stop-opacity="0.25"/>
<stop offset="0.29" stop-color="#0C23F2" stop-opacity="0.17"/>
<stop offset="0.3" stop-color="#0A20F1" stop-opacity="0.26"/>
<stop offset="0.32" stop-color="#081AF0" stop-opacity="0.46"/>
<stop offset="0.35" stop-color="#0515F0" stop-opacity="0.62"/>
<stop offset="0.38" stop-color="#0411EF" stop-opacity="0.76"/>
<stop offset="0.4" stop-color="#020EEF" stop-opacity="0.87"/>
<stop offset="0.43" stop-color="#010CEF" stop-opacity="0.94"/>
<stop offset="0.46" stop-color="#010BEF" stop-opacity="0.99"/>
<stop offset="0.5" stop-color="#020BEF"/>
<stop offset="0.57" stop-color="#060BEF" stop-opacity="0.99"/>
<stop offset="0.63" stop-color="#140CF0" stop-opacity="0.95"/>
<stop offset="0.69" stop-color="#2C0FF3" stop-opacity="0.9"/>
<stop offset="0.74" stop-color="#4512F6" stop-opacity="0.83"/>
<stop offset="0.83" stop-color="#5919F8" stop-opacity="0.88"/>
<stop offset="1" stop-color="#8E2CFF"/>
</linearGradient>
<linearGradient id="paint4_linear_29_2" x1="62.336" y1="384.674" x2="806.237" y2="342.472" gradientUnits="userSpaceOnUse">
<stop stop-color="#24A6FF"/>
<stop offset="0.03" stop-color="#2196FD" stop-opacity="0.91"/>
<stop offset="0.16" stop-color="#1857F7" stop-opacity="0.54"/>
<stop offset="0.25" stop-color="#1230F3" stop-opacity="0.31"/>
<stop offset="0.29" stop-color="#0F1FF1" stop-opacity="0.26"/>
<stop offset="0.32" stop-color="#0B1AF1" stop-opacity="0.46"/>
<stop offset="0.34" stop-color="#0816F0" stop-opacity="0.62"/>
<stop offset="0.37" stop-color="#0512EF" stop-opacity="0.76"/>
<stop offset="0.4" stop-color="#030FEF" stop-opacity="0.87"/>
<stop offset="0.43" stop-color="#020DEF" stop-opacity="0.94"/>
<stop offset="0.46" stop-color="#010CEF" stop-opacity="0.99"/>
<stop offset="0.5" stop-color="#020CEF"/>
<stop offset="0.57" stop-color="#060CEF" stop-opacity="0.98"/>
<stop offset="0.64" stop-color="#160EF1" stop-opacity="0.93"/>
<stop offset="0.71" stop-color="#2F12F4" stop-opacity="0.84"/>
<stop offset="0.74" stop-color="#4115F6" stop-opacity="0.78"/>
<stop offset="0.83" stop-color="#541EF8" stop-opacity="0.84"/>
<stop offset="1" stop-color="#8437FF"/>
</linearGradient>
<linearGradient id="paint5_linear_29_2" x1="75.7194" y1="382.472" x2="790.322" y2="346.466" gradientUnits="userSpaceOnUse">
<stop stop-color="#2D9BFF"/>
<stop offset="0.14" stop-color="#1F5AF8" stop-opacity="0.62"/>
<stop offset="0.24" stop-color="#1630F3" stop-opacity="0.37"/>
<stop offset="0.29" stop-color="#1320F2" stop-opacity="0.28"/>
<stop offset="0.31" stop-color="#0E1BF1" stop-opacity="0.46"/>
<stop offset="0.34" stop-color="#0A16F0" stop-opacity="0.62"/>
<stop offset="0.37" stop-color="#0712F0" stop-opacity="0.76"/>
<stop offset="0.4" stop-color="#040FEF" stop-opacity="0.87"/>
<stop offset="0.43" stop-color="#020DEF" stop-opacity="0.94"/>
<stop offset="0.46" stop-color="#010CEF" stop-opacity="0.99"/>
<stop offset="0.5" stop-color="#020CEF"/>
<stop offset="0.57" stop-color="#050CEF" stop-opacity="0.98"/>
<stop offset="0.63" stop-color="#100FF0" stop-opacity="0.93"/>
<stop offset="0.69" stop-color="#2212F2" stop-opacity="0.84"/>
<stop offset="0.74" stop-color="#3C18F6" stop-opacity="0.72"/>
<stop offset="0.83" stop-color="#4E24F8" stop-opacity="0.81"/>
<stop offset="1" stop-color="#7B42FF"/>
</linearGradient>
<linearGradient id="paint6_linear_29_2" x1="89.4797" y1="379.416" x2="777.644" y2="351.81" gradientUnits="userSpaceOnUse">
<stop stop-color="#3690FF"/>
<stop offset="0.12" stop-color="#285DF9" stop-opacity="0.7"/>
<stop offset="0.23" stop-color="#1B30F4" stop-opacity="0.44"/>
<stop offset="0.29" stop-color="#171FF3" stop-opacity="0.33"/>
<stop offset="0.31" stop-color="#121BF2" stop-opacity="0.46"/>
<stop offset="0.33" stop-color="#0D16F1" stop-opacity="0.62"/>
<stop offset="0.36" stop-color="#0812F0" stop-opacity="0.76"/>
<stop offset="0.39" stop-color="#050FEF" stop-opacity="0.86"/>
<stop offset="0.42" stop-color="#020DEF" stop-opacity="0.94"/>
<stop offset="0.46" stop-color="#010CEF" stop-opacity="0.99"/>
<stop offset="0.5" stop-color="#020CEF"/>
<stop offset="0.56" stop-color="#040CEF" stop-opacity="0.98"/>
<stop offset="0.61" stop-color="#0C0FF0" stop-opacity="0.93"/>
<stop offset="0.67" stop-color="#1A12F2" stop-opacity="0.84"/>
<stop offset="0.72" stop-color="#2D18F4" stop-opacity="0.72"/>
<stop offset="0.74" stop-color="#371BF6" stop-opacity="0.67"/>
<stop offset="0.82" stop-color="#4628F8" stop-opacity="0.75"/>
<stop offset="0.98" stop-color="#6D49FE" stop-opacity="0.98"/>
<stop offset="1" stop-color="#714DFF"/>
</linearGradient>
<linearGradient id="paint7_linear_29_2" x1="101.27" y1="372.732" x2="758.251" y2="360.05" gradientUnits="userSpaceOnUse">
<stop stop-color="#3F85FF"/>
<stop offset="0.09" stop-color="#3260FA" stop-opacity="0.79"/>
<stop offset="0.23" stop-color="#2130F5" stop-opacity="0.5"/>
<stop offset="0.29" stop-color="#1B1DF3" stop-opacity="0.39"/>
<stop offset="0.3" stop-color="#181BF2" stop-opacity="0.45"/>
<stop offset="0.33" stop-color="#1116F1" stop-opacity="0.62"/>
<stop offset="0.36" stop-color="#0B13F0" stop-opacity="0.76"/>
<stop offset="0.39" stop-color="#0610EF" stop-opacity="0.86"/>
<stop offset="0.42" stop-color="#030EEF" stop-opacity="0.94"/>
<stop offset="0.46" stop-color="#010DEF" stop-opacity="0.99"/>
<stop offset="0.5" stop-color="#020DEF"/>
<stop offset="0.56" stop-color="#040DEF" stop-opacity="0.98"/>
<stop offset="0.61" stop-color="#0A0FF0" stop-opacity="0.93"/>
<stop offset="0.66" stop-color="#1513F1" stop-opacity="0.85"/>
<stop offset="0.7" stop-color="#2418F3" stop-opacity="0.73"/>
<stop offset="0.74" stop-color="#331DF5" stop-opacity="0.61"/>
<stop offset="0.81" stop-color="#3F2AF7" stop-opacity="0.7"/>
<stop offset="0.95" stop-color="#5D4CFD" stop-opacity="0.92"/>
<stop offset="1" stop-color="#6858FF"/>
</linearGradient>
<linearGradient id="paint8_linear_29_2" x1="114.982" y1="363.292" x2="743.374" y2="367.398" gradientUnits="userSpaceOnUse">
<stop stop-color="#487AFF"/>
<stop offset="0.06" stop-color="#3F65FC" stop-opacity="0.88"/>
<stop offset="0.22" stop-color="#2830F5" stop-opacity="0.57"/>
<stop offset="0.29" stop-color="#1E1BF2" stop-opacity="0.45"/>
<stop offset="0.32" stop-color="#1517F1" stop-opacity="0.62"/>
<stop offset="0.35" stop-color="#0E13F0" stop-opacity="0.76"/>
<stop offset="0.38" stop-color="#0810EF" stop-opacity="0.86"/>
<stop offset="0.42" stop-color="#040EEF" stop-opacity="0.94"/>
<stop offset="0.45" stop-color="#010DEF" stop-opacity="0.99"/>
<stop offset="0.5" stop-color="#020DEF"/>
<stop offset="0.55" stop-color="#030DEF" stop-opacity="0.98"/>
<stop offset="0.6" stop-color="#080FEF" stop-opacity="0.93"/>
<stop offset="0.65" stop-color="#1013F1" stop-opacity="0.85"/>
<stop offset="0.69" stop-color="#1C18F2" stop-opacity="0.73"/>
<stop offset="0.74" stop-color="#2E20F5" stop-opacity="0.56"/>
<stop offset="0.8" stop-color="#372DF7" stop-opacity="0.64"/>
<stop offset="0.93" stop-color="#504FFC" stop-opacity="0.87"/>
<stop offset="1" stop-color="#5E63FF"/>
</linearGradient>
<linearGradient id="paint9_linear_29_2" x1="127.075" y1="355.834" x2="720.948" y2="376.7" gradientUnits="userSpaceOnUse">
<stop stop-color="#516EFF"/>
<stop offset="0.01" stop-color="#4E6AFE" stop-opacity="0.98"/>
<stop offset="0.2" stop-color="#2F31F6" stop-opacity="0.64"/>
<stop offset="0.29" stop-color="#231BF3" stop-opacity="0.5"/>
<stop offset="0.31" stop-color="#1A17F2" stop-opacity="0.62"/>
<stop offset="0.35" stop-color="#1114F1" stop-opacity="0.76"/>
<stop offset="0.38" stop-color="#0A11F0" stop-opacity="0.86"/>
<stop offset="0.41" stop-color="#050FF0" stop-opacity="0.94"/>
<stop offset="0.45" stop-color="#020EF0" stop-opacity="0.99"/>
<stop offset="0.5" stop-color="#020EF0"/>
<stop offset="0.55" stop-color="#030EF0" stop-opacity="0.98"/>
<stop offset="0.59" stop-color="#0710F0" stop-opacity="0.93"/>
<stop offset="0.64" stop-color="#0D14F1" stop-opacity="0.85"/>
<stop offset="0.68" stop-color="#1719F2" stop-opacity="0.73"/>
<stop offset="0.72" stop-color="#231FF4" stop-opacity="0.59"/>
<stop offset="0.74" stop-color="#2A23F5" stop-opacity="0.5"/>
<stop offset="0.8" stop-color="#3130F6" stop-opacity="0.59"/>
<stop offset="0.92" stop-color="#4553FB" stop-opacity="0.82"/>
<stop offset="1" stop-color="#556EFF"/>
</linearGradient>
<linearGradient id="paint10_linear_29_2" x1="146.712" y1="344.522" x2="716.443" y2="380.445" gradientUnits="userSpaceOnUse">
<stop stop-color="#5A63FE"/>
<stop offset="0.18" stop-color="#3832F7" stop-opacity="0.71"/>
<stop offset="0.29" stop-color="#2719F4" stop-opacity="0.56"/>
<stop offset="0.3" stop-color="#2117F3" stop-opacity="0.62"/>
<stop offset="0.34" stop-color="#1614F2" stop-opacity="0.76"/>
<stop offset="0.37" stop-color="#0D11F1" stop-opacity="0.86"/>
<stop offset="0.41" stop-color="#070FF0" stop-opacity="0.94"/>
<stop offset="0.45" stop-color="#030EF0" stop-opacity="0.99"/>
<stop offset="0.5" stop-color="#010EF0"/>
<stop offset="0.55" stop-color="#020EF0" stop-opacity="0.98"/>
<stop offset="0.59" stop-color="#0510F0" stop-opacity="0.93"/>
<stop offset="0.63" stop-color="#0A14F1" stop-opacity="0.85"/>
<stop offset="0.67" stop-color="#1219F2" stop-opacity="0.74"/>
<stop offset="0.71" stop-color="#1B1FF3" stop-opacity="0.59"/>
<stop offset="0.74" stop-color="#2526F5" stop-opacity="0.44"/>
<stop offset="0.79" stop-color="#2B33F6" stop-opacity="0.54"/>
<stop offset="0.9" stop-color="#3B56FA" stop-opacity="0.77"/>
<stop offset="1" stop-color="#4C7AFF"/>
</linearGradient>
<linearGradient id="paint11_linear_29_2" x1="164.445" y1="338.947" x2="705.254" y2="386.653" gradientUnits="userSpaceOnUse">
<stop stop-color="#6358FE"/>
<stop offset="0.15" stop-color="#4334F8" stop-opacity="0.78"/>
<stop offset="0.29" stop-color="#2A17F3" stop-opacity="0.62"/>
<stop offset="0.33" stop-color="#1B14F2" stop-opacity="0.76"/>
<stop offset="0.36" stop-color="#1011F1" stop-opacity="0.86"/>
<stop offset="0.4" stop-color="#080FF0" stop-opacity="0.94"/>
<stop offset="0.45" stop-color="#030EF0" stop-opacity="0.99"/>
<stop offset="0.5" stop-color="#010EF0"/>
<stop offset="0.55" stop-color="#010EF0" stop-opacity="0.98"/>
<stop offset="0.58" stop-color="#0410F0" stop-opacity="0.93"/>
<stop offset="0.62" stop-color="#0814F1" stop-opacity="0.85"/>
<stop offset="0.66" stop-color="#0E19F2" stop-opacity="0.74"/>
<stop offset="0.7" stop-color="#1520F3" stop-opacity="0.59"/>
<stop offset="0.74" stop-color="#2029F5" stop-opacity="0.39"/>
<stop offset="0.79" stop-color="#2536F6" stop-opacity="0.48"/>
<stop offset="0.89" stop-color="#325AFA" stop-opacity="0.72"/>
<stop offset="1" stop-color="#4285FF"/>
</linearGradient>
<linearGradient id="paint12_linear_29_2" x1="177.512" y1="339.841" x2="689.76" y2="391.938" gradientUnits="userSpaceOnUse">
<stop stop-color="#6C4DFE"/>
<stop offset="0.11" stop-color="#5336F9" stop-opacity="0.86"/>
<stop offset="0.29" stop-color="#2F16F4" stop-opacity="0.67"/>
<stop offset="0.31" stop-color="#2314F2" stop-opacity="0.75"/>
<stop offset="0.36" stop-color="#1411F1" stop-opacity="0.86"/>
<stop offset="0.4" stop-color="#0A10F0" stop-opacity="0.94"/>
<stop offset="0.44" stop-color="#040FF0" stop-opacity="0.99"/>
<stop offset="0.5" stop-color="#010FF0"/>
<stop offset="0.54" stop-color="#010FF0" stop-opacity="0.98"/>
<stop offset="0.58" stop-color="#0311F0" stop-opacity="0.93"/>
<stop offset="0.62" stop-color="#0615F0" stop-opacity="0.85"/>
<stop offset="0.66" stop-color="#0B1AF1" stop-opacity="0.74"/>
<stop offset="0.69" stop-color="#1120F2" stop-opacity="0.59"/>
<stop offset="0.73" stop-color="#1827F3" stop-opacity="0.41"/>
<stop offset="0.74" stop-color="#1C2BF4" stop-opacity="0.33"/>
<stop offset="0.79" stop-color="#1F38F5" stop-opacity="0.43"/>
<stop offset="0.88" stop-color="#2A5CF9" stop-opacity="0.66"/>
<stop offset="1" stop-color="#3990FF"/>
</linearGradient>
<linearGradient id="paint13_linear_29_2" x1="200.806" y1="339.318" x2="688.843" y2="397.971" gradientUnits="userSpaceOnUse">
<stop stop-color="#7542FE"/>
<stop offset="0.05" stop-color="#6839FC" stop-opacity="0.95"/>
<stop offset="0.29" stop-color="#3315F5" stop-opacity="0.72"/>
<stop offset="0.3" stop-color="#2E14F4" stop-opacity="0.75"/>
<stop offset="0.34" stop-color="#1A12F2" stop-opacity="0.86"/>
<stop offset="0.39" stop-color="#0C10F1" stop-opacity="0.94"/>
<stop offset="0.44" stop-color="#040FF0" stop-opacity="0.98"/>
<stop offset="0.5" stop-color="#010FF0"/>
<stop offset="0.54" stop-color="#010FF0" stop-opacity="0.98"/>
<stop offset="0.58" stop-color="#0211F0" stop-opacity="0.93"/>
<stop offset="0.61" stop-color="#0515F0" stop-opacity="0.85"/>
<stop offset="0.65" stop-color="#081AF1" stop-opacity="0.74"/>
<stop offset="0.68" stop-color="#0D20F2" stop-opacity="0.59"/>
<stop offset="0.72" stop-color="#1228F3" stop-opacity="0.41"/>
<stop offset="0.74" stop-color="#172EF4" stop-opacity="0.28"/>
<stop offset="0.78" stop-color="#1A3BF5" stop-opacity="0.37"/>
<stop offset="0.87" stop-color="#215FF9" stop-opacity="0.61"/>
<stop offset="1" stop-color="#2F9BFF"/>
</linearGradient>
<linearGradient id="paint14_linear_29_2" x1="217.988" y1="344.111" x2="684.117" y2="401.589" gradientUnits="userSpaceOnUse">
<stop stop-color="#7B35FD" stop-opacity="0.99"/>
<stop offset="0.29" stop-color="#3614F5" stop-opacity="0.78"/>
<stop offset="0.32" stop-color="#2312F3" stop-opacity="0.86"/>
<stop offset="0.38" stop-color="#1010F1" stop-opacity="0.94"/>
<stop offset="0.43" stop-color="#050FF0" stop-opacity="0.98"/>
<stop offset="0.5" stop-color="#010FF0"/>
<stop offset="0.54" stop-color="#010FF0" stop-opacity="0.98"/>
<stop offset="0.58" stop-color="#0211F0" stop-opacity="0.94"/>
<stop offset="0.61" stop-color="#0415F0" stop-opacity="0.85"/>
<stop offset="0.64" stop-color="#061AF1" stop-opacity="0.74"/>
<stop offset="0.68" stop-color="#0920F2" stop-opacity="0.59"/>
<stop offset="0.71" stop-color="#0D28F3" stop-opacity="0.41"/>
<stop offset="0.74" stop-color="#1231F4" stop-opacity="0.22"/>
<stop offset="0.78" stop-color="#143EF5" stop-opacity="0.31"/>
<stop offset="0.86" stop-color="#1A62F8" stop-opacity="0.55"/>
<stop offset="0.98" stop-color="#249BFE" stop-opacity="0.93"/>
<stop offset="1" stop-color="#26A6FF"/>
</linearGradient>
<linearGradient id="paint15_linear_29_2" x1="228.236" y1="350.558" x2="674.373" y2="400.821" gradientUnits="userSpaceOnUse">
<stop stop-color="#872CFE"/>
<stop offset="0.29" stop-color="#3A12F5" stop-opacity="0.83"/>
<stop offset="0.32" stop-color="#2811F3" stop-opacity="0.89"/>
<stop offset="0.37" stop-color="#1310F1" stop-opacity="0.95"/>
<stop offset="0.43" stop-color="#0610F0" stop-opacity="0.99"/>
<stop offset="0.5" stop-color="#0110F0"/>
<stop offset="0.54" stop-color="#0110F0" stop-opacity="0.98"/>
<stop offset="0.57" stop-color="#0212F0" stop-opacity="0.94"/>
<stop offset="0.61" stop-color="#0316F0" stop-opacity="0.85"/>
<stop offset="0.64" stop-color="#051BF1" stop-opacity="0.74"/>
<stop offset="0.67" stop-color="#0721F1" stop-opacity="0.59"/>
<stop offset="0.71" stop-color="#0A29F2" stop-opacity="0.41"/>
<stop offset="0.74" stop-color="#0E34F4" stop-opacity="0.17"/>
<stop offset="0.78" stop-color="#0F41F5" stop-opacity="0.26"/>
<stop offset="0.86" stop-color="#1365F8" stop-opacity="0.5"/>
<stop offset="0.97" stop-color="#199EFD" stop-opacity="0.88"/>
<stop offset="1" stop-color="#1CB1FF"/>
</linearGradient>
<linearGradient id="paint16_linear_29_2" x1="241.793" y1="359.031" x2="671.722" y2="401.111" gradientUnits="userSpaceOnUse">
<stop stop-color="#9020FE"/>
<stop offset="0.29" stop-color="#3E11F5" stop-opacity="0.89"/>
<stop offset="0.33" stop-color="#2710F3" stop-opacity="0.93"/>
<stop offset="0.38" stop-color="#1210F1" stop-opacity="0.97"/>
<stop offset="0.43" stop-color="#0610F0" stop-opacity="0.99"/>
<stop offset="0.5" stop-color="#0010F0"/>
<stop offset="0.54" stop-color="#0010F0" stop-opacity="0.98"/>
<stop offset="0.57" stop-color="#0012F0" stop-opacity="0.94"/>
<stop offset="0.6" stop-color="#0116F0" stop-opacity="0.85"/>
<stop offset="0.64" stop-color="#021BF0" stop-opacity="0.74"/>
<stop offset="0.67" stop-color="#0421F1" stop-opacity="0.59"/>
<stop offset="0.7" stop-color="#0529F1" stop-opacity="0.41"/>
<stop offset="0.73" stop-color="#0832F2" stop-opacity="0.2"/>
<stop offset="0.74" stop-color="#0936F3" stop-opacity="0.11"/>
<stop offset="0.78" stop-color="#0A44F4" stop-opacity="0.2"/>
<stop offset="0.85" stop-color="#0C68F7" stop-opacity="0.44"/>
<stop offset="0.95" stop-color="#11A2FC" stop-opacity="0.83"/>
<stop offset="1" stop-color="#13BDFF"/>
</linearGradient>
<linearGradient id="paint17_linear_29_2" x1="256.678" y1="363.001" x2="674.285" y2="393.952" gradientUnits="userSpaceOnUse">
<stop stop-color="#9915FE"/>
<stop offset="0.29" stop-color="#3F0FF5" stop-opacity="0.95"/>
<stop offset="0.34" stop-color="#250FF3" stop-opacity="0.97"/>
<stop offset="0.39" stop-color="#1110F1" stop-opacity="0.99"/>
<stop offset="0.44" stop-color="#0610F0"/>
<stop offset="0.5" stop-color="#0011F0"/>
<stop offset="0.54" stop-color="#0011F0" stop-opacity="0.98"/>
<stop offset="0.57" stop-color="#0013F0" stop-opacity="0.94"/>
<stop offset="0.6" stop-color="#0017F0" stop-opacity="0.85"/>
<stop offset="0.63" stop-color="#011CF0" stop-opacity="0.74"/>
<stop offset="0.66" stop-color="#0222F1" stop-opacity="0.59"/>
<stop offset="0.69" stop-color="#0329F1" stop-opacity="0.41"/>
<stop offset="0.72" stop-color="#0432F2" stop-opacity="0.2"/>
<stop offset="0.74" stop-color="#0539F3" stop-opacity="0.06"/>
<stop offset="0.78" stop-color="#0547F4" stop-opacity="0.15"/>
<stop offset="0.84" stop-color="#066BF7" stop-opacity="0.39"/>
<stop offset="0.94" stop-color="#08A5FC" stop-opacity="0.77"/>
<stop offset="1" stop-color="#09C8FF"/>
</linearGradient>
<linearGradient id="paint18_linear_29_2" x1="260.481" y1="372.219" x2="660.988" y2="388.522" gradientUnits="userSpaceOnUse">
<stop stop-color="#A20AFE"/>
<stop offset="0.5" stop-color="#0011F0"/>
<stop offset="0.54" stop-color="#0011F0" stop-opacity="0.98"/>
<stop offset="0.57" stop-color="#0013F0" stop-opacity="0.94"/>
<stop offset="0.6" stop-color="#0017F0" stop-opacity="0.85"/>
<stop offset="0.63" stop-color="#001CF0" stop-opacity="0.74"/>
<stop offset="0.66" stop-color="#0022F1" stop-opacity="0.59"/>
<stop offset="0.69" stop-color="#002AF1" stop-opacity="0.41"/>
<stop offset="0.72" stop-color="#0033F2" stop-opacity="0.2"/>
<stop offset="0.74" stop-color="#003CF3" stop-opacity="0"/>
<stop offset="0.77" stop-color="#004AF4" stop-opacity="0.09"/>
<stop offset="0.84" stop-color="#006EF7" stop-opacity="0.34"/>
<stop offset="0.93" stop-color="#00A8FB" stop-opacity="0.72"/>
<stop offset="1" stop-color="#00D3FF"/>
</linearGradient>
<linearGradient id="paint19_linear_29_2" x1="856.502" y1="371.163" x2="37.9209" y2="431.369" gradientUnits="userSpaceOnUse">
<stop stop-color="#00D3FF"/>
<stop offset="0.01" stop-color="#07C5FF"/>
<stop offset="0.07" stop-color="#2491FF"/>
<stop offset="0.13" stop-color="#3D64FF"/>
<stop offset="0.18" stop-color="#5140FF"/>
<stop offset="0.24" stop-color="#6124FF"/>
<stop offset="0.3" stop-color="#6C10FF"/>
<stop offset="0.35" stop-color="#7304FF"/>
<stop offset="0.41" stop-color="#7600FF"/>
<stop offset="0.63" stop-color="#7600FF" stop-opacity="0"/>
<stop offset="0.93" stop-color="#FD00FF"/>
</linearGradient>
<linearGradient id="paint20_linear_29_2" x1="837.177" y1="426.285" x2="39.2636" y2="381.335" gradientUnits="userSpaceOnUse">
<stop stop-color="#0EC6FF"/>
<stop offset="0.02" stop-color="#1DAAFF"/>
<stop offset="0.04" stop-color="#2996FF"/>
<stop offset="0.06" stop-color="#2F8AFF"/>
<stop offset="0.07" stop-color="#3286FF"/>
<stop offset="0.41" stop-color="#7900FF"/>
<stop offset="0.59" stop-color="#7600FF" stop-opacity="0.06"/>
<stop offset="0.63" stop-color="#7600FF" stop-opacity="0.06"/>
<stop offset="0.93" stop-color="#F108FF"/>
<stop offset="1" stop-color="#EF0CFF"/>
</linearGradient>
<linearGradient id="paint21_linear_29_2" x1="783.415" y1="463.075" x2="33.7762" y2="322.23" gradientUnits="userSpaceOnUse">
<stop stop-color="#1CBCFF"/>
<stop offset="0.02" stop-color="#2AA2FF"/>
<stop offset="0.04" stop-color="#358EFF"/>
<stop offset="0.05" stop-color="#3B82FF"/>
<stop offset="0.07" stop-color="#3E7EFF"/>
<stop offset="0.41" stop-color="#7B00FF"/>
<stop offset="0.59" stop-color="#7600FF" stop-opacity="0.11"/>
<stop offset="0.63" stop-color="#7600FF" stop-opacity="0.11"/>
<stop offset="0.93" stop-color="#E510FF"/>
<stop offset="1" stop-color="#E117FF"/>
</linearGradient>
<linearGradient id="paint22_linear_29_2" x1="746.908" y1="504.62" x2="49.7418" y2="290.897" gradientUnits="userSpaceOnUse">
<stop stop-color="#2AB0FF"/>
<stop offset="0.02" stop-color="#369AFF"/>
<stop offset="0.03" stop-color="#4186FF"/>
<stop offset="0.05" stop-color="#477AFF"/>
<stop offset="0.07" stop-color="#4A76FF"/>
<stop offset="0.41" stop-color="#7E00FF"/>
<stop offset="0.59" stop-color="#7600FF" stop-opacity="0.17"/>
<stop offset="0.63" stop-color="#7600FF" stop-opacity="0.17"/>
<stop offset="0.93" stop-color="#D918FF"/>
<stop offset="1" stop-color="#D323FF"/>
</linearGradient>
<linearGradient id="paint23_linear_29_2" x1="705.71" y1="542.388" x2="63.8382" y2="276.267" gradientUnits="userSpaceOnUse">
<stop stop-color="#38A4FF"/>
<stop offset="0.01" stop-color="#4192FF"/>
<stop offset="0.03" stop-color="#4D7EFF"/>
<stop offset="0.05" stop-color="#5372FF"/>
<stop offset="0.07" stop-color="#566EFF"/>
<stop offset="0.41" stop-color="#8000FF"/>
<stop offset="0.59" stop-color="#7600FF" stop-opacity="0.22"/>
<stop offset="0.63" stop-color="#7600FF" stop-opacity="0.22"/>
<stop offset="0.93" stop-color="#CD20FF"/>
<stop offset="1" stop-color="#C52FFF"/>
</linearGradient>
<linearGradient id="paint24_linear_29_2" x1="703.691" y1="593.401" x2="98.3119" y2="288.373" gradientUnits="userSpaceOnUse">
<stop stop-color="#4698FF"/>
<stop offset="0.01" stop-color="#4D8BFF"/>
<stop offset="0.03" stop-color="#5877FF"/>
<stop offset="0.05" stop-color="#5F6BFF"/>
<stop offset="0.07" stop-color="#6267FF"/>
<stop offset="0.41" stop-color="#8300FF"/>
<stop offset="0.59" stop-color="#7600FF" stop-opacity="0.28"/>
<stop offset="0.63" stop-color="#7601FF" stop-opacity="0.28"/>
<stop offset="0.93" stop-color="#C127FF"/>
<stop offset="1" stop-color="#B73BFF"/>
</linearGradient>
<linearGradient id="paint25_linear_29_2" x1="646.715" y1="648.84" x2="66.6697" y2="340.835" gradientUnits="userSpaceOnUse">
<stop stop-color="#5983FF"/>
<stop offset="0.03" stop-color="#646FFF"/>
<stop offset="0.05" stop-color="#6B63FF"/>
<stop offset="0.07" stop-color="#6E5FFF"/>
<stop offset="0.41" stop-color="#8600FF"/>
<stop offset="0.59" stop-color="#7600FF" stop-opacity="0.33"/>
<stop offset="0.63" stop-color="#7601FF" stop-opacity="0.33"/>
<stop offset="0.93" stop-color="#B52FFF"/>
<stop offset="1" stop-color="#A946FF"/>
</linearGradient>
<linearGradient id="paint26_linear_29_2" x1="686.01" y1="770.534" x2="64.3388" y2="483.022" gradientUnits="userSpaceOnUse">
<stop stop-color="#657BFF"/>
<stop offset="0.03" stop-color="#7067FF"/>
<stop offset="0.05" stop-color="#775BFF"/>
<stop offset="0.07" stop-color="#7A57FF"/>
<stop offset="0.41" stop-color="#8800FF"/>
<stop offset="0.59" stop-color="#7600FF" stop-opacity="0.39"/>
<stop offset="0.63" stop-color="#7601FF" stop-opacity="0.39"/>
<stop offset="0.93" stop-color="#A937FF"/>
<stop offset="1" stop-color="#9B52FF"/>
</linearGradient>
<linearGradient id="paint27_linear_29_2" x1="921.038" y1="894.469" x2="171.766" y2="705.207" gradientUnits="userSpaceOnUse">
<stop stop-color="#7173FF"/>
<stop offset="0.03" stop-color="#7C5FFF"/>
<stop offset="0.05" stop-color="#8353FF"/>
<stop offset="0.07" stop-color="#864FFF"/>
<stop offset="0.41" stop-color="#8B00FF"/>
<stop offset="0.59" stop-color="#7600FF" stop-opacity="0.44"/>
<stop offset="0.63" stop-color="#7601FF" stop-opacity="0.44"/>
<stop offset="0.93" stop-color="#9D3FFF"/>
<stop offset="1" stop-color="#8D5EFF"/>
</linearGradient>
<linearGradient id="paint28_linear_29_2" x1="1124.47" y1="547.919" x2="310.466" y2="606.771" gradientUnits="userSpaceOnUse">
<stop stop-color="#7F6AFF"/>
<stop offset="0.02" stop-color="#8957FF"/>
<stop offset="0.05" stop-color="#8F4BFF"/>
<stop offset="0.07" stop-color="#9247FF"/>
<stop offset="0.41" stop-color="#8E00FF"/>
<stop offset="0.59" stop-color="#7600FF" stop-opacity="0.5"/>
<stop offset="0.63" stop-color="#7601FF" stop-opacity="0.5"/>
<stop offset="0.93" stop-color="#9247FF"/>
<stop offset="1" stop-color="#7F6AFF"/>
</linearGradient>
<linearGradient id="paint29_linear_29_2" x1="814.078" y1="171.797" x2="163.444" y2="458.669" gradientUnits="userSpaceOnUse">
<stop stop-color="#8D5EFF"/>
<stop offset="0.02" stop-color="#944FFF"/>
<stop offset="0.05" stop-color="#9A43FF"/>
<stop offset="0.07" stop-color="#9D3FFF"/>
<stop offset="0.41" stop-color="#9000FF"/>
<stop offset="0.59" stop-color="#7600FF" stop-opacity="0.56"/>
<stop offset="0.63" stop-color="#7501FF" stop-opacity="0.56"/>
<stop offset="0.93" stop-color="#864FFF"/>
<stop offset="1" stop-color="#7075FF"/>
</linearGradient>
<linearGradient id="paint30_linear_29_2" x1="639.346" y1="128.603" x2="122.995" y2="487.427" gradientUnits="userSpaceOnUse">
<stop stop-color="#9B52FF"/>
<stop offset="0.02" stop-color="#A047FF"/>
<stop offset="0.05" stop-color="#A63BFF"/>
<stop offset="0.07" stop-color="#A937FF"/>
<stop offset="0.41" stop-color="#9300FF"/>
<stop offset="0.59" stop-color="#7600FF" stop-opacity="0.61"/>
<stop offset="0.63" stop-color="#7501FF" stop-opacity="0.61"/>
<stop offset="0.93" stop-color="#7A57FF"/>
<stop offset="1" stop-color="#6281FF"/>
</linearGradient>
<linearGradient id="paint31_linear_29_2" x1="626.377" y1="154.705" x2="155.314" y2="522.743" gradientUnits="userSpaceOnUse">
<stop stop-color="#A946FF"/>
<stop offset="0.01" stop-color="#AC3FFF"/>
<stop offset="0.04" stop-color="#B233FF"/>
<stop offset="0.07" stop-color="#B52FFF"/>
<stop offset="0.41" stop-color="#9500FF"/>
<stop offset="0.59" stop-color="#7600FF" stop-opacity="0.67"/>
<stop offset="0.63" stop-color="#7501FF" stop-opacity="0.67"/>
<stop offset="0.93" stop-color="#6E5FFF"/>
<stop offset="1" stop-color="#548DFF"/>
</linearGradient>
<linearGradient id="paint32_linear_29_2" x1="656.546" y1="172.626" x2="187.05" y2="531.585" gradientUnits="userSpaceOnUse">
<stop stop-color="#B837FF"/>
<stop offset="0.04" stop-color="#BE2BFF"/>
<stop offset="0.07" stop-color="#C127FF"/>
<stop offset="0.41" stop-color="#9800FF"/>
<stop offset="0.59" stop-color="#7600FF" stop-opacity="0.72"/>
<stop offset="0.63" stop-color="#7501FF" stop-opacity="0.72"/>
<stop offset="0.93" stop-color="#6267FF"/>
<stop offset="1" stop-color="#4698FF"/>
</linearGradient>
<linearGradient id="paint33_linear_29_2" x1="714.49" y1="191.65" x2="218.014" y2="527.898" gradientUnits="userSpaceOnUse">
<stop stop-color="#C52FFF"/>
<stop offset="0.04" stop-color="#CA24FF"/>
<stop offset="0.07" stop-color="#CD20FF"/>
<stop offset="0.41" stop-color="#9B00FF"/>
<stop offset="0.59" stop-color="#7600FF" stop-opacity="0.78"/>
<stop offset="0.63" stop-color="#7502FF" stop-opacity="0.78"/>
<stop offset="0.93" stop-color="#566EFF"/>
<stop offset="1" stop-color="#38A4FF"/>
</linearGradient>
<linearGradient id="paint34_linear_29_2" x1="731.208" y1="254.821" x2="210.386" y2="548.322" gradientUnits="userSpaceOnUse">
<stop stop-color="#D323FF"/>
<stop offset="0.03" stop-color="#D61CFF"/>
<stop offset="0.07" stop-color="#D918FF"/>
<stop offset="0.41" stop-color="#9D00FF"/>
<stop offset="0.59" stop-color="#7600FF" stop-opacity="0.83"/>
<stop offset="0.63" stop-color="#7502FF" stop-opacity="0.83"/>
<stop offset="0.93" stop-color="#4A76FF"/>
<stop offset="1" stop-color="#2AB0FF"/>
</linearGradient>
<linearGradient id="paint35_linear_29_2" x1="752.99" y1="284.565" x2="200.302" y2="525.684" gradientUnits="userSpaceOnUse">
<stop stop-color="#E117FF"/>
<stop offset="0.02" stop-color="#E214FF"/>
<stop offset="0.07" stop-color="#E510FF"/>
<stop offset="0.41" stop-color="#A000FF"/>
<stop offset="0.59" stop-color="#7600FF" stop-opacity="0.89"/>
<stop offset="0.63" stop-color="#7502FF" stop-opacity="0.89"/>
<stop offset="0.93" stop-color="#3E7EFF"/>
<stop offset="1" stop-color="#1CBCFF"/>
</linearGradient>
<linearGradient id="paint36_linear_29_2" x1="736.778" y1="328.075" x2="165.694" y2="504.45" gradientUnits="userSpaceOnUse">
<stop stop-color="#EF0CFF"/>
<stop offset="0.07" stop-color="#F108FF"/>
<stop offset="0.41" stop-color="#A200FF"/>
<stop offset="0.59" stop-color="#7600FF" stop-opacity="0.94"/>
<stop offset="0.63" stop-color="#7502FF" stop-opacity="0.94"/>
<stop offset="0.93" stop-color="#3286FF"/>
<stop offset="1" stop-color="#0EC7FF"/>
</linearGradient>
<linearGradient id="paint37_linear_29_2" x1="733.416" y1="352.919" x2="149.031" y2="455.226" gradientUnits="userSpaceOnUse">
<stop offset="0.07" stop-color="#FD00FF"/>
<stop offset="0.59" stop-color="#7600FF"/>
<stop offset="0.65" stop-color="#7304FF"/>
<stop offset="0.7" stop-color="#6C10FF"/>
<stop offset="0.76" stop-color="#6124FF"/>
<stop offset="0.82" stop-color="#5140FF"/>
<stop offset="0.87" stop-color="#3D64FF"/>
<stop offset="0.93" stop-color="#2491FF"/>
<stop offset="0.99" stop-color="#07C5FF"/>
<stop offset="1" stop-color="#00D3FF"/>
</linearGradient>
<linearGradient id="paint38_linear_29_2" x1="197.656" y1="238.522" x2="74.7355" y2="189.737" gradientUnits="userSpaceOnUse">
<stop offset="0.03" stop-color="#DB00FF"/>
<stop offset="0.35" stop-color="#7600FF"/>
<stop offset="0.44" stop-color="#7304FF"/>
<stop offset="0.53" stop-color="#6C10FF"/>
<stop offset="0.62" stop-color="#6124FF"/>
<stop offset="0.71" stop-color="#5140FF"/>
<stop offset="0.8" stop-color="#3D64FF"/>
<stop offset="0.89" stop-color="#2491FF"/>
<stop offset="0.98" stop-color="#07C5FF"/>
<stop offset="1" stop-color="#00D3FF"/>
</linearGradient>
<linearGradient id="paint39_linear_29_2" x1="224.44" y1="314.103" x2="187.035" y2="299.26" gradientUnits="userSpaceOnUse">
<stop offset="0.03" stop-color="#DB00FF"/>
<stop offset="0.35" stop-color="#7600FF"/>
<stop offset="0.44" stop-color="#7304FF"/>
<stop offset="0.53" stop-color="#6C10FF"/>
<stop offset="0.62" stop-color="#6124FF"/>
<stop offset="0.71" stop-color="#5140FF"/>
<stop offset="0.8" stop-color="#3D64FF"/>
<stop offset="0.89" stop-color="#2491FF"/>
<stop offset="0.98" stop-color="#07C5FF"/>
<stop offset="1" stop-color="#00D3FF"/>
</linearGradient>
<linearGradient id="paint40_linear_29_2" x1="600.461" y1="245.07" x2="574.958" y2="203.024" gradientUnits="userSpaceOnUse">
<stop offset="0.03" stop-color="#DB00FF"/>
<stop offset="0.35" stop-color="#7600FF"/>
<stop offset="0.44" stop-color="#7304FF"/>
<stop offset="0.53" stop-color="#6C10FF"/>
<stop offset="0.62" stop-color="#6124FF"/>
<stop offset="0.71" stop-color="#5140FF"/>
<stop offset="0.8" stop-color="#3D64FF"/>
<stop offset="0.89" stop-color="#2491FF"/>
<stop offset="0.98" stop-color="#07C5FF"/>
<stop offset="1" stop-color="#00D3FF"/>
</linearGradient>
<clipPath id="clip0_29_2">
<rect width="879" height="771" fill="white" transform="translate(0.246582)"/>
</clipPath>
</defs>
</svg>
